<?xml version="1.0" standalone="no"?>
<!DOCTYPE svg PUBLIC "-//W3C//DTD SVG 1.1//EN" "http://www.w3.org/Graphics/SVG/1.1/DTD/svg11.dtd" >
<svg>
<metadata>
Created by FontForge 20090622 at Mon Sep 21 18:29:42 2015
 By deploy user
Copyright (c) 1992-2011 YOFonts. All rights reserved. Version 2.10. Designed by Yamaoka Yasuhiro, 1992.
</metadata>
<defs>
<font id="Eau-SansBold" horiz-adv-x="880" >
  <font-face 
    font-family="Eau"
    font-weight="700"
    font-stretch="normal"
    units-per-em="1350"
    panose-1="0 0 0 0 0 0 0 0 0 0"
    ascent="1050"
    descent="-300"
    x-height="720"
    cap-height="1000"
    bbox="-100 -300 1588 1288"
    underline-thickness="40"
    underline-position="-226"
    unicode-range="U+0020-U+FB02"
  />
<missing-glyph horiz-adv-x="350" 
 />
    <glyph glyph-name=".notdef" horiz-adv-x="350" 
 />
    <glyph glyph-name=".null" horiz-adv-x="0" 
 />
    <glyph glyph-name="nonmarkingreturn" horiz-adv-x="450" 
 />
    <glyph glyph-name="space" unicode=" " horiz-adv-x="350" 
 />
    <glyph glyph-name="exclam" unicode="!" horiz-adv-x="415" 
d="M303 183v-183h-191v183h191zM100 1000h215l-42 -720h-131z" />
    <glyph glyph-name="quotedbl" unicode="&#x22;" horiz-adv-x="660" 
d="M135 1000h192l-128 -335h-106zM410 1000h192l-128 -335h-106z" />
    <glyph glyph-name="numbersign" unicode="#" horiz-adv-x="810" 
d="M455 495l42 208h-142l-43 -208h143zM780 822v-119h-158l-42 -208h135v-120h-159l-36 -175h-125l35 175h-142l-35 -175h-126l36 175h-133v120h157l43 208h-136v119h160l36 178h125l-36 -178h143l36 178h124l-35 -178h133z" />
    <glyph glyph-name="dollar" unicode="$" horiz-adv-x="703" 
d="M483 304q0 63 -75 100v-215q75 37 75 115zM303 621v191q-33 -15 -51 -41.5t-18 -54.5q0 -58 69 -95zM661 311q0 -106 -65.5 -179.5t-182.5 -93.5v-138h-115v133q-158 12 -258 112l103 103q62 -64 155 -75v272q-42 14 -69.5 25.5t-63 33.5t-55.5 47.5t-35 65.5t-15 90
q0 92 62 164t176 91v138h115v-134q147 -11 246 -110l-103 -103q-63 63 -143 74v-249q44 -15 72 -26t65 -33.5t58.5 -48.5t37 -67t15.5 -92z" />
    <glyph glyph-name="percent" unicode="%" horiz-adv-x="1217" 
d="M287 898q-55 0 -89 -47.5t-34 -125.5t34 -125.5t89 -47.5t89 47.5t34 125.5t-34 125.5t-89 47.5zM1053 275q0 78 -34 125.5t-89 47.5q-54 0 -88 -47.5t-34 -125.5t34 -125.5t88 -47.5q55 0 89 47.5t34 125.5zM287 1010q110 0 181 -79t71 -206t-71 -206t-181 -79t-181 79
t-71 206t71 206t181 79zM870 1050h127l-650 -1100h-127zM1182 275q0 -127 -70.5 -206t-181.5 -79q-110 0 -181 79t-71 206t71 206t181 79q111 0 181.5 -79t70.5 -206z" />
    <glyph glyph-name="ampersand" unicode="&#x26;" horiz-adv-x="980" 
d="M614 201l-248 248q-60 -36 -87.5 -78.5t-27.5 -100.5q0 -63 50.5 -105.5t124.5 -42.5q115 0 188 79zM508 785q0 37 -28.5 66t-71.5 29t-71.5 -29t-28.5 -66q0 -39 20 -68.5t74 -83.5q58 38 82 73t24 79zM836 212l213 -212h-234l-89 89q-118 -107 -298 -107
q-164 0 -263.5 77t-99.5 200q0 94 49 165t147 127q-70 69 -97.5 121t-27.5 118q0 38 18 77.5t50.5 73t86 55t117.5 21.5q125 0 197.5 -71.5t72.5 -155.5q0 -76 -40 -136t-125 -119l192 -192q31 84 31 207h175q0 -196 -75 -338z" />
    <glyph glyph-name="quotesingle" unicode="'" horiz-adv-x="390" 
d="M137 1000h193l-128 -335h-107z" />
    <glyph glyph-name="parenleft" unicode="(" horiz-adv-x="500" 
d="M447 -10l-157 -60q-182 284 -182 570t182 570l157 -60q-160 -249 -160 -510q0 -269 160 -510z" />
    <glyph glyph-name="parenright" unicode=")" horiz-adv-x="500" 
d="M392 500q0 -162 -49 -299.5t-133 -270.5l-157 60q160 249 160 510q0 269 -160 510l157 60q84 -133 133 -270.5t49 -299.5z" />
    <glyph glyph-name="asterisk" unicode="*" horiz-adv-x="562" 
d="M501 876l30 -93l-171 -56l106 -145l-79 -58l-106 146l-106 -146l-79 58l106 145l-171 56l30 93l171 -56v180h98v-180z" />
    <glyph glyph-name="plus" unicode="+" horiz-adv-x="760" 
d="M705 552v-125h-263v-262h-124v262h-263v125h263v263h124v-263h263z" />
    <glyph glyph-name="comma" unicode="," horiz-adv-x="390" 
d="M115 183h192l-128 -335h-106z" />
    <glyph glyph-name="hyphen" unicode="-" horiz-adv-x="465" 
d="M405 437v-125h-345v125h345z" />
    <glyph glyph-name="period" unicode="." horiz-adv-x="390" 
d="M290 183v-183h-190v183h190z" />
    <glyph glyph-name="slash" unicode="/" horiz-adv-x="440" 
d="M300 1050h115l-275 -1100h-115z" />
    <glyph glyph-name="zero" unicode="0" horiz-adv-x="900" 
d="M640 500q0 180 -48 272.5t-142 92.5t-142 -92.5t-48 -272.5t48 -272.5t142 -92.5t142 92.5t48 272.5zM830 500q0 -235 -101.5 -375t-278.5 -140t-278.5 140t-101.5 375t101.5 375t278.5 140t278.5 -140t101.5 -375z" />
    <glyph glyph-name="one" unicode="1" horiz-adv-x="575" 
d="M432 1000v-1000h-177v814q-28 -28 -89.5 -54.5t-125.5 -35.5v154q59 8 128 46t107 76h157z" />
    <glyph glyph-name="two" unicode="2" horiz-adv-x="780" 
d="M725 158v-158h-660v128q260 235 352 358t92 224q0 65 -41 109t-113 44q-91 0 -173 -82l-114 114q123 123 300 123q148 0 237 -80.5t89 -207.5q0 -124 -86.5 -256.5t-282.5 -315.5h400z" />
    <glyph glyph-name="three" unicode="3" horiz-adv-x="770" 
d="M708 281q0 -127 -104 -213t-264 -86q-190 0 -301 123l115 114q80 -82 181 -82q80 0 131 43.5t51 105.5t-50.5 105.5t-131.5 43.5h-92v158h92q81 0 125.5 38.5t44.5 96.5t-45 96.5t-120 38.5q-93 0 -175 -82l-114 114q124 122 289 122q149 0 247 -80.5t98 -205.5
q0 -79 -47 -138t-103 -78q68 -22 120.5 -90t52.5 -144z" />
    <glyph glyph-name="four" unicode="4" horiz-adv-x="870" 
d="M236 383h269v384zM824 383v-158h-145v-225h-174v225h-445v162l434 613h185v-617h145z" />
    <glyph glyph-name="five" unicode="5" horiz-adv-x="790" 
d="M732 315q0 -144 -100.5 -238.5t-261.5 -94.5q-196 0 -305 123l114 114q80 -82 186 -82q84 0 135.5 52.5t51.5 125.5q0 76 -51.5 128.5t-135.5 52.5q-64 0 -117 -40l-143 72v472h570v-158h-392v-224q52 25 119 25q143 0 236.5 -94.5t93.5 -233.5z" />
    <glyph glyph-name="six" unicode="6" 
d="M634 314q0 74 -48.5 127.5t-128.5 53.5q-79 0 -127.5 -53.5t-48.5 -127.5t48.5 -128t127.5 -54q80 0 128.5 53.5t48.5 128.5zM814 314q0 -142 -101.5 -235.5t-255.5 -93.5q-184 0 -282 139.5t-98 375.5t110 375.5t308 139.5q92 0 169 -34.5t128 -85.5l-114 -114
q-79 79 -185 79q-108 0 -169.5 -86t-64.5 -237q22 39 80.5 72.5t127.5 33.5q151 0 249 -94.5t98 -234.5z" />
    <glyph glyph-name="seven" unicode="7" horiz-adv-x="775" 
d="M722 1000v-128q-138 -198 -223 -394.5t-143 -477.5h-203q68 287 147.5 480t196.5 362h-457v158h682z" />
    <glyph glyph-name="eight" unicode="8" horiz-adv-x="860" 
d="M608 286q0 66 -49 112.5t-129 46.5t-129 -46.5t-49 -112.5t49 -112.5t129 -46.5t129 46.5t49 112.5zM595 728q0 60 -45.5 102t-119.5 42q-75 0 -120 -42t-45 -102t45 -102t120 -42q74 0 119.5 42t45.5 102zM798 281q0 -127 -104 -213t-264 -86t-264 86t-104 213
q0 75 52.5 143.5t118.5 90.5q-55 19 -101.5 78t-46.5 138q0 125 97.5 205.5t247.5 80.5q149 0 247 -80.5t98 -205.5q0 -79 -47 -138t-103 -78q68 -22 120.5 -90t52.5 -144z" />
    <glyph glyph-name="nine" unicode="9" 
d="M599 686q0 74 -49 127.5t-128 53.5t-127.5 -53.5t-48.5 -127.5q0 -75 48.5 -128t128.5 -53t128 53t48 128zM803 500q0 -236 -110 -375.5t-308 -139.5q-92 0 -169 34.5t-128 85.5l114 114q79 -79 185 -79q108 0 169.5 86t63.5 237q-22 -39 -80 -72t-127 -33
q-151 0 -249 94t-98 234q0 142 101.5 235.5t254.5 93.5q124 0 210.5 -65.5t128.5 -180t42 -269.5z" />
    <glyph glyph-name="colon" unicode=":" horiz-adv-x="390" 
d="M290 183v-183h-190v183h190zM290 720v-183h-190v183h190z" />
    <glyph glyph-name="semicolon" unicode=";" horiz-adv-x="390" 
d="M115 183h192l-128 -335h-106zM290 720v-183h-190v183h190z" />
    <glyph glyph-name="less" unicode="&#x3c;" horiz-adv-x="440" 
d="M249 400l140 -280h-174l-140 280l140 280h174z" />
    <glyph glyph-name="equal" unicode="=" horiz-adv-x="760" 
d="M705 427v-125h-650v125h650zM705 677v-125h-650v125h650z" />
    <glyph glyph-name="greater" unicode="&#x3e;" horiz-adv-x="440" 
d="M225 680l140 -280l-140 -280h-174l140 280l-140 280h174z" />
    <glyph glyph-name="question" unicode="?" horiz-adv-x="712" 
d="M407 183v-183h-190v183h190zM658 732q0 -69 -25.5 -119t-74.5 -96q-3 -8 -34.5 -34.5t-34.5 -31.5q-50 -47 -70.5 -82t-20.5 -89h-170q0 133 83 218q3 7 33 33.5t33 32.5q43 44 63 78t20 85q0 53 -40.5 94.5t-101.5 41.5q-94 0 -174 -82l-114 114q125 123 295 123
q148 0 240.5 -83t92.5 -203z" />
    <glyph glyph-name="at" unicode="@" horiz-adv-x="1140" 
d="M695 494q13 77 -18 123.5t-88 46.5q-58 0 -104.5 -46t-60.5 -124q-14 -76 16.5 -122.5t87.5 -46.5q59 0 106 46t61 123zM1091 510q-11 -124 -93 -210.5t-185 -86.5q-55 0 -88 34t-30 87q-25 -56 -87 -90t-128 -34q-97 0 -157.5 83.5t-39.5 200.5q22 126 109 205.5
t189 79.5q48 0 91 -25t57 -64l13 77h135l-69 -389q-10 -64 34 -64q50 0 94.5 61.5t51.5 149.5q14 175 -92.5 285t-283.5 110q-90 0 -170.5 -35t-137.5 -94t-92.5 -136t-42.5 -160q-14 -173 92 -292.5t282 -119.5q163 0 291 113l72 -80q-165 -136 -380 -136q-147 0 -259.5 71
t-168.5 193t-46 271q6 97 50 188t115 161.5t172.5 113t214.5 42.5q233 0 370 -144t117 -366z" />
    <glyph glyph-name="A" unicode="A" horiz-adv-x="950" 
d="M336 387h278l-139 399zM577 1000l373 -1000h-203l-79 230h-386l-79 -230h-203l372 1000h205z" />
    <glyph glyph-name="B" unicode="B" horiz-adv-x="885" 
d="M633 297q0 60 -43.5 96.5t-120.5 36.5h-162v-277h162q79 0 121.5 38.5t42.5 105.5zM470 847h-163v-271h147q72 0 116 38t44 101q0 60 -36 96t-108 36zM825 267q0 -117 -83.5 -192t-233.5 -75h-388v1000h387q133 0 215.5 -71.5t82.5 -176.5q0 -93 -56 -162t-151 -86
q102 -11 164.5 -75t62.5 -162z" />
    <glyph glyph-name="C" unicode="C" horiz-adv-x="878" 
d="M740 219l114 -114q-120 -120 -314 -120q-216 0 -348 141.5t-132 373.5t132 373.5t348 141.5q194 0 314 -120l-114 -114q-76 77 -195 77q-126 0 -207 -96.5t-81 -261.5t81 -261.5t207 -96.5q119 0 195 77z" />
    <glyph glyph-name="D" unicode="D" horiz-adv-x="993" 
d="M735 500q0 164 -89.5 253t-232.5 89h-103v-685h103q143 0 232.5 89.5t89.5 253.5zM933 500q0 -239 -144.5 -369.5t-371.5 -130.5h-297v1000h297q230 0 373 -130t143 -370z" />
    <glyph glyph-name="E" unicode="E" horiz-adv-x="747" 
d="M672 157v-157h-552v1000h543v-158h-353v-260h342v-158h-342v-267h362z" />
    <glyph glyph-name="F" unicode="F" horiz-adv-x="712" 
d="M672 1000v-158h-362v-260h353v-158h-353v-424h-190v1000h552z" />
    <glyph glyph-name="G" unicode="G" horiz-adv-x="960" 
d="M887 552v-490q-58 -34 -147.5 -55.5t-186.5 -21.5q-224 0 -358.5 141t-134.5 374t134.5 374t358.5 141q99 0 185.5 -32t142.5 -88l-114 -114q-75 77 -207 77q-133 0 -218 -96.5t-85 -261.5q0 -167 84.5 -261t218.5 -94q80 0 137 27v222h-184v158h374z" />
    <glyph glyph-name="H" unicode="H" horiz-adv-x="990" 
d="M870 1000v-1000h-190v424h-370v-424h-190v1000h190v-418h370v418h190z" />
    <glyph glyph-name="I" unicode="I" horiz-adv-x="430" 
d="M310 1000v-1000h-190v1000h190z" />
    <glyph glyph-name="J" unicode="J" horiz-adv-x="705" 
d="M585 1000v-713q0 -139 -90.5 -223t-233.5 -84q-153 0 -261 126l114 113q60 -79 147 -79q62 0 98 39t36 108v713h190z" />
    <glyph glyph-name="K" unicode="K" horiz-adv-x="895" 
d="M500 510l410 -510h-240l-360 477v-477h-190v1000h190v-458l347 458h238z" />
    <glyph glyph-name="L" unicode="L" horiz-adv-x="672" 
d="M672 157v-157h-552v1000h190v-843h362z" />
    <glyph glyph-name="M" unicode="M" horiz-adv-x="1280" 
d="M1160 1000v-1000h-175v809l-240 -809h-210l-240 809v-809h-175v1000h280l240 -809l240 809h280z" />
    <glyph glyph-name="N" unicode="N" horiz-adv-x="1015" 
d="M895 1000v-1000h-238l-359 760v-760h-178v1000h238l359 -760v760h178z" />
    <glyph glyph-name="O" unicode="O" horiz-adv-x="1040" 
d="M783 500q0 164 -75.5 261t-187.5 97q-115 0 -189 -96.5t-74 -261.5t74 -261.5t189 -96.5q112 0 187.5 97t75.5 261zM980 500q0 -232 -127.5 -373.5t-332.5 -141.5t-332.5 141.5t-127.5 373.5t127.5 373.5t332.5 141.5t332.5 -141.5t127.5 -373.5z" />
    <glyph glyph-name="P" unicode="P" horiz-adv-x="837" 
d="M612 701q0 61 -41 101t-114 40h-147v-280h147q73 0 114 39t41 100zM807 702q0 -129 -92 -213.5t-240 -84.5h-165v-404h-190v1000h355q147 0 239.5 -86t92.5 -212z" />
    <glyph glyph-name="Q" unicode="Q" horiz-adv-x="1040" 
d="M783 500q0 164 -75.5 261t-187.5 97q-115 0 -189 -96.5t-74 -261.5t74 -261.5t189 -96.5q112 0 187.5 97t75.5 261zM872 166l165 -83l-127 -128l-174 87q-98 -57 -216 -57q-205 0 -332.5 141.5t-127.5 373.5t127.5 373.5t332.5 141.5t332.5 -141.5t127.5 -373.5
q0 -194 -108 -334z" />
    <glyph glyph-name="R" unicode="R" horiz-adv-x="885" 
d="M469 845h-160v-276h144q72 0 117 38.5t45 102.5q0 62 -36.5 98.5t-109.5 36.5zM775 338l71 -338h-202l-60 306q-11 57 -41.5 84t-87.5 27h-146v-417h-189v1000h368q154 0 237 -76t83 -192q0 -82 -48.5 -149.5t-127.5 -89.5q115 -20 143 -155z" />
    <glyph glyph-name="S" unicode="S" horiz-adv-x="772" 
d="M730 290q0 -138 -97.5 -224t-266.5 -86q-199 0 -326 125l114 114q82 -84 207 -84q76 0 123.5 43t47.5 105q0 41 -26 70t-67.5 46.5t-92 33.5t-101 38t-92 52t-67.5 83t-26 124q0 120 92.5 205t257.5 85q192 0 317 -125l-114 -114q-82 84 -190 84q-79 0 -122.5 -38
t-43.5 -87q0 -40 26 -69t68 -46.5t92.5 -33.5t100.5 -38.5t92 -53t68 -84t26 -125.5z" />
    <glyph glyph-name="T" unicode="T" horiz-adv-x="780" 
d="M775 1000v-155h-290v-845h-190v845h-290v155h770z" />
    <glyph glyph-name="U" unicode="U" horiz-adv-x="995" 
d="M875 1000v-673q0 -165 -104 -256t-274 -91q-169 0 -273 91t-104 256v673h190v-673q0 -90 52.5 -140t134.5 -50t135 50t53 140v673h190z" />
    <glyph glyph-name="V" unicode="V" horiz-adv-x="925" 
d="M720 1000h202l-360 -1000h-199l-361 1000h203l257 -771z" />
    <glyph glyph-name="W" unicode="W" horiz-adv-x="1284" 
d="M1088 1000h196l-252 -1000h-224l-166 771l-166 -771h-224l-252 1000h196l169 -775l166 775h221l167 -775z" />
    <glyph glyph-name="X" unicode="X" horiz-adv-x="929" 
d="M588 516l331 -516h-238l-216 373l-218 -373h-237l331 516l-311 484h238l197 -342l195 342h239z" />
    <glyph glyph-name="Y" unicode="Y" horiz-adv-x="831" 
d="M636 1000h237l-362 -567v-433h-191v433l-362 567h237l220 -378z" />
    <glyph glyph-name="Z" unicode="Z" horiz-adv-x="745" 
d="M700 157v-157h-655v148l420 694h-410v158h635v-148l-420 -695h430z" />
    <glyph glyph-name="bracketleft" unicode="[" horiz-adv-x="510" 
d="M445 85v-135h-325v1100h325v-135h-160v-830h160z" />
    <glyph glyph-name="backslash" unicode="\" horiz-adv-x="440" 
d="M140 1050l275 -1100h-115l-275 1100h115z" />
    <glyph glyph-name="bracketright" unicode="]" horiz-adv-x="510" 
d="M390 1050v-1100h-325v135h160v830h-160v135h325z" />
    <glyph glyph-name="asciicircum" unicode="^" horiz-adv-x="450" 
d="M302 1020l123 -230h-128l-72 130l-71 -130h-129l123 230h154z" />
    <glyph glyph-name="underscore" unicode="_" horiz-adv-x="545" 
d="M545 110v-110h-545v110h545z" />
    <glyph glyph-name="grave" unicode="`" horiz-adv-x="450" 
d="M277 1020l95 -230h-98l-197 230h200z" />
    <glyph glyph-name="a" unicode="a" horiz-adv-x="800" 
d="M515 295v23h-120q-74 0 -113 -32.5t-39 -75.5q0 -39 28.5 -66t81.5 -27q71 0 116.5 48.5t45.5 129.5zM690 473v-473h-170v110q-27 -59 -83 -92t-135 -33q-101 0 -169 62t-68 150q0 100 85 166.5t252 66.5h113q0 58 -5 62q-4 45 -46 76.5t-102 31.5q-90 0 -158 -61
l-102 102q119 99 278 99q143 0 226.5 -75.5t83.5 -191.5z" />
    <glyph glyph-name="b" unicode="b" horiz-adv-x="867" 
d="M630 360q0 106 -48.5 167t-123.5 61t-124 -61t-49 -167q0 -105 49.5 -166t123.5 -61t123 61t49 166zM812 360q0 -167 -93 -271t-224 -104q-66 0 -129.5 34.5t-85.5 84.5v-104h-170v1000h175v-377q26 49 87 80.5t123 31.5q131 0 224 -104t93 -271z" />
    <glyph glyph-name="c" unicode="c" horiz-adv-x="697" 
d="M555 186l107 -107q-108 -94 -244 -94q-154 0 -258.5 104.5t-104.5 270.5t104.5 270.5t258.5 104.5q136 0 244 -94l-107 -107q-54 54 -130 54q-80 0 -134 -64t-54 -164t54 -163.5t134 -63.5q77 0 130 53z" />
    <glyph glyph-name="d" unicode="d" horiz-adv-x="867" 
d="M582 360q0 105 -49 166.5t-123 61.5q-75 0 -124 -61t-49 -167q0 -105 49.5 -166t123.5 -61t123 61t49 166zM758 1000v-1000h-170v104q-23 -50 -86.5 -84.5t-129.5 -34.5q-130 0 -223.5 104t-93.5 271t93.5 271t223.5 104q63 0 124 -31.5t86 -80.5v377h176z" />
    <glyph glyph-name="e" unicode="e" horiz-adv-x="770" 
d="M244 437h302q-12 80 -51 121.5t-97 41.5q-59 0 -100 -43t-54 -120zM725 360v-48h-484q12 -87 65 -137t132 -50q90 0 144 56l102 -102q-107 -94 -256 -94q-163 0 -268 103.5t-105 271.5q0 167 95.5 271t244.5 104t239.5 -101t90.5 -274z" />
    <glyph glyph-name="f" unicode="f" horiz-adv-x="550" 
d="M513 995v-140q-40 15 -79 15q-97 0 -97 -85v-65h168v-140h-168v-580h-175v580h-137v140h137v90q0 84 61 142t162 58q66 0 128 -15z" />
    <glyph glyph-name="g" unicode="g" horiz-adv-x="867" 
d="M582 370q0 97 -49.5 157.5t-122.5 60.5t-123 -60.5t-50 -157.5q0 -99 49 -158t124 -59q73 0 122.5 59t49.5 158zM758 720v-655q0 -140 -104.5 -235t-273.5 -95q-179 0 -285 104l100 100q66 -64 177 -64q91 0 150.5 53t59.5 137v55q-26 -49 -84.5 -82t-125.5 -33
q-130 0 -223.5 102.5t-93.5 262.5t93.5 262.5t223.5 102.5q70 0 131 -35.5t85 -85.5v106h170z" />
    <glyph glyph-name="h" unicode="h" 
d="M770 450v-450h-175v425q0 81 -36.5 122t-103.5 41q-76 0 -123 -58t-47 -170v-360h-175v1000h175v-383q25 53 83 85.5t137 32.5q118 0 191.5 -77t73.5 -208z" />
    <glyph glyph-name="i" unicode="i" horiz-adv-x="395" 
d="M285 720v-720h-175v720h175zM287 1000v-170h-179v170h179z" />
    <glyph glyph-name="j" unicode="j" horiz-adv-x="410" 
d="M300 720v-780q0 -84 -61 -142t-162 -58q-72 0 -127 15v140q38 -15 78 -15q97 0 97 85v755h175zM302 1000v-170h-180v170h180z" />
    <glyph glyph-name="k" unicode="k" horiz-adv-x="785" 
d="M460 370l346 -370h-221l-300 335v-335h-175v1000h175v-598l285 318h215z" />
    <glyph glyph-name="l" unicode="l" horiz-adv-x="395" 
d="M285 1000v-1000h-175v1000h175z" />
    <glyph glyph-name="m" unicode="m" horiz-adv-x="1270" 
d="M1160 453v-453h-175v425q0 163 -120 163q-57 0 -100 -59.5t-43 -161.5v-367h-174v425q0 163 -121 163q-57 0 -99.5 -59.5t-42.5 -161.5v-367h-175v720h170v-113q54 128 197 128q84 0 138 -41.5t82 -104.5q68 146 218 146q111 0 178 -77t67 -205z" />
    <glyph glyph-name="n" unicode="n" 
d="M770 450v-450h-175v425q0 81 -36.5 122t-103.5 41q-76 0 -123 -58t-47 -170v-360h-175v720h170v-111q25 57 84.5 91.5t140.5 34.5q118 0 191.5 -77t73.5 -208z" />
    <glyph glyph-name="o" unicode="o" horiz-adv-x="810" 
d="M573 360q0 106 -46.5 167t-121.5 61q-73 0 -120.5 -61t-47.5 -167t47 -166.5t121 -60.5t121 60.5t47 166.5zM755 360q0 -170 -98.5 -272.5t-251.5 -102.5t-251.5 102.5t-98.5 272.5t98.5 272.5t251.5 102.5t251.5 -102.5t98.5 -272.5z" />
    <glyph glyph-name="p" unicode="p" horiz-adv-x="867" 
d="M630 360q0 106 -48.5 167t-123.5 61t-124 -61t-49 -167q0 -105 49.5 -166t123.5 -61t123 61t49 166zM812 360q0 -167 -93 -271t-224 -104q-62 0 -123 31t-87 79v-345h-175v970h170v-106q22 51 85.5 86t129.5 35q131 0 224 -104t93 -271z" />
    <glyph glyph-name="q" unicode="q" horiz-adv-x="867" 
d="M582 360q0 105 -49 166.5t-123 61.5q-75 0 -124 -61t-49 -167q0 -105 49.5 -166t123.5 -61t123 61t49 166zM758 720v-970h-176v345q-25 -48 -86.5 -79t-123.5 -31q-130 0 -223.5 104t-93.5 271t93.5 271t223.5 104q66 0 129.5 -35t86.5 -86v106h170z" />
    <glyph glyph-name="r" unicode="r" horiz-adv-x="550" 
d="M528 735v-160q-67 7 -112 -4q-63 -14 -97 -68.5t-34 -144.5v-358h-175v720h170v-110q59 125 248 125z" />
    <glyph glyph-name="s" unicode="s" horiz-adv-x="623" 
d="M578 201q0 -91 -74 -156t-214 -65q-75 0 -141.5 27.5t-111.5 71.5l103 102q24 -25 64.5 -43t85.5 -18q54 0 85 21.5t31 55.5q0 28 -19 48t-50 32.5t-68 24.5t-74 28.5t-68 39.5t-50 62.5t-19 92.5q0 85 73.5 150t196.5 65q145 0 246 -99l-102 -102q-61 61 -140 61
q-48 0 -75 -23t-27 -52q0 -31 36 -51.5t87 -37t102 -39.5t87 -72.5t36 -123.5z" />
    <glyph glyph-name="t" unicode="t" horiz-adv-x="550" 
d="M513 145v-140q-55 -15 -128 -15q-101 0 -162 58t-61 142v390h-137v140h137v205h175v-205h168v-140h-168v-365q0 -85 97 -85q39 0 79 15z" />
    <glyph glyph-name="u" unicode="u" 
d="M770 720v-720h-170v111q-25 -57 -84.5 -91.5t-140.5 -34.5q-118 0 -191.5 77t-73.5 208v450h175v-425q0 -81 36.5 -121.5t103.5 -40.5q77 0 123.5 57.5t46.5 169.5v360h175z" />
    <glyph glyph-name="v" unicode="v" horiz-adv-x="762" 
d="M569 720h193l-288 -720h-191l-283 720h192l185 -537z" />
    <glyph glyph-name="w" unicode="w" horiz-adv-x="1097" 
d="M903 720h184l-208 -720h-198l-133 522l-132 -522h-198l-208 720h184l128 -545l139 545h175l139 -545z" />
    <glyph glyph-name="x" unicode="x" horiz-adv-x="740" 
d="M473 371l247 -371h-205l-145 238l-145 -238h-205l247 371l-236 349h211l127 -214l129 214h211z" />
    <glyph glyph-name="y" unicode="y" horiz-adv-x="762" 
d="M569 720h193l-343 -856q-17 -47 -69 -85.5t-138 -38.5q-72 0 -127 15v140q38 -15 78 -15q69 0 87 40q5 2 18 32.5t16 42.5l-284 725h192l185 -537z" />
    <glyph glyph-name="z" unicode="z" horiz-adv-x="635" 
d="M585 143v-143h-535v128l315 452h-305v140h515v-130l-315 -447h325z" />
    <glyph glyph-name="braceleft" unicode="{" horiz-adv-x="535" 
d="M495 70v-130h-137q-67 0 -114 47t-47 113v215q0 46 -32 78t-77 32h-36v150h36q44 0 76.5 32.5t32.5 77.5v215q0 66 47 113t114 47h137v-130h-68q-27 0 -46 -19t-19 -46v-205q0 -61 -41 -106.5t-99 -53.5q58 -8 99 -53.5t41 -106.5v-205q0 -27 19 -46t46 -19h68z" />
    <glyph glyph-name="bar" unicode="|" horiz-adv-x="440" 
d="M278 1000v-1250h-116v1250h116z" />
    <glyph glyph-name="braceright" unicode="}" horiz-adv-x="535" 
d="M482 575v-150h-35q-45 0 -77 -32t-32 -78v-215q0 -66 -47 -113t-114 -47h-138v130h69q27 0 45.5 19t18.5 46v205q0 61 41 106.5t99 53.5q-58 8 -99 53.5t-41 106.5v205q0 27 -18.5 46t-45.5 19h-69v130h138q67 0 114 -47t47 -113v-215q0 -45 32.5 -77.5t76.5 -32.5h35z
" />
    <glyph glyph-name="asciitilde" unicode="~" horiz-adv-x="582" 
d="M470 517l80 -78l-58 -57q-46 -48 -116 -48q-68 0 -116 48l-17 18q-15 14 -37 14q-24 0 -39 -15l-55 -55l-80 78l58 57q46 48 116 48q68 0 116 -48l17 -18q17 -15 38 -15q22 0 38 16z" />
    <glyph glyph-name="nbspace" unicode="&#xa0;" horiz-adv-x="380" 
 />
    <glyph glyph-name="exclamdown" unicode="&#xa1;" horiz-adv-x="415" 
d="M273 720l42 -720h-215l42 720h131zM303 1000v-182h-191v182h191z" />
    <glyph glyph-name="cent" unicode="&#xa2;" horiz-adv-x="685" 
d="M345 293v414q-52 -23 -83.5 -78t-31.5 -129t31.5 -129.5t83.5 -77.5zM548 326l107 -107q-102 -88 -227 -94v-125h-83v130q-130 22 -213.5 122.5t-83.5 247.5t83.5 247t213.5 122v131h83v-126q125 -5 227 -93l-107 -107q-52 50 -120 53v-455q69 4 120 54z" />
    <glyph glyph-name="sterling" unicode="&#xa3;" horiz-adv-x="789" 
d="M742 158v-158h-692v158h100v267h-100v85h100v177q0 138 92.5 233t232.5 95q151 0 264 -115l-126 -126q-63 63 -138 63q-60 0 -101 -44.5t-41 -105.5l-1 -177h155v-85h-155v-267h410z" />
    <glyph glyph-name="yen" unicode="&#xa5;" horiz-adv-x="861" 
d="M651 1000h237l-310 -483h183v-85h-235v-70h235v-85h-235v-277h-191v277h-235v85h235v70h-235v85h183l-310 483h237l220 -378z" />
    <glyph glyph-name="brokenbar" unicode="&#xa6;" horiz-adv-x="440" 
d="M278 425v-475h-116v475h116zM278 1050v-475h-116v475h116z" />
    <glyph glyph-name="section" unicode="&#xa7;" horiz-adv-x="661" 
d="M429 472q0 11 -2.5 20t-8.5 17l-11 14.5t-17 13t-18.5 10.5t-23 10l-23.5 8.5l-26.5 9.5t-26.5 9q-40 -22 -40 -61q0 -11 2.5 -20t8.5 -17l11 -14.5t17 -13t18.5 -10.5t23 -10l23.5 -8.5l26.5 -9.5t26.5 -9q40 22 40 61zM601 476q0 -87 -67 -148q46 -53 46 -133
q0 -85 -73.5 -150t-196.5 -65q-147 0 -246 99l102 102q61 -61 140 -61q47 0 74 23t27 52q0 23 -19 40t-49.5 28.5t-68 23.5t-74.5 30t-67.5 42t-49.5 65t-19 95q0 88 66 148q-45 51 -45 133q0 86 73 150.5t197 64.5q146 0 245 -99l-102 -102q-61 61 -140 61q-47 0 -74 -23.5
t-27 -51.5q0 -31 36 -51.5t87 -37t102 -39.5t87 -72.5t36 -123.5z" />
    <glyph glyph-name="dieresis" unicode="&#xa8;" horiz-adv-x="415" 
d="M157 998v-166h-152v166h152zM410 998v-166h-153v166h153z" />
    <glyph glyph-name="copyright" unicode="&#xa9;" horiz-adv-x="1170" 
d="M717 325l69 -68q-74 -74 -193 -74q-132 0 -213 87.5t-81 229.5t81 229.5t213 87.5q119 0 193 -74l-69 -68q-47 47 -121 47q-78 0 -128.5 -59.5t-50.5 -162.5t50.5 -162.5t128.5 -59.5q74 0 121 47zM1002 500q0 173 -122 295t-295 122t-295 -122t-122 -295t122 -295
t295 -122t295 122t122 295zM1085 500q0 -136 -67 -251t-182 -182t-251 -67t-251 67t-182 182t-67 251t67 251t182 182t251 67t251 -67t182 -182t67 -251z" />
    <glyph glyph-name="ordfeminine" unicode="&#xaa;" horiz-adv-x="575" 
d="M368 705v15h-83q-51 0 -78.5 -22t-27.5 -52q0 -28 20 -46.5t57 -18.5q49 0 80.5 34t31.5 90zM490 828v-328h-118v76q-39 -86 -151 -86q-70 0 -117.5 43t-47.5 104q0 70 59 116t175 46h78q0 40 -3 42q-2 32 -31.5 54t-71.5 22q-63 0 -110 -42l-70 71q81 68 192 68
q100 0 158 -52.5t58 -133.5z" />
    <glyph glyph-name="guillemotleft" unicode="&#xab;" horiz-adv-x="708" 
d="M249 400l140 -280h-174l-140 280l140 280h174zM517 400l140 -280h-174l-140 280l140 280h174z" />
    <glyph glyph-name="registered" unicode="&#xae;" horiz-adv-x="1170" 
d="M592 713h-100v-169h89q44 0 72 24t28 63q0 37 -22 59.5t-67 22.5zM778 402l44 -210h-121l-37 191q-14 66 -80 66h-92v-257h-114v616h224q95 0 145.5 -46.5t50.5 -117.5q0 -50 -30 -92t-78 -56q71 -11 88 -94zM1002 500q0 173 -122 295t-295 122t-295 -122t-122 -295
t122 -295t295 -122t295 122t122 295zM1085 500q0 -136 -67 -251t-182 -182t-251 -67t-251 67t-182 182t-67 251t67 251t182 182t251 67t251 -67t182 -182t67 -251z" />
    <glyph glyph-name="macron" unicode="&#xaf;" horiz-adv-x="450" 
d="M387 987v-117h-325v117h325z" />
    <glyph glyph-name="degree" unicode="&#xb0;" horiz-adv-x="510" 
d="M350 810q0 39 -28 67t-67 28t-67 -28t-28 -67t28 -67t67 -28t67 28t28 67zM460 810q0 -85 -60 -145t-145 -60t-145 60t-60 145t60 145t145 60t145 -60t60 -145z" />
    <glyph glyph-name="plusminus" unicode="&#xb1;" horiz-adv-x="760" 
d="M705 208v-126h-650v126h650zM705 637v-125h-262v-262h-125v262h-263v125h263v263h125v-263h262z" />
    <glyph glyph-name="twosuperior" unicode="&#xb2;" horiz-adv-x="537" 
d="M486 438v-105h-441v85q167 152 231.5 235.5t64.5 160.5q0 39 -27.5 66.5t-73.5 27.5q-61 0 -117 -54l-76 75q80 82 199 82q99 0 159 -55t60 -140q0 -84 -61 -175t-184 -203h266z" />
    <glyph glyph-name="threesuperior" unicode="&#xb3;" horiz-adv-x="559" 
d="M495 520q0 -84 -69.5 -141.5t-175.5 -57.5q-127 0 -200 82l76 76q52 -54 121 -54q53 0 87 28.5t34 69.5q0 42 -34 71t-87 29h-62v105h62q54 0 83.5 25.5t29.5 64.5t-30 64.5t-80 25.5q-63 0 -116 -55l-76 76q80 82 192 82q100 0 165 -53.5t65 -137.5q0 -52 -31 -91.5
t-69 -52.5q46 -14 80.5 -59.5t34.5 -96.5z" />
    <glyph glyph-name="acute" unicode="&#xb4;" horiz-adv-x="450" 
d="M173 1020h199l-196 -230h-99z" />
    <glyph glyph-name="mu" unicode="&#xb5;" 
d="M770 720v-720h-170v111q-25 -57 -84.5 -91.5t-140.5 -34.5q-56 0 -90 29v-264h-175v970h175v-425q0 -81 36.5 -121.5t103.5 -40.5q77 0 123.5 57.5t46.5 169.5v360h175z" />
    <glyph glyph-name="paragraph" unicode="&#xb6;" horiz-adv-x="860" 
d="M755 1000v-1250h-173v1110h-95v-1110h-172v700q-113 0 -194 81t-81 194t81 194t194 81h440z" />
    <glyph glyph-name="periodcentered" unicode="&#xb7;" horiz-adv-x="390" 
d="M290 491v-183h-190v183h190z" />
    <glyph glyph-name="cedilla" unicode="&#xb8;" horiz-adv-x="470" 
d="M376 -141q0 -45 -46 -79.5t-121 -34.5q-74 0 -129 48l50 51q31 -29 72 -29q28 0 42.5 11.5t14.5 28.5q0 43 -98 43l50 102h94l-24 -48q39 -4 67 -29.5t28 -63.5z" />
    <glyph glyph-name="onesuperior" unicode="&#xb9;" horiz-adv-x="447" 
d="M306 1000v-667h-118v543q-18 -18 -59 -36t-84 -24v103q40 6 86 31t71 50h104z" />
    <glyph glyph-name="ordmasculine" unicode="&#xba;" horiz-adv-x="586" 
d="M409 750q0 74 -32 116t-84 42q-51 0 -83.5 -42t-32.5 -116t32.5 -116t83.5 -42t83.5 42t32.5 116zM293 1010q106 0 174.5 -71t68.5 -189t-68.5 -189t-174.5 -71t-174.5 71t-68.5 189t68.5 189t174.5 71z" />
    <glyph glyph-name="guillemotright" unicode="&#xbb;" horiz-adv-x="708" 
d="M225 680l140 -280l-140 -280h-174l140 280l-140 280h174zM493 680l140 -280l-140 -280h-174l140 280l-140 280h174z" />
    <glyph glyph-name="onequarter" unicode="&#xbc;" horiz-adv-x="1134" 
d="M696 255h179v257zM306 1000v-667h-118v543q-18 -18 -59 -36t-84 -24v103q40 6 86 31t71 50h104zM793 1050h123l-650 -1100h-123zM1088 255v-105h-96v-150h-117v150h-297v109l290 408h124v-412h96z" />
    <glyph glyph-name="onehalf" unicode="&#xbd;" horiz-adv-x="1198" 
d="M306 1000v-667h-118v543q-18 -18 -59 -36t-84 -24v103q40 6 86 31t71 50h104zM793 1050h123l-650 -1100h-123zM1152 105v-105h-441v85q167 152 231.5 235.5t64.5 160.5q0 39 -27.5 66.5t-73.5 27.5q-61 0 -117 -54l-76 75q80 82 199 82q99 0 159 -55t60 -140
q0 -84 -61 -175t-184 -203h266z" />
    <glyph glyph-name="threequarters" unicode="&#xbe;" horiz-adv-x="1256" 
d="M817 255h180v257zM495 520q0 -84 -69.5 -141.5t-175.5 -57.5q-127 0 -200 82l76 76q52 -54 121 -54q53 0 87 28.5t34 69.5q0 42 -34 71t-87 29h-62v105h62q54 0 83.5 25.5t29.5 64.5t-30 64.5t-80 25.5q-63 0 -116 -55l-76 76q80 82 192 82q100 0 165 -53.5t65 -137.5
q0 -52 -31 -91.5t-69 -52.5q46 -14 80.5 -59.5t34.5 -96.5zM914 1050h123l-650 -1100h-123zM1209 255v-105h-96v-150h-116v150h-297v109l290 408h123v-412h96z" />
    <glyph glyph-name="questiondown" unicode="&#xbf;" horiz-adv-x="712" 
d="M569 219l114 -114q-125 -123 -295 -123q-148 0 -240.5 83t-92.5 203q0 69 25.5 119t73.5 96q3 8 35 34.5t35 31.5q50 48 70.5 83t20.5 88h170q0 -133 -83 -218q-3 -7 -33.5 -33.5t-33.5 -32.5q-43 -43 -62.5 -77.5t-19.5 -85.5q0 -54 40 -95t102 -41q92 0 174 82z
M495 1000v-182h-190v182h190z" />
    <glyph glyph-name="Agrave" unicode="&#xc0;" horiz-adv-x="950" 
d="M336 387h278l-139 399zM578 1000l372 -1000h-202l-80 230h-385l-80 -230h-203l372 1000h206zM489 1288l96 -230h-98l-197 230h199z" />
    <glyph glyph-name="Aacute" unicode="&#xc1;" horiz-adv-x="950" 
d="M336 387h278l-139 399zM578 1000l372 -1000h-202l-80 230h-385l-80 -230h-203l372 1000h206zM458 1278h199l-197 -230h-98z" />
    <glyph glyph-name="Acircumflex" unicode="&#xc2;" horiz-adv-x="950" 
d="M336 387h278l-139 399zM578 1000l372 -1000h-202l-80 230h-385l-80 -230h-203l372 1000h206zM551 1278l123 -230h-128l-71 130l-72 -130h-128l123 230h153z" />
    <glyph glyph-name="Atilde" unicode="&#xc3;" horiz-adv-x="950" 
d="M336 387h278l-139 399zM578 1000l372 -1000h-202l-80 230h-385l-80 -230h-203l372 1000h206zM617 1211h112q0 -69 -48.5 -117.5t-117.5 -48.5q-68 0 -116 48l-18 17q-15 15 -37 15t-38 -16t-16 -38h-112q0 69 48.5 117.5t117.5 48.5q68 0 116 -48l18 -17q15 -15 37 -15
t38 16t16 38z" />
    <glyph glyph-name="Adieresis" unicode="&#xc4;" horiz-adv-x="950" 
d="M336 387h278l-139 399zM578 1000l372 -1000h-202l-80 230h-385l-80 -230h-203l372 1000h206zM425 1245v-165h-153v165h153zM677 1245v-165h-152v165h152z" />
    <glyph glyph-name="Aring" unicode="&#xc5;" horiz-adv-x="950" 
d="M336 387h278l-139 399zM545 1150q0 28 -20.5 49t-49.5 21t-49.5 -21t-20.5 -49t20.5 -49t49.5 -21t49.5 21t20.5 49zM578 1000l372 -1000h-202l-80 230h-385l-80 -230h-203l372 1000h206zM590 1150q0 -47 -34 -81t-81 -34t-81 34t-34 81t34 81t81 34t81 -34t34 -81z" />
    <glyph glyph-name="AE" unicode="&#xc6;" horiz-adv-x="1183" 
d="M336 387h219v385zM1108 158v-158h-553v230h-306l-129 -230h-220l595 1000h602v-158h-352v-260h343v-158h-343v-266h363z" />
    <glyph glyph-name="Ccedilla" unicode="&#xc7;" horiz-adv-x="878" 
d="M740 219l114 -114q-109 -109 -280 -119l-16 -34q38 -4 66 -29t28 -64q0 -45 -46 -79.5t-121 -34.5q-73 0 -128 48l49 51q31 -29 72 -29q28 0 43 11.5t15 28.5q0 43 -99 43l45 90q-192 20 -307 158t-115 354q0 232 132 373.5t348 141.5q194 0 314 -120l-114 -114
q-76 77 -195 77q-126 0 -207 -96.5t-81 -261.5t81 -261.5t207 -96.5q119 0 195 77z" />
    <glyph glyph-name="Egrave" unicode="&#xc8;" horiz-adv-x="748" 
d="M673 158v-158h-553v1000h543v-158h-353v-260h343v-158h-343v-266h363zM395 1278l95 -230h-98l-196 230h199z" />
    <glyph glyph-name="Eacute" unicode="&#xc9;" horiz-adv-x="748" 
d="M673 158v-158h-553v1000h543v-158h-353v-260h343v-158h-343v-266h363zM375 1278h200l-197 -230h-99z" />
    <glyph glyph-name="Ecircumflex" unicode="&#xca;" horiz-adv-x="748" 
d="M673 158v-158h-553v1000h543v-158h-353v-260h343v-158h-343v-266h363zM470 1278l123 -230h-128l-71 130l-72 -130h-128l123 230h153z" />
    <glyph glyph-name="Edieresis" unicode="&#xcb;" horiz-adv-x="748" 
d="M673 158v-158h-553v1000h543v-158h-353v-260h343v-158h-343v-266h363zM350 1245v-165h-153v165h153zM602 1245v-165h-152v165h152z" />
    <glyph glyph-name="Igrave" unicode="&#xcc;" horiz-adv-x="430" 
d="M310 1000v-1000h-190v1000h190zM227 1278l96 -230h-99l-196 230h199z" />
    <glyph glyph-name="Iacute" unicode="&#xcd;" horiz-adv-x="430" 
d="M310 1000v-1000h-190v1000h190zM203 1278h200l-197 -230h-98z" />
    <glyph glyph-name="Icircumflex" unicode="&#xce;" horiz-adv-x="430" 
d="M310 1000v-1000h-190v1000h190zM291 1278l123 -230h-128l-71 130l-72 -130h-128l123 230h153z" />
    <glyph glyph-name="Idieresis" unicode="&#xcf;" horiz-adv-x="430" 
d="M310 1000v-1000h-190v1000h190zM165 1245v-165h-152v165h152zM418 1245v-165h-153v165h153z" />
    <glyph glyph-name="Eth" unicode="&#xd0;" horiz-adv-x="993" 
d="M735 500q0 164 -89.5 253t-232.5 89h-103v-279h108v-126h-108v-279h103q143 0 232.5 89t89.5 253zM933 500q0 -121 -39.5 -217t-109.5 -157.5t-163 -93.5t-203 -32h-298v437h-107v126h107v437h298q150 0 264.5 -55t182.5 -169.5t68 -275.5z" />
    <glyph glyph-name="Ntilde" unicode="&#xd1;" horiz-adv-x="1015" 
d="M895 1000v-1000h-238l-359 760v-760h-178v1000h238l359 -760v760h178zM647 1211h112q0 -69 -48.5 -117.5t-117.5 -48.5q-68 0 -116 48l-18 17q-15 15 -37 15t-38 -16t-16 -38h-112q0 69 48.5 117.5t117.5 48.5q68 0 116 -48l18 -17q15 -15 37 -15t38 16t16 38z" />
    <glyph glyph-name="Ograve" unicode="&#xd2;" horiz-adv-x="1040" 
d="M783 500q0 164 -75.5 261t-187.5 97q-115 0 -189 -96.5t-74 -261.5t74 -261.5t189 -96.5q112 0 187.5 97t75.5 261zM980 500q0 -232 -127.5 -373.5t-332.5 -141.5t-332.5 141.5t-127.5 373.5t127.5 373.5t332.5 141.5t332.5 -141.5t127.5 -373.5zM501 1278l96 -230h-98
l-197 230h199z" />
    <glyph glyph-name="Oacute" unicode="&#xd3;" horiz-adv-x="1040" 
d="M783 500q0 164 -75.5 261t-187.5 97q-115 0 -189 -96.5t-74 -261.5t74 -261.5t189 -96.5q112 0 187.5 97t75.5 261zM980 500q0 -232 -127.5 -373.5t-332.5 -141.5t-332.5 141.5t-127.5 373.5t127.5 373.5t332.5 141.5t332.5 -141.5t127.5 -373.5zM538 1278h199l-196 -230
h-99z" />
    <glyph glyph-name="Ocircumflex" unicode="&#xd4;" horiz-adv-x="1040" 
d="M783 500q0 164 -75.5 261t-187.5 97q-115 0 -189 -96.5t-74 -261.5t74 -261.5t189 -96.5q112 0 187.5 97t75.5 261zM980 500q0 -232 -127.5 -373.5t-332.5 -141.5t-332.5 141.5t-127.5 373.5t127.5 373.5t332.5 141.5t332.5 -141.5t127.5 -373.5zM596 1278l123 -230h-128
l-71 130l-72 -130h-128l123 230h153z" />
    <glyph glyph-name="Otilde" unicode="&#xd5;" horiz-adv-x="1040" 
d="M783 500q0 164 -75.5 261t-187.5 97q-115 0 -189 -96.5t-74 -261.5t74 -261.5t189 -96.5q112 0 187.5 97t75.5 261zM980 500q0 -232 -127.5 -373.5t-332.5 -141.5t-332.5 141.5t-127.5 373.5t127.5 373.5t332.5 141.5t332.5 -141.5t127.5 -373.5zM659 1211h112
q0 -69 -48.5 -117.5t-117.5 -48.5q-68 0 -116 48l-18 17q-15 15 -37 15t-38 -16t-16 -38h-112q0 69 48.5 117.5t117.5 48.5q68 0 116 -48l18 -17q15 -15 37 -15t38 16t16 38z" />
    <glyph glyph-name="Odieresis" unicode="&#xd6;" horiz-adv-x="1040" 
d="M783 500q0 164 -75.5 261t-187.5 97q-115 0 -189 -96.5t-74 -261.5t74 -261.5t189 -96.5q112 0 187.5 97t75.5 261zM980 500q0 -232 -127.5 -373.5t-332.5 -141.5t-332.5 141.5t-127.5 373.5t127.5 373.5t332.5 141.5t332.5 -141.5t127.5 -373.5zM470 1245v-165h-153v165
h153zM723 1245v-165h-153v165h153z" />
    <glyph glyph-name="multiply" unicode="&#xd7;" horiz-adv-x="760" 
d="M468 490l209 -209l-88 -88l-209 209l-209 -209l-88 88l209 209l-209 209l88 88l209 -209l209 209l88 -88z" />
    <glyph glyph-name="Oslash" unicode="&#xd8;" horiz-adv-x="1040" 
d="M783 500q0 127 -49 220l-353 -531q61 -47 139 -47q112 0 187.5 97t75.5 261zM306 279l352 531q-62 48 -138 48q-115 0 -189 -96.5t-74 -261.5q0 -131 49 -221zM980 500q0 -232 -127.5 -373.5t-332.5 -141.5q-132 0 -234 61l-63 -96h-135l110 166q-138 143 -138 384
q0 232 127.5 373.5t332.5 141.5q132 0 234 -61l64 96h135l-111 -166q138 -143 138 -384z" />
    <glyph glyph-name="Ugrave" unicode="&#xd9;" horiz-adv-x="995" 
d="M875 1000v-672q0 -165 -104 -256.5t-273 -91.5q-170 0 -274 91.5t-104 256.5v672h190v-672q0 -90 53 -140t135 -50t134.5 50t52.5 140v672h190zM494 1278l96 -230h-98l-197 230h199z" />
    <glyph glyph-name="Uacute" unicode="&#xda;" horiz-adv-x="995" 
d="M875 1000v-672q0 -165 -104 -256.5t-273 -91.5q-170 0 -274 91.5t-104 256.5v672h190v-672q0 -90 53 -140t135 -50t134.5 50t52.5 140v672h190zM503 1278h199l-196 -230h-99z" />
    <glyph glyph-name="Ucircumflex" unicode="&#xdb;" horiz-adv-x="995" 
d="M875 1000v-672q0 -165 -104 -256.5t-273 -91.5q-170 0 -274 91.5t-104 256.5v672h190v-672q0 -90 53 -140t135 -50t134.5 50t52.5 140v672h190zM574 1278l123 -230h-128l-71 130l-72 -130h-128l123 230h153z" />
    <glyph glyph-name="Udieresis" unicode="&#xdc;" horiz-adv-x="995" 
d="M875 1000v-672q0 -165 -104 -256.5t-273 -91.5q-170 0 -274 91.5t-104 256.5v672h190v-672q0 -90 53 -140t135 -50t134.5 50t52.5 140v672h190zM447 1245v-165h-152v165h152zM700 1245v-165h-152v165h152z" />
    <glyph glyph-name="Yacute" unicode="&#xdd;" horiz-adv-x="831" 
d="M636 1000h238l-363 -567v-433h-190v433l-363 567h237l221 -378zM405 1278h199l-197 -230h-98z" />
    <glyph glyph-name="Thorn" unicode="&#xde;" horiz-adv-x="838" 
d="M612 499q0 61 -41 100t-113 39h-148v-276h148q72 0 113 38.5t41 98.5zM120 1000h190v-204h165q147 0 239.5 -85t92.5 -211q0 -128 -92 -212t-240 -84h-165v-204h-190v1000z" />
    <glyph glyph-name="germandbls" unicode="&#xdf;" horiz-adv-x="849" 
d="M779 297q0 -138 -93 -225t-254 -87q-46 0 -87 9v147q33 -11 73 -11q79 0 126 47.5t47 116.5t-46 116t-122 47h-78v141h78q63 0 101 39t38 97t-39 97t-98 39t-99.5 -41.5t-40.5 -99.5v-729h-175v726q0 126 84.5 207.5t232.5 81.5q143 0 230.5 -75.5t87.5 -190.5
q0 -78 -41 -134t-100 -85q79 -27 127 -90.5t48 -142.5z" />
    <glyph glyph-name="agrave" unicode="&#xe0;" horiz-adv-x="800" 
d="M515 295v23h-120q-74 0 -113 -32.5t-39 -75.5q0 -39 28.5 -66t81.5 -27q71 0 116.5 48.5t45.5 129.5zM690 473v-473h-170v110q-27 -59 -83 -92t-135 -33q-101 0 -169 62t-68 150q0 100 85 166.5t252 66.5h113q0 58 -5 62q-4 45 -46 76.5t-102 31.5q-90 0 -158 -61
l-102 102q119 99 278 99q143 0 226.5 -75.5t83.5 -191.5zM392 1020l96 -230h-98l-197 230h199z" />
    <glyph glyph-name="aacute" unicode="&#xe1;" horiz-adv-x="800" 
d="M515 295v23h-120q-74 0 -113 -32.5t-39 -75.5q0 -39 28.5 -66t81.5 -27q71 0 116.5 48.5t45.5 129.5zM690 473v-473h-170v110q-27 -59 -83 -92t-135 -33q-101 0 -169 62t-68 150q0 100 85 166.5t252 66.5h113q0 58 -5 62q-4 45 -46 76.5t-102 31.5q-90 0 -158 -61
l-102 102q119 99 278 99q143 0 226.5 -75.5t83.5 -191.5zM378 1020h199l-197 -230h-98z" />
    <glyph glyph-name="acircumflex" unicode="&#xe2;" horiz-adv-x="800" 
d="M515 295v23h-120q-74 0 -113 -32.5t-39 -75.5q0 -39 28.5 -66t81.5 -27q71 0 116.5 48.5t45.5 129.5zM690 473v-473h-170v110q-27 -59 -83 -92t-135 -33q-101 0 -169 62t-68 150q0 100 85 166.5t252 66.5h113q0 58 -5 62q-4 45 -46 76.5t-102 31.5q-90 0 -158 -61
l-102 102q119 99 278 99q143 0 226.5 -75.5t83.5 -191.5zM459 1020l123 -230h-128l-71 130l-72 -130h-128l123 230h153z" />
    <glyph glyph-name="atilde" unicode="&#xe3;" horiz-adv-x="800" 
d="M515 295v23h-120q-74 0 -113 -32.5t-39 -75.5q0 -39 28.5 -66t81.5 -27q71 0 116.5 48.5t45.5 129.5zM690 473v-473h-170v110q-27 -59 -83 -92t-135 -33q-101 0 -169 62t-68 150q0 100 85 166.5t252 66.5h113q0 58 -5 62q-4 45 -46 76.5t-102 31.5q-90 0 -158 -61
l-102 102q119 99 278 99q143 0 226.5 -75.5t83.5 -191.5zM525 988h112q0 -69 -49 -117.5t-117 -48.5q-69 0 -117 48l-17 17q-17 15 -37 15q-22 0 -38 -16t-16 -38h-112q0 69 48.5 117.5t117.5 48.5q68 0 116 -48l17 -17q16 -15 38 -15t38 16t16 38z" />
    <glyph glyph-name="adieresis" unicode="&#xe4;" horiz-adv-x="800" 
d="M515 295v23h-120q-74 0 -113 -32.5t-39 -75.5q0 -39 28.5 -66t81.5 -27q71 0 116.5 48.5t45.5 129.5zM690 473v-473h-170v110q-27 -59 -83 -92t-135 -33q-101 0 -169 62t-68 150q0 100 85 166.5t252 66.5h113q0 58 -5 62q-4 45 -46 76.5t-102 31.5q-90 0 -158 -61
l-102 102q119 99 278 99q143 0 226.5 -75.5t83.5 -191.5zM332 998v-166h-152v166h152zM585 998v-166h-152v166h152z" />
    <glyph glyph-name="aring" unicode="&#xe5;" horiz-adv-x="800" 
d="M515 295v23h-120q-74 0 -113 -32.5t-39 -75.5q0 -39 28.5 -66t81.5 -27q71 0 116.5 48.5t45.5 129.5zM447 910q0 29 -20.5 49.5t-48.5 20.5q-29 0 -49.5 -20.5t-20.5 -49.5t20.5 -49.5t49.5 -20.5q28 0 48.5 20.5t20.5 49.5zM690 473v-473h-170v110q-27 -59 -83 -92
t-135 -33q-101 0 -169 62t-68 150q0 100 85 166.5t252 66.5h113q0 58 -5 62q-4 45 -46 76.5t-102 31.5q-90 0 -158 -61l-102 102q119 99 278 99q143 0 226.5 -75.5t83.5 -191.5zM493 910q0 -48 -34 -81.5t-81 -33.5q-48 0 -81.5 33.5t-33.5 81.5t33.5 81.5t81.5 33.5
q47 0 81 -33.5t34 -81.5z" />
    <glyph glyph-name="ae" unicode="&#xe6;" horiz-adv-x="1223" 
d="M515 295v23h-120q-74 0 -113 -32.5t-39 -75.5q0 -39 28.5 -66t81.5 -27q71 0 116.5 48.5t45.5 129.5zM696 437h302q-13 80 -51.5 121.5t-96.5 41.5q-59 0 -100 -43t-54 -120zM1178 360v-48h-484q12 -87 65 -137t131 -50q89 0 145 56l102 -102q-109 -94 -257 -94
q-94 0 -169.5 42t-118.5 112q-33 -72 -105 -113t-172 -41q-111 0 -180.5 61.5t-69.5 151.5q0 100 85 166t252 66h113q0 58 -5 62q-4 45 -46 76.5t-102 31.5q-90 0 -158 -61l-102 102q117 99 278 99q79 0 142 -26.5t98 -73.5q89 95 227 95q149 0 240 -101t91 -274z" />
    <glyph glyph-name="ccedilla" unicode="&#xe7;" horiz-adv-x="697" 
d="M555 186l107 -107q-97 -85 -211 -92l-17 -35q38 -4 66 -29t28 -64q0 -45 -46 -79.5t-121 -34.5q-72 0 -129 48l51 51q29 -29 71 -29q28 0 43 11.5t15 28.5q0 43 -99 43l46 91q-133 21 -218.5 122t-85.5 249q0 166 104.5 270.5t258.5 104.5q136 0 244 -94l-107 -107
q-54 54 -130 54q-80 0 -134 -64t-54 -164t54 -163.5t134 -63.5q77 0 130 53z" />
    <glyph glyph-name="egrave" unicode="&#xe8;" horiz-adv-x="770" 
d="M244 437h302q-12 80 -51 121.5t-97 41.5q-59 0 -100 -43t-54 -120zM725 360v-48h-484q12 -87 65 -137t132 -50q90 0 144 56l102 -102q-107 -94 -256 -94q-163 0 -268 103.5t-105 271.5q0 167 95.5 271t244.5 104t239.5 -101t90.5 -274zM399 1020l96 -230h-98l-197 230
h199z" />
    <glyph glyph-name="eacute" unicode="&#xe9;" horiz-adv-x="770" 
d="M244 437h302q-12 80 -51 121.5t-97 41.5q-59 0 -100 -43t-54 -120zM725 360v-48h-484q12 -87 65 -137t132 -50q90 0 144 56l102 -102q-107 -94 -256 -94q-163 0 -268 103.5t-105 271.5q0 167 95.5 271t244.5 104t239.5 -101t90.5 -274zM393 1020h199l-196 -230h-99z" />
    <glyph glyph-name="ecircumflex" unicode="&#xea;" horiz-adv-x="770" 
d="M244 437h302q-12 80 -51 121.5t-97 41.5q-59 0 -100 -43t-54 -120zM725 360v-48h-484q12 -87 65 -137t132 -50q90 0 144 56l102 -102q-107 -94 -256 -94q-163 0 -268 103.5t-105 271.5q0 167 95.5 271t244.5 104t239.5 -101t90.5 -274zM469 1020l123 -230h-128l-72 130
l-71 -130h-128l123 230h153z" />
    <glyph glyph-name="edieresis" unicode="&#xeb;" horiz-adv-x="770" 
d="M244 437h302q-12 80 -51 121.5t-97 41.5q-59 0 -100 -43t-54 -120zM725 360v-48h-484q12 -87 65 -137t132 -50q90 0 144 56l102 -102q-107 -94 -256 -94q-163 0 -268 103.5t-105 271.5q0 167 95.5 271t244.5 104t239.5 -101t90.5 -274zM345 998v-166h-153v166h153z
M598 998v-166h-153v166h153z" />
    <glyph glyph-name="igrave" unicode="&#xec;" horiz-adv-x="395" 
d="M285 720v-720h-175v720h175zM194 1020l96 -230h-98l-197 230h199z" />
    <glyph glyph-name="iacute" unicode="&#xed;" horiz-adv-x="395" 
d="M285 720v-720h-175v720h175zM201 1020h199l-197 -230h-98z" />
    <glyph glyph-name="icircumflex" unicode="&#xee;" horiz-adv-x="395" 
d="M285 720v-720h-175v720h175zM274 1020l123 -230h-128l-71 130l-72 -130h-128l123 230h153z" />
    <glyph glyph-name="idieresis" unicode="&#xef;" horiz-adv-x="395" 
d="M285 720v-720h-175v720h175zM148 998v-166h-153v166h153zM400 998v-166h-152v166h152z" />
    <glyph glyph-name="eth" unicode="&#xf0;" 
d="M599 314q0 74 -48.5 127.5t-127.5 53.5q-80 0 -128.5 -53.5t-48.5 -127.5t48.5 -127.5t128.5 -53.5q79 0 127.5 53.5t48.5 127.5zM803 500q0 -236 -98 -375.5t-282 -139.5q-153 0 -255 93.5t-102 235.5q0 140 98 234.5t249 94.5q69 0 127.5 -33.5t80.5 -72.5
q-3 133 -47 209l-64 -64l-88 88l64 64q-43 26 -99 26q-106 0 -185 -79l-114 114q51 51 128 85.5t169 34.5q128 0 221 -61l62 63l89 -89l-59 -58q105 -139 105 -370z" />
    <glyph glyph-name="ntilde" unicode="&#xf1;" 
d="M770 450v-450h-175v425q0 81 -36.5 122t-103.5 41q-76 0 -123 -58t-47 -170v-360h-175v720h170v-111q25 57 84 91.5t141 34.5q119 0 192 -77t73 -208zM579 988h112q0 -69 -48.5 -117.5t-117.5 -48.5q-68 0 -116 48l-18 17q-15 15 -37 15t-38 -16t-16 -38h-112
q0 69 48.5 117.5t117.5 48.5q68 0 116 -48l18 -17q15 -15 37 -15t38 16t16 38z" />
    <glyph glyph-name="ograve" unicode="&#xf2;" horiz-adv-x="810" 
d="M573 360q0 106 -46.5 167t-121.5 61q-73 0 -120.5 -61t-47.5 -167t47 -166.5t121 -60.5t121 60.5t47 166.5zM755 360q0 -170 -98.5 -272.5t-251.5 -102.5t-251.5 102.5t-98.5 272.5t98.5 272.5t251.5 102.5t251.5 -102.5t98.5 -272.5zM407 1020l96 -230h-98l-197 230h199
z" />
    <glyph glyph-name="oacute" unicode="&#xf3;" horiz-adv-x="810" 
d="M573 360q0 106 -46.5 167t-121.5 61q-73 0 -120.5 -61t-47.5 -167t47 -166.5t121 -60.5t121 60.5t47 166.5zM755 360q0 -170 -98.5 -272.5t-251.5 -102.5t-251.5 102.5t-98.5 272.5t98.5 272.5t251.5 102.5t251.5 -102.5t98.5 -272.5zM402 1020h200l-197 -230h-98z" />
    <glyph glyph-name="ocircumflex" unicode="&#xf4;" horiz-adv-x="810" 
d="M573 360q0 106 -46.5 167t-121.5 61q-73 0 -120.5 -61t-47.5 -167t47 -166.5t121 -60.5t121 60.5t47 166.5zM755 360q0 -170 -98.5 -272.5t-251.5 -102.5t-251.5 102.5t-98.5 272.5t98.5 272.5t251.5 102.5t251.5 -102.5t98.5 -272.5zM481 1020l123 -230h-128l-71 130
l-72 -130h-128l123 230h153z" />
    <glyph glyph-name="otilde" unicode="&#xf5;" horiz-adv-x="810" 
d="M573 360q0 106 -46.5 167t-121.5 61q-73 0 -120.5 -61t-47.5 -167t47 -166.5t121 -60.5t121 60.5t47 166.5zM755 360q0 -170 -98.5 -272.5t-251.5 -102.5t-251.5 102.5t-98.5 272.5t98.5 272.5t251.5 102.5t251.5 -102.5t98.5 -272.5zM544 988h112q0 -69 -48.5 -117.5
t-117.5 -48.5q-68 0 -116 48l-17 17q-17 15 -37 15q-22 0 -38 -16t-16 -38h-112q0 69 48.5 117.5t117.5 48.5q68 0 116 -48l17 -17q17 -15 38 -15q22 0 37.5 16t15.5 38z" />
    <glyph glyph-name="odieresis" unicode="&#xf6;" horiz-adv-x="810" 
d="M573 360q0 106 -46.5 167t-121.5 61q-73 0 -120.5 -61t-47.5 -167t47 -166.5t121 -60.5t121 60.5t47 166.5zM755 360q0 -170 -98.5 -272.5t-251.5 -102.5t-251.5 102.5t-98.5 272.5t98.5 272.5t251.5 102.5t251.5 -102.5t98.5 -272.5zM355 998v-166h-152v166h152z
M608 998v-166h-153v166h153z" />
    <glyph glyph-name="oslash" unicode="&#xf8;" horiz-adv-x="810" 
d="M573 360q0 78 -27 135l-215 -343q32 -19 74 -19q74 0 121 60.5t47 166.5zM265 226l215 342q-34 20 -75 20q-73 0 -120.5 -61t-47.5 -167q0 -80 28 -134zM755 360q0 -170 -98.5 -272.5t-251.5 -102.5q-85 0 -158 34l-43 -69h-113l78 123q-114 104 -114 287
q0 170 98.5 272.5t251.5 102.5q85 0 158 -34l43 69h113l-78 -123q114 -104 114 -287z" />
    <glyph glyph-name="ugrave" unicode="&#xf9;" 
d="M770 720v-720h-170v111q-25 -57 -84 -91.5t-141 -34.5q-119 0 -192 77t-73 208v450h175v-425q0 -81 36.5 -121.5t103.5 -40.5q77 0 123.5 57.5t46.5 169.5v360h175zM432 1020l96 -230h-99l-196 230h199z" />
    <glyph glyph-name="uacute" unicode="&#xfa;" 
d="M770 720v-720h-170v111q-25 -57 -84 -91.5t-141 -34.5q-119 0 -192 77t-73 208v450h175v-425q0 -81 36.5 -121.5t103.5 -40.5q77 0 123.5 57.5t46.5 169.5v360h175zM435 1020h200l-197 -230h-99z" />
    <glyph glyph-name="ucircumflex" unicode="&#xfb;" 
d="M770 720v-720h-170v111q-25 -57 -84 -91.5t-141 -34.5q-119 0 -192 77t-73 208v450h175v-425q0 -81 36.5 -121.5t103.5 -40.5q77 0 123.5 57.5t46.5 169.5v360h175zM516 1020l123 -230h-128l-71 130l-72 -130h-128l123 230h153z" />
    <glyph glyph-name="udieresis" unicode="&#xfc;" 
d="M770 720v-720h-170v111q-25 -57 -84 -91.5t-141 -34.5q-119 0 -192 77t-73 208v450h175v-425q0 -81 36.5 -121.5t103.5 -40.5q77 0 123.5 57.5t46.5 169.5v360h175zM388 998v-166h-153v166h153zM640 998v-166h-153v166h153z" />
    <glyph glyph-name="yacute" unicode="&#xfd;" horiz-adv-x="762" 
d="M569 720h193l-342 -856q-19 -47 -70.5 -85.5t-136.5 -38.5q-66 0 -128 15v140q38 -15 78 -15q71 0 87 40q5 2 18 32.5t16 42.5l-284 725h193l184 -537zM365 1020h199l-197 -230h-98z" />
    <glyph glyph-name="thorn" unicode="&#xfe;" horiz-adv-x="868" 
d="M630 367q0 111 -48 173t-124 62q-75 0 -124 -62t-49 -173q0 -110 49.5 -172t123.5 -62t123 62t49 172zM813 367q0 -172 -93.5 -277t-224.5 -105q-62 0 -123 31t-87 79v-345h-175v1250h175v-363q26 50 87 81.5t123 31.5q131 0 224.5 -105.5t93.5 -277.5z" />
    <glyph glyph-name="ydieresis" unicode="&#xff;" horiz-adv-x="762" 
d="M569 720h193l-342 -856q-19 -47 -70.5 -85.5t-136.5 -38.5q-66 0 -128 15v140q38 -15 78 -15q71 0 87 40q5 2 18 32.5t16 42.5l-284 725h193l184 -537zM330 998v-166h-153v166h153zM582 998v-166h-152v166h152z" />
    <glyph glyph-name="dotlessi" unicode="&#x131;" horiz-adv-x="395" 
d="M285 720v-720h-175v720h175z" />
    <glyph glyph-name="Lslash" unicode="&#x141;" horiz-adv-x="673" 
d="M673 158v-158h-553v388l-61 -30l-52 103l113 57v482h190v-388l58 30l52 -104l-110 -55v-325h363z" />
    <glyph glyph-name="lslash" unicode="&#x142;" horiz-adv-x="395" 
d="M352 642l52 -104l-119 -59v-479h-175v392l-67 -34l-52 103l119 60v479h175v-392z" />
    <glyph glyph-name="OE" unicode="&#x152;" horiz-adv-x="1410" 
d="M783 500q0 164 -75.5 261t-187.5 97q-115 0 -189 -96.5t-74 -261.5t74 -261.5t189 -96.5q112 0 187.5 97t75.5 261zM1335 157v-157h-552v93q-103 -108 -263 -108q-205 0 -332.5 141.5t-127.5 373.5t127.5 373.5t332.5 141.5q162 0 263 -109v94h542v-158h-352v-260h342
v-158h-342v-267h362z" />
    <glyph glyph-name="oe" unicode="&#x153;" horiz-adv-x="1288" 
d="M573 360q0 106 -46.5 167t-121.5 61q-73 0 -120.5 -61t-47.5 -167t47 -166.5t121 -60.5t121 60.5t47 166.5zM761 437h302q-13 80 -51.5 121.5t-96.5 41.5q-59 0 -100 -43t-54 -120zM1243 360v-48h-484q12 -87 65 -137t131 -50q89 0 145 56l102 -102q-109 -94 -257 -94
q-178 0 -277 129q-93 -129 -263 -129q-153 0 -251.5 102.5t-98.5 272.5t98.5 272.5t251.5 102.5q81 0 148.5 -32t109.5 -91q41 58 106 90.5t144 32.5q149 0 239.5 -101t90.5 -274z" />
    <glyph glyph-name="Scaron" unicode="&#x160;" horiz-adv-x="772" 
d="M730 290q0 -138 -97.5 -224t-266.5 -86q-199 0 -326 125l114 114q82 -84 207 -84q76 0 123.5 43t47.5 105q0 41 -26 70t-67.5 46.5t-92 33.5t-101 38t-92 52t-67.5 83t-26 124q0 120 92.5 205t257.5 85q192 0 317 -125l-114 -114q-82 84 -190 84q-79 0 -122.5 -38
t-43.5 -87q0 -40 26 -69t68 -46.5t92.5 -33.5t100.5 -38.5t92 -53t68 -84t26 -125.5zM456 1278h128l-123 -230h-153l-123 230h128l72 -131z" />
    <glyph glyph-name="scaron" unicode="&#x161;" horiz-adv-x="623" 
d="M578 201q0 -91 -74 -156t-214 -65q-75 0 -141.5 27.5t-111.5 71.5l103 102q24 -25 64.5 -43t85.5 -18q55 0 85.5 21.5t30.5 55.5q0 28 -19 48t-50 32.5t-68 24.5t-74 28.5t-68 39.5t-50 62.5t-19 92.5q0 85 73.5 150t196.5 65q145 0 246 -99l-102 -102q-61 61 -140 61
q-47 0 -74.5 -23t-27.5 -52q0 -31 36 -51.5t87 -37t102 -39.5t87 -72.5t36 -123.5zM384 1020h128l-123 -230h-153l-123 230h128l71 -131z" />
    <glyph glyph-name="Ydieresis" unicode="&#x178;" horiz-adv-x="831" 
d="M636 1000h238l-363 -567v-433h-190v433l-363 567h237l221 -378zM365 1233v-165h-152v165h152zM618 1233v-165h-152v165h152z" />
    <glyph glyph-name="Zcaron" unicode="&#x17d;" horiz-adv-x="745" 
d="M700 158v-158h-655v148l420 694h-410v158h635v-148l-420 -694h430zM445 1278h128l-123 -230h-153l-123 230h127l72 -131z" />
    <glyph glyph-name="zcaron" unicode="&#x17e;" horiz-adv-x="635" 
d="M585 143v-143h-535v128l315 452h-305v140h515v-130l-315 -447h325zM389 1020h128l-123 -230h-153l-123 230h128l72 -131z" />
    <glyph glyph-name="florin" unicode="&#x192;" horiz-adv-x="745" 
d="M762 995l-30 -140q-35 15 -76 15q-97 0 -114 -85l-35 -168h150v-89h-169l-125 -588q-18 -84 -91 -142t-174 -58q-65 0 -125 15l30 140q37 -15 76 -15q95 0 114 85l120 563h-125v89h144l40 193q18 84 91 142t175 58q66 0 124 -15z" />
    <glyph glyph-name="circumflex" unicode="&#x2c6;" horiz-adv-x="450" 
d="M302 1020l123 -230h-128l-72 130l-71 -130h-129l123 230h154z" />
    <glyph glyph-name="caron" unicode="&#x2c7;" horiz-adv-x="450" 
d="M297 1020h128l-123 -230h-154l-123 230h129l71 -131z" />
    <glyph glyph-name="breve" unicode="&#x2d8;" horiz-adv-x="450" 
d="M307 1000h98q0 -74 -53 -127t-127 -53t-127 53t-53 127h97q0 -34 24.5 -58t58.5 -24t58 24t24 58z" />
    <glyph glyph-name="dotaccent" unicode="&#x2d9;" horiz-adv-x="440" 
d="M313 910q0 -38 -27.5 -65t-65.5 -27t-65.5 27t-27.5 65t27.5 65.5t65.5 27.5t65.5 -27.5t27.5 -65.5z" />
    <glyph glyph-name="ring" unicode="&#x2da;" horiz-adv-x="440" 
d="M290 910q0 28 -21 49t-49 21t-49 -21t-21 -49t21 -49t49 -21t49 21t21 49zM335 910q0 -47 -34 -81t-81 -34t-81 34t-34 81t34 81t81 34t81 -34t34 -81z" />
    <glyph glyph-name="ogonek" unicode="&#x2db;" horiz-adv-x="450" 
d="M317 -149l53 -53q-65 -53 -136 -53q-82 0 -127.5 35.5t-45.5 87.5q0 41 27 81.5t77 71.5l105 -21q-78 -55 -78 -125q0 -25 15 -39t42 -14q37 0 68 29z" />
    <glyph glyph-name="tilde" unicode="&#x2dc;" horiz-adv-x="571" 
d="M425 988h112q0 -69 -48.5 -117.5t-117.5 -48.5q-68 0 -116 48l-18 17q-15 15 -37 15t-38 -16t-16 -38h-112q0 69 48.5 117.5t117.5 48.5q68 0 116 -48l18 -17q15 -15 37 -15t38 16t16 38z" />
    <glyph glyph-name="hungarumlaut" unicode="&#x2dd;" horiz-adv-x="663" 
d="M173 1020h182l-179 -230h-99zM402 1020h184l-181 -230h-99z" />
    <glyph glyph-name="endash" unicode="&#x2013;" 
d="M820 437v-125h-760v125h760z" />
    <glyph glyph-name="emdash" unicode="&#x2014;" horiz-adv-x="1285" 
d="M1225 437v-125h-1165v125h1165z" />
    <glyph glyph-name="quoteleft" unicode="&#x2018;" horiz-adv-x="390" 
d="M188 1000h106l-42 -335h-192z" />
    <glyph glyph-name="quoteright" unicode="&#x2019;" horiz-adv-x="390" 
d="M137 1000h193l-128 -335h-107z" />
    <glyph glyph-name="quotesinglbase" unicode="&#x201a;" horiz-adv-x="385" 
d="M128 183h192l-128 -335h-107z" />
    <glyph glyph-name="quotedblleft" unicode="&#x201c;" horiz-adv-x="660" 
d="M188 1000h106l-42 -335h-192zM463 1000h106l-41 -335h-193z" />
    <glyph glyph-name="quotedblright" unicode="&#x201d;" horiz-adv-x="660" 
d="M132 1000h193l-128 -335h-107zM407 1000h193l-128 -335h-107z" />
    <glyph glyph-name="quotedblbase" unicode="&#x201e;" horiz-adv-x="660" 
d="M128 183h192l-128 -335h-107zM402 183h193l-128 -335h-107z" />
    <glyph glyph-name="dagger" unicode="&#x2020;" horiz-adv-x="595" 
d="M570 720v-128h-205v-842h-135v842h-205v128h205v280h135v-280h205z" />
    <glyph glyph-name="daggerdbl" unicode="&#x2021;" horiz-adv-x="595" 
d="M570 128v-128h-205v-250h-135v250h-205v128l205 -1v465h-205v128h205v280h135v-280h205v-128h-205v-465z" />
    <glyph glyph-name="bullet" unicode="&#x2022;" horiz-adv-x="425" 
d="M340 400q0 -53 -37.5 -90.5t-90.5 -37.5q-52 0 -89.5 37.5t-37.5 90.5t37.5 90.5t89.5 37.5q53 0 90.5 -37.5t37.5 -90.5z" />
    <glyph glyph-name="ellipsis" unicode="&#x2026;" horiz-adv-x="960" 
d="M290 183v-183h-190v183h190zM575 183v-183h-190v183h190zM860 183v-183h-190v183h190z" />
    <glyph glyph-name="perthousand" unicode="&#x2030;" horiz-adv-x="1623" 
d="M262 905q-47 0 -75 -48.5t-28 -131.5t28 -131.5t76 -48.5q47 0 75 48.5t28 131.5t-28 131.5t-76 48.5zM947 275q0 83 -27.5 131.5t-75.5 48.5t-75.5 -48.5t-27.5 -131.5t27.5 -131.5t75.5 -48.5t75.5 48.5t27.5 131.5zM1463 275q0 83 -27.5 131.5t-75.5 48.5t-75.5 -48.5
t-27.5 -131.5t27.5 -131.5t75.5 -48.5t75.5 48.5t27.5 131.5zM263 1010q102 0 164.5 -80t62.5 -205t-62.5 -205t-164.5 -80q-103 0 -165.5 80t-62.5 205t62.5 205t165.5 80zM818 1050h123l-644 -1100h-124zM1071 275q0 -125 -62.5 -205t-164.5 -80t-165 80t-63 205t63 205
t165 80t164.5 -80t62.5 -205zM1588 275q0 -125 -63 -205t-165 -80t-165 80t-63 205t63 205t165 80t165 -80t63 -205z" />
    <glyph glyph-name="guilsinglleft" unicode="&#x2039;" horiz-adv-x="440" 
d="M249 400l140 -280h-174l-140 280l140 280h174z" />
    <glyph glyph-name="guilsinglright" unicode="&#x203a;" horiz-adv-x="440" 
d="M225 680l140 -280l-140 -280h-174l140 280l-140 280h174z" />
    <glyph glyph-name="Euro" unicode="&#x20ac;" horiz-adv-x="898" 
d="M760 219l114 -114q-120 -120 -314 -120q-186 0 -311.5 106.5t-158.5 288.5h-100v85h91q-1 12 -1 35t1 35h-91v85h100q33 182 158.5 288.5t311.5 106.5q194 0 314 -120l-114 -114q-76 77 -195 77q-100 0 -173.5 -63t-100.5 -175h372v-85h-384q-1 -11 -1 -35t1 -35h384v-85
h-372q27 -112 100.5 -175t173.5 -63q119 0 195 77z" />
    <glyph glyph-name="trademark" unicode="&#x2122;" horiz-adv-x="603" 
d="M230 1000v-55h-66v-195h-68v195h-68v55h202zM540 1000v-250h-64v163l-49 -163h-58l-49 163v-163h-64v250h96l46 -153l46 153h96z" />
    <glyph glyph-name="partialdiff" unicode="&#x2202;" 
d="M599 314q0 74 -48.5 127.5t-127.5 53.5t-128 -53.5t-49 -127.5t48.5 -127.5t128.5 -53.5q79 0 127.5 53.5t48.5 127.5zM803 500q0 -236 -98 -375.5t-282 -139.5q-153 0 -255 93.5t-102 235.5q0 140 98 234.5t249 94.5q69 0 127.5 -33.5t80.5 -72.5q-3 152 -64.5 237.5
t-169.5 85.5q-106 0 -185 -79l-114 114q51 51 128 85.5t169 34.5q198 0 308 -139.5t110 -375.5z" />
    <glyph glyph-name="product" unicode="&#x220f;" horiz-adv-x="1170" 
d="M697 625q0 38 -25.5 63t-71.5 25h-93v-176h93q46 0 71.5 25t25.5 63zM814 625q0 -79 -56.5 -131t-147.5 -52h-103v-250h-113v616h216q90 0 147 -53t57 -130zM1002 500q0 173 -122 295t-295 122t-295 -122t-122 -295t122 -295t295 -122t295 122t122 295zM1085 500
q0 -136 -67 -251t-182 -182t-251 -67t-251 67t-182 182t-67 251t67 251t182 182t251 67t251 -67t182 -182t67 -251z" />
    <glyph glyph-name="minus" unicode="&#x2212;" horiz-adv-x="760" 
d="M705 553v-126h-650v126h650z" />
    <glyph glyph-name="notequal" unicode="&#x2260;" horiz-adv-x="760" 
d="M705 428v-126l-318 1l-44 -178h-113l45 178l-220 -1v126h251l31 124h-282v126l313 -1l50 198h112l-50 -198l225 1v-126h-256l-31 -124h287z" />
    <glyph glyph-name="apple" unicode="&#xf8ff;" horiz-adv-x="1610" 
d="M1298 -111q0 -39 -48.5 -70t-102.5 -31q-70 0 -124 8.5t-82.5 18t-85.5 32.5q-63 25 -135.5 110.5t-82.5 133.5l10 15q48 -64 120 -124.5t128 -63.5q8 -1 19.5 10.5t17.5 24.5q2 4 9 2.5t7 -7.5q1 -29 22 -48t50 -19q54 0 95.5 24t57.5 68q11 -10 24.5 -28.5t24 -29
t21.5 -10.5q38 0 38 70q17 -49 17 -86zM543 584q0 -67 -33.5 -108t-82.5 -41t-82.5 41t-33.5 108q0 66 33.5 107t82.5 41t82.5 -41t33.5 -107zM1303 117q-16 10 -40 33t-45 36.5t-44 13.5q-34 0 -91.5 -28.5t-106.5 -66.5q-5 -4 -9 9q-8 26 -2 44q1 2 2 3q92 65 182 106
q22 10 40 1q56 -26 114 -93q8 -9 9 -27t-9 -31zM923 486q-7 -30 -25.5 -48t-40.5 -18t-33.5 18.5t-4.5 47.5q6 29 25 48t41 19q23 0 34 -18.5t4 -48.5zM1148 511l-24 -112h-26l23 112q4 20 -4.5 31t-26.5 11q-20 0 -35 -12q1 3 1 12t1 12q19 12 42 12q29 0 42.5 -17.5
t6.5 -48.5zM1254 573h41l-5 -23h-40l-23 -107q-5 -23 21 -23q4 0 16 2l-5 -23q-10 -2 -23 -2q-21 0 -30.5 12t-6.5 29l24 112h-34l5 23h34l11 50h26zM1452 554l-20 -17q-13 17 -36 17q-16 0 -26 -7.5t-12 -17.5q-4 -18 19 -25l24 -8q39 -13 31 -51q-4 -22 -23.5 -36.5
t-50.5 -14.5q-36 0 -54 24l20 17q17 -17 39 -17q16 0 27.5 7.5t13.5 19.5q3 19 -20 27l-25 9q-37 13 -29 48q4 20 23 34.5t48 14.5q34 0 51 -24zM1345 692l-12 -27q-14 17 -22 22.5t-20 5.5q-44 0 -100 -38l25 62q10 9 38.5 17.5t42.5 8.5q19 0 48 -51zM610 546h145v38h-145
v167l133 196h-53l-101 -157l-103 157h-52l133 -196v-70q-20 42 -56.5 66t-83.5 24q-70 0 -115.5 -52.5t-45.5 -134.5t45.5 -134.5t115.5 -52.5q46 0 82.5 24t57.5 66v-266h43v165h142v38h-142v122zM150 -281h1311v1312h-746q149 -40 245.5 -164t96.5 -283v-19
q-14 -9 -20 -21l6 29h-27l-37 -174h27l18 87q7 36 31 55q-16 -177 -148 -298.5t-313 -121.5q-155 0 -277.5 92t-166.5 236v-730zM473 1031h-323v-312q34 114 120.5 197t202.5 115zM951 486q9 41 -9.5 66t-51.5 25t-61.5 -25t-37.5 -66q-9 -40 9 -65t51 -25q34 0 62.5 25
t37.5 65zM1480 1050v-1350h-1350v1350h1350z" />
    <glyph glyph-name="fi" unicode="&#xfb01;" horiz-adv-x="945" 
d="M513 995v-140q-40 15 -79 15q-97 0 -97 -85v-65h168v-140h-168v-580h-175v580h-137v140h137v90q0 84 61 142t162 58q66 0 128 -15zM835 720v-720h-175v720h175zM838 1000v-170h-181v170h181z" />
    <glyph glyph-name="fl" unicode="&#xfb02;" horiz-adv-x="945" 
d="M513 995v-140q-40 15 -79 15q-97 0 -97 -85v-65h168v-140h-168v-580h-175v580h-137v140h137v90q0 84 61 142t162 58q66 0 128 -15zM835 1000v-1000h-175v1000h175z" />
  </font>
</defs>
</svg>
