<?xml version="1.0" standalone="no"?>
<!DOCTYPE svg PUBLIC "-//W3C//DTD SVG 1.1//EN" "http://www.w3.org/Graphics/SVG/1.1/DTD/svg11.dtd" >
<svg>
<metadata>
Created by FontForge 20090622 at Mon Sep 21 18:50:16 2015
 By deploy user
YOFonts 2011
</metadata>
<defs>
<font id="EauDouce-SansLight" horiz-adv-x="511" >
  <font-face 
    font-family="Eau Douce"
    font-weight="300"
    font-stretch="normal"
    units-per-em="1000"
    panose-1="2 11 5 6 4 0 0 2 0 3"
    ascent="800"
    descent="-200"
    x-height="460"
    cap-height="667"
    bbox="-221 -217 1112 881"
    underline-thickness="20"
    underline-position="-96"
    unicode-range="U+0020-U+FB02"
  />
<missing-glyph horiz-adv-x="1000" 
 />
    <glyph glyph-name=".notdef" horiz-adv-x="1000" 
 />
    <glyph glyph-name=".null" horiz-adv-x="0" 
 />
    <glyph glyph-name="nonmarkingreturn" horiz-adv-x="333" 
 />
    <glyph glyph-name="space" unicode=" " horiz-adv-x="233" 
 />
    <glyph glyph-name="exclam" unicode="!" horiz-adv-x="268" 
d="M172 667l-19 -494h-38l-19 494h76zM175 0h-82v81h82v-81z" />
    <glyph glyph-name="quotedbl" unicode="&#x22;" horiz-adv-x="367" 
d="M298 667l-69 -194h-38l31 194h76zM174 667l-69 -194h-38l31 194h76z" />
    <glyph glyph-name="numbersign" unicode="#" horiz-adv-x="539" 
d="M497 491h-104l-45 -182h94v-39h-104l-34 -137h-39l33 137h-123l-33 -137h-40l34 137h-95v39h105l45 182h-94v39h104l34 137h39l-34 -137h123l34 137h40l-34 -137h94v-39zM354 491h-123l-46 -182h123z" />
    <glyph glyph-name="dollar" unicode="$" horiz-adv-x="479" 
d="M423 196q0 -64 -44.5 -110t-120.5 -52v-101h-34v101q-106 5 -175 70l36 36q59 -59 152 -59q57 0 93 32t36 81q0 46 -31 73t-75 40t-88 28.5t-75 51.5t-31 95q0 58 43 101t115 49v101h34v-100q94 -4 163 -70l-36 -36q-61 59 -138 59q-56 0 -89.5 -30t-33.5 -72
q0 -47 31 -74t75 -40.5t87.5 -28.5t74.5 -50.5t31 -94.5z" />
    <glyph glyph-name="percent" unicode="%" horiz-adv-x="816" 
d="M767 183q0 -91 -37.5 -140.5t-97.5 -49.5q-61 0 -98.5 49.5t-37.5 140.5t37.5 140.5t98.5 49.5t98 -49.5t37 -140.5zM665 667l-466 -667h-50l467 667h49zM320 483q0 -91 -37.5 -140.5t-98.5 -49.5q-60 0 -97.5 49.5t-37.5 140.5t37 140.5t98 49.5t98.5 -49.5t37.5 -140.5
zM724 183q0 75 -26 114.5t-66 39.5t-66 -39.5t-26 -114.5t26 -114.5t66 -39.5t66 39.5t26 114.5zM276 483q0 75 -26 114.5t-66 39.5t-66 -39.5t-26 -114.5t26 -114.5t66 -39.5t66 39.5t26 114.5z" />
    <glyph glyph-name="ampersand" unicode="&#x26;" horiz-adv-x="632" 
d="M630 0h-73l-77 77q-70 -91 -210 -91q-100 0 -157.5 53t-57.5 134q0 65 35 109t100 85q-90 94 -90 172q0 60 39.5 101t110.5 41q67 0 107 -38.5t40 -103.5q0 -56 -33 -95.5t-97 -82.5l201 -200q32 78 32 206h55q0 -155 -47 -246zM347 538q0 45 -26.5 72t-70.5 27
q-46 0 -71.5 -27.5t-25.5 -71.5q0 -35 18 -67t61 -77q38 25 59 41t38.5 43.5t17.5 59.5zM444 113l-220 221q-54 -36 -83 -72t-29 -86q0 -60 42.5 -102.5t115.5 -42.5q117 0 174 82z" />
    <glyph glyph-name="quotesingle" unicode="'" horiz-adv-x="243" 
d="M174 667l-69 -194h-38l31 194h76z" />
    <glyph glyph-name="parenleft" unicode="(" horiz-adv-x="321" 
d="M283 -55l-49 -20q-139 196 -139 408q0 213 139 408l49 -19q-131 -186 -131 -389q0 -110 32.5 -202.5t98.5 -185.5z" />
    <glyph glyph-name="parenright" unicode=")" horiz-adv-x="321" 
d="M226 333q0 -214 -139 -408l-49 20q66 94 99 186t33 202t-33 203t-99 186l49 19q139 -192 139 -408z" />
    <glyph glyph-name="asterisk" unicode="*" horiz-adv-x="467" 
d="M405 527l-141 -45l85 -121l-31 -22l-85 121l-85 -121l-31 22l86 121l-142 45l12 36l141 -44v148h38v-148l142 44z" />
    <glyph glyph-name="plus" unicode="+" horiz-adv-x="520" 
d="M457 304h-175v-174h-44v174h-175v45h175v174h44v-174h175v-45z" />
    <glyph glyph-name="comma" unicode="," horiz-adv-x="244" 
d="M171 81l-69 -198h-39l32 198h76z" />
    <glyph glyph-name="hyphen" unicode="-" horiz-adv-x="343" 
d="M285 228h-227v44h227v-44z" />
    <glyph glyph-name="period" unicode="." horiz-adv-x="244" 
d="M163 0h-82v81h82v-81z" />
    <glyph glyph-name="slash" unicode="/" horiz-adv-x="302" 
d="M272 733l-199 -800h-43l199 800h43z" />
    <glyph glyph-name="zero" unicode="0" horiz-adv-x="525" 
d="M467 333q0 -161 -55.5 -250.5t-148.5 -89.5t-149 89.5t-56 250.5t56 251t149 90t148.5 -90t55.5 -251zM411 333q0 135 -41 214.5t-107 79.5q-67 0 -107.5 -79t-40.5 -215t40.5 -215t107.5 -79q66 0 107 79.5t41 214.5z" />
    <glyph glyph-name="one" unicode="1" horiz-adv-x="525" 
d="M312 0h-54v597q-52 -52 -182 -69v47q123 17 201 92h35v-667z" />
    <glyph glyph-name="two" unicode="2" horiz-adv-x="525" 
d="M469 0h-432v35q188 166 263.5 264.5t75.5 193.5q0 59 -38.5 98t-98.5 39q-47 0 -79.5 -14.5t-63.5 -44.5l-37 38q71 68 180 68q88 0 140 -51t52 -131q0 -71 -37.5 -143t-98 -138t-171.5 -166h345v-48z" />
    <glyph glyph-name="three" unicode="3" horiz-adv-x="525" 
d="M449 174q0 -84 -60 -134.5t-157 -50.5q-124 0 -195 69l38 37q60 -58 154 -58q70 0 116.5 38.5t46.5 99.5t-46.5 99.5t-114.5 38.5h-87v48h76q74 0 117.5 37.5t43.5 97.5q0 57 -39 95.5t-100 38.5q-49 0 -81 -14t-62 -45l-38 38q71 68 182 68q87 0 139.5 -50t52.5 -128
q0 -57 -36 -101t-86 -58q65 -18 100.5 -63t35.5 -103z" />
    <glyph glyph-name="four" unicode="4" horiz-adv-x="525" 
d="M497 177h-107v-177h-52v177h-306v44l306 446h52v-442h107v-48zM338 225v362l-246 -362h246z" />
    <glyph glyph-name="five" unicode="5" horiz-adv-x="525" 
d="M461 195q0 -88 -60 -147t-156 -59q-104 0 -175 69l37 37q63 -58 136 -58t118 45.5t45 112.5q0 72 -44.5 115t-118.5 43q-62 0 -111 -47l-40 21v340h353v-49h-300v-257q19 16 50 27t58 11q95 0 151.5 -57t56.5 -147z" />
    <glyph glyph-name="six" unicode="6" horiz-adv-x="525" 
d="M471 194q0 -90 -55 -147.5t-144 -57.5q-217 0 -217 344q0 156 68.5 250t177.5 94q96 0 166 -68l-38 -38q-57 59 -129 59q-94 0 -148 -102.5t-41 -261.5q15 61 59.5 96t109.5 35q84 0 137.5 -56.5t53.5 -146.5zM416 194q0 69 -40 114t-104 45t-104 -45t-40 -114
q0 -70 39.5 -114.5t104.5 -44.5t104.5 44.5t39.5 114.5z" />
    <glyph glyph-name="seven" unicode="7" horiz-adv-x="525" 
d="M478 637q-220 -263 -278 -637h-59q60 356 263 618h-358v49h432v-30z" />
    <glyph glyph-name="eight" unicode="8" horiz-adv-x="525" 
d="M475 174q0 -84 -58.5 -134.5t-153.5 -50.5q-96 0 -154 50.5t-58 134.5q0 57 31 102t90 63q-44 18 -76.5 59t-32.5 99q0 77 53.5 128.5t146.5 51.5q92 0 145.5 -51.5t53.5 -128.5q0 -58 -32.5 -99t-76.5 -59q59 -18 90.5 -63t31.5 -102zM409 496q0 58 -40 98t-106 40
q-67 0 -107 -40t-40 -98t40 -97.5t107 -39.5q66 0 106 39.5t40 97.5zM419 175q0 60 -43 101t-113 41t-113.5 -41t-43.5 -101q0 -62 44 -101.5t113 -39.5t112.5 39.5t43.5 101.5z" />
    <glyph glyph-name="nine" unicode="9" horiz-adv-x="525" 
d="M471 333q0 -155 -68.5 -249.5t-177.5 -94.5q-97 0 -166 69l37 37q58 -58 129 -58q94 0 148 102.5t41 261.5q-15 -61 -59.5 -96.5t-108.5 -35.5q-84 0 -137.5 57t-53.5 147t54.5 147t143.5 57q218 0 218 -344zM397 473q0 69 -40 114t-104 45t-104 -45t-40 -114t40 -114
t104 -45t104 45t40 114z" />
    <glyph glyph-name="colon" unicode=":" horiz-adv-x="244" 
d="M163 379h-82v81h82v-81zM163 0h-82v81h82v-81z" />
    <glyph glyph-name="semicolon" unicode=";" horiz-adv-x="244" 
d="M163 379h-82v81h82v-81zM171 81l-69 -198h-39l32 198h76z" />
    <glyph glyph-name="less" unicode="&#x3c;" horiz-adv-x="261" 
d="M210 43h-54l-93 187l93 187h54l-93 -187z" />
    <glyph glyph-name="equal" unicode="=" horiz-adv-x="520" 
d="M457 400h-394v45h394v-45zM457 209h-394v45h394v-45z" />
    <glyph glyph-name="greater" unicode="&#x3e;" horiz-adv-x="261" 
d="M199 230l-94 -187h-54l94 187l-94 187h54z" />
    <glyph glyph-name="question" unicode="?" horiz-adv-x="443" 
d="M397 508q0 -46 -19.5 -82t-47.5 -61.5l-55.5 -50.5t-47 -60.5t-19.5 -80.5h-52q0 52 18.5 92t45 65.5t53 48.5t45 54.5t18.5 70.5q0 55 -38.5 90.5t-96.5 35.5q-76 0 -137 -59l-37 37q76 72 176 72q85 0 139.5 -49t54.5 -123zM223 0h-82v81h82v-81z" />
    <glyph glyph-name="at" unicode="@" horiz-adv-x="779" 
d="M731 395q0 -104 -51.5 -178.5t-108.5 -74.5q-37 0 -58.5 26.5t-16.5 66.5q-23 -43 -61.5 -69t-87.5 -26q-58 0 -94.5 40.5t-36.5 112.5q0 95 56 160.5t135 65.5q41 0 72.5 -23t38.5 -64l14 79h45l-42 -244q-16 -87 41 -87q37 0 77.5 63.5t40.5 149.5q0 115 -75.5 184.5
t-188.5 69.5q-100 0 -179.5 -49.5t-120.5 -128t-41 -169.5q0 -139 74 -210t184 -71q63 0 119.5 21.5t93.5 58.5l27 -27q-41 -41 -104 -65t-136 -24q-135 0 -217 82.5t-82 234.5q0 101 46.5 188t135 141t200.5 54q131 0 216 -80.5t85 -207.5zM502 365q0 55 -25 84.5t-68 29.5
q-61 0 -103 -51.5t-42 -133.5q0 -55 25 -84.5t68 -29.5q61 0 103 51.5t42 133.5z" />
    <glyph glyph-name="A" unicode="A" horiz-adv-x="557" 
d="M545 0h-59l-64 182h-287l-63 -182h-60l241 667h52zM406 229l-127 362l-128 -362h255z" />
    <glyph glyph-name="B" unicode="B" horiz-adv-x="555" 
d="M500 176q0 -74 -53 -125t-137 -51h-211v667h184q91 0 148 -47.5t57 -123.5q0 -56 -34 -99.5t-91 -58.5q61 -11 99 -55.5t38 -106.5zM431 490q0 57 -40 94t-102 37h-134v-262h134q62 0 102 37t40 94zM443 180q0 57 -40 95.5t-102 38.5h-146v-268h146q62 0 102 38.5
t40 95.5z" />
    <glyph glyph-name="C" unicode="C" horiz-adv-x="584" 
d="M498 95l37 -37q-72 -72 -189 -72q-136 0 -213.5 96.5t-77.5 250.5t77.5 251t213.5 97q117 0 189 -72l-37 -38q-59 59 -148 59q-110 0 -172 -82t-62 -215q0 -132 62.5 -214t171.5 -82q88 0 148 58z" />
    <glyph glyph-name="D" unicode="D" horiz-adv-x="640" 
d="M585 333q0 -152 -89 -242.5t-239 -90.5h-158v667h158q150 0 239 -90.5t89 -243.5zM524 333q0 130 -74 207.5t-194 77.5h-99v-570h99q120 0 194 77.5t74 207.5z" />
    <glyph glyph-name="E" unicode="E" horiz-adv-x="499" 
d="M434 0h-335v667h328v-49h-270v-257h263v-48h-263v-265h277v-48z" />
    <glyph glyph-name="F" unicode="F" horiz-adv-x="486" 
d="M434 618h-277v-257h270v-48h-270v-313h-58v667h335v-49z" />
    <glyph glyph-name="G" unicode="G" horiz-adv-x="616" 
d="M545 609l-38 -38q-57 59 -151 59q-111 0 -175.5 -83t-64.5 -214t65 -213.5t171 -82.5q82 0 133 46v220h-140v48h199v-293q-72 -72 -193 -72q-135 0 -215.5 97t-80.5 250t80.5 250.5t217.5 97.5q118 0 192 -72z" />
    <glyph glyph-name="H" unicode="H" horiz-adv-x="643" 
d="M545 667v-667h-58v313h-330v-313h-58v667h58v-306h330v306h58z" />
    <glyph glyph-name="I" unicode="I" horiz-adv-x="256" 
d="M157 0h-58v667h58v-667z" />
    <glyph glyph-name="J" unicode="J" horiz-adv-x="428" 
d="M329 149q0 -73 -40 -118t-115 -45q-86 0 -159 73l37 37q60 -60 120 -60q44 0 71.5 32t27.5 80v519h58v-518z" />
    <glyph glyph-name="K" unicode="K" horiz-adv-x="548" 
d="M540 0h-75l-308 327v-327h-58v667h58v-317l299 317h74l-316 -328z" />
    <glyph glyph-name="L" unicode="L" horiz-adv-x="444" 
d="M434 0h-335v667h58v-619h277v-48z" />
    <glyph glyph-name="M" unicode="M" horiz-adv-x="771" 
d="M673 667v-667h-54v606l-205 -606h-57l-204 606v-606h-54v667h89l198 -588l197 588h90z" />
    <glyph glyph-name="N" unicode="N" horiz-adv-x="663" 
d="M565 667v-667h-73l-338 586v-586h-55v667h72l338 -586v586h56z" />
    <glyph glyph-name="O" unicode="O" horiz-adv-x="667" 
d="M612 333q0 -154 -74.5 -250.5t-204.5 -96.5q-129 0 -203.5 96.5t-74.5 250.5t74.5 251t203.5 97q130 0 204.5 -97t74.5 -251zM551 333q0 134 -57.5 215.5t-160.5 81.5q-102 0 -159.5 -82t-57.5 -215t57.5 -215t159.5 -82q103 0 160.5 81.5t57.5 215.5z" />
    <glyph glyph-name="P" unicode="P" horiz-adv-x="542" 
d="M489 485q0 -78 -55 -130t-141 -52h-136v-303h-58v667h194q85 0 140.5 -52.5t55.5 -129.5zM431 485q0 57 -40 95t-102 38h-132v-267h132q62 0 102 38.5t40 95.5z" />
    <glyph glyph-name="Q" unicode="Q" horiz-adv-x="667" 
d="M638 17l-39 -40l-112 56q-66 -47 -154 -47q-129 0 -203.5 96.5t-74.5 250.5t74.5 251t203.5 97q130 0 204.5 -97t74.5 -251q0 -82 -22 -151.5t-63 -108.5zM551 333q0 134 -57.5 215.5t-160.5 81.5q-102 0 -159.5 -82t-57.5 -215t57.5 -215t159.5 -82q103 0 160.5 81.5
t57.5 215.5z" />
    <glyph glyph-name="R" unicode="R" horiz-adv-x="577" 
d="M519 0h-60l-48 211q-12 51 -42 75t-84 24h-128v-310h-58v667h185q94 0 150 -48.5t56 -126.5q0 -58 -35 -101.5t-94 -57.5q43 -6 69.5 -36.5t36.5 -73.5zM429 489q0 57 -39.5 93.5t-100.5 36.5h-132v-261h132q60 0 100 37t40 94z" />
    <glyph glyph-name="S" unicode="S" horiz-adv-x="499" 
d="M455 172q0 -82 -61 -134t-161 -52q-124 0 -199 72l37 37q28 -27 71.5 -43t89.5 -16q73 0 117.5 38t44.5 97q0 47 -25.5 78.5t-63.5 44.5l-83 29t-83 32.5t-63.5 54.5t-25.5 94q0 73 59.5 125t147.5 52q113 0 190 -72l-38 -38q-60 60 -149 60q-65 0 -107 -38t-42 -88
q0 -38 19 -64.5t49.5 -41t67 -26t73 -25t67 -33t49.5 -56t19 -87.5z" />
    <glyph glyph-name="T" unicode="T" horiz-adv-x="499" 
d="M486 667v-48h-207v-619h-58v619h-208v48h473z" />
    <glyph glyph-name="U" unicode="U" horiz-adv-x="661" 
d="M563 667v-448q0 -110 -63 -171.5t-169 -61.5t-169 61.5t-63 171.5v448h58v-448q0 -85 47.5 -133.5t126.5 -48.5t126.5 48.5t47.5 133.5v448h58z" />
    <glyph glyph-name="V" unicode="V" horiz-adv-x="557" 
d="M545 667l-240 -667h-52l-241 667h62l205 -587l204 587h62z" />
    <glyph glyph-name="W" unicode="W" horiz-adv-x="799" 
d="M783 667l-173 -667h-63l-148 581l-147 -581h-63l-173 667h60l145 -581l148 581h61l148 -581l145 581h60z" />
    <glyph glyph-name="X" unicode="X" horiz-adv-x="558" 
d="M543 0h-70l-194 299l-193 -299h-71l228 339l-220 328h69l187 -288l187 288h69l-220 -328z" />
    <glyph glyph-name="Y" unicode="Y" horiz-adv-x="539" 
d="M533 667l-234 -351v-316h-58v316l-235 351h70l194 -300l193 300h70z" />
    <glyph glyph-name="Z" unicode="Z" horiz-adv-x="516" 
d="M484 0h-452v38l365 580h-353v49h428v-38l-365 -581h377v-48z" />
    <glyph glyph-name="bracketleft" unicode="[" horiz-adv-x="336" 
d="M273 -67h-161v800h161v-43h-110v-713h110v-44z" />
    <glyph glyph-name="backslash" unicode="\" horiz-adv-x="302" 
d="M272 -67h-43l-199 800h43z" />
    <glyph glyph-name="bracketright" unicode="]" horiz-adv-x="336" 
d="M224 -67h-161v44h110v713h-110v43h161v-800z" />
    <glyph glyph-name="asciicircum" unicode="^" horiz-adv-x="232" 
d="M210 525h-44l-50 101l-51 -101h-43l72 142h43z" />
    <glyph glyph-name="underscore" unicode="_" horiz-adv-x="320" 
d="M320 0h-320v40h320v-40z" />
    <glyph glyph-name="grave" unicode="`" horiz-adv-x="232" 
d="M168 525h-35l-104 142h73z" />
    <glyph glyph-name="a" unicode="a" horiz-adv-x="501" 
d="M415 0h-52v90q-22 -43 -64.5 -72t-102.5 -29q-64 0 -103.5 37.5t-39.5 94.5q0 62 49 101.5t141 39.5h118v38q0 126 -122 126q-66 0 -121 -47l-34 34q75 58 160 58q82 0 126.5 -43.5t44.5 -124.5v-303zM361 205v13h-113q-72 0 -106 -26t-34 -67q0 -39 27.5 -64t72.5 -25
q65 0 109 49.5t44 119.5z" />
    <glyph glyph-name="b" unicode="b" horiz-adv-x="546" 
d="M498 230q0 -112 -55.5 -176.5t-143.5 -64.5q-112 0 -160 114v-103h-52v667h53v-308q49 112 160 112q87 0 142.5 -64.5t55.5 -176.5zM442 230q0 91 -42 143.5t-109 52.5t-109 -52.5t-42 -143.5t42 -143.5t109 -52.5t109 52.5t42 143.5z" />
    <glyph glyph-name="c" unicode="c" horiz-adv-x="458" 
d="M412 47q-58 -58 -144 -58q-98 0 -158.5 64.5t-60.5 176.5t60.5 176.5t158.5 64.5q86 0 144 -58l-33 -34q-49 47 -108 47q-75 0 -120.5 -53t-45.5 -143t45.5 -143t120.5 -53q59 0 108 47z" />
    <glyph glyph-name="d" unicode="d" horiz-adv-x="546" 
d="M460 0h-52v103q-50 -114 -161 -114q-87 0 -142.5 64.5t-55.5 176.5t55 176.5t143 64.5q58 0 98 -31.5t61 -80.5v308h54v-667zM406 230q0 91 -42 143.5t-109 52.5t-109 -52.5t-42 -143.5t42 -143.5t109 -52.5t109 52.5t42 143.5z" />
    <glyph glyph-name="e" unicode="e" horiz-adv-x="483" 
d="M432 234h-328q4 -200 167 -200q68 0 115 47l34 -34q-58 -58 -151 -58q-104 0 -162 64t-58 177q0 110 56.5 175.5t147.5 65.5q81 0 130 -51.5t49 -151.5v-34zM380 279v14q0 68 -34.5 102t-92.5 34q-60 0 -99.5 -42t-48.5 -108h275z" />
    <glyph glyph-name="f" unicode="f" horiz-adv-x="325" 
d="M281 415h-114v-415h-54v415h-96v45h96v107q0 54 28.5 82t80.5 28q35 0 59 -10v-45q-20 10 -50 10q-34 0 -49 -16t-15 -53v-103h114v-45z" />
    <glyph glyph-name="g" unicode="g" horiz-adv-x="546" 
d="M460 5q0 -97 -56.5 -159.5t-152.5 -62.5q-104 0 -165 57l34 34q50 -47 129 -47q72 0 114.5 48t42.5 130v96q-21 -49 -61 -80.5t-98 -31.5q-88 0 -143 64.5t-55 176.5t55.5 176.5t142.5 64.5q111 0 161 -114v103h52v-455zM406 230q0 91 -42 143.5t-109 52.5t-109 -52.5
t-42 -143.5t42 -143.5t109 -52.5t109 52.5t42 143.5z" />
    <glyph glyph-name="h" unicode="h" horiz-adv-x="540" 
d="M453 0h-53v291q0 67 -28.5 100t-76.5 33q-70 0 -112.5 -51.5t-42.5 -131.5v-241h-53v667h53v-310q21 50 63 82t102 32q68 0 108 -43.5t40 -126.5v-301z" />
    <glyph glyph-name="i" unicode="i" horiz-adv-x="228" 
d="M150 594h-73v73h73v-73zM141 0h-54v460h54v-460z" />
    <glyph glyph-name="j" unicode="j" horiz-adv-x="230" 
d="M152 594h-73v73h73v-73zM143 -107q0 -54 -28.5 -82t-80.5 -28q-33 0 -59 10v45q20 -10 50 -10q34 0 49 16t15 53v563h54v-567z" />
    <glyph glyph-name="k" unicode="k" horiz-adv-x="449" 
d="M436 0h-70l-226 223v-223h-53v667h53v-421l218 214h67l-233 -225z" />
    <glyph glyph-name="l" unicode="l" horiz-adv-x="228" 
d="M141 0h-54v667h54v-667z" />
    <glyph glyph-name="m" unicode="m" horiz-adv-x="789" 
d="M703 0h-54v291q0 133 -89 133q-62 0 -100.5 -53.5t-38.5 -126.5v-244h-53v291q0 133 -89 133q-62 0 -100.5 -53.5t-38.5 -126.5v-244h-53v460h52v-105q46 116 150 116q53 0 86.5 -31.5t40.5 -89.5q19 54 60 87.5t95 33.5q61 0 96.5 -43t35.5 -127v-301z" />
    <glyph glyph-name="n" unicode="n" horiz-adv-x="540" 
d="M453 0h-53v294q0 64 -29 98t-76 34q-68 0 -111.5 -51t-43.5 -128v-247h-53v460h52v-99q16 45 62 77.5t104 32.5q68 0 108 -43.5t40 -126.5v-301z" />
    <glyph glyph-name="o" unicode="o" 
d="M462 230q0 -112 -57 -176.5t-150 -64.5q-92 0 -149 64.5t-57 176.5t57 176.5t149 64.5q93 0 150 -64.5t57 -176.5zM406 230q0 91 -42 143.5t-109 52.5t-109 -52.5t-42 -143.5t42 -143.5t109 -52.5t109 52.5t42 143.5z" />
    <glyph glyph-name="p" unicode="p" horiz-adv-x="546" 
d="M498 230q0 -112 -55.5 -176.5t-142.5 -64.5q-111 0 -160 112v-308h-53v667h52v-103q48 114 160 114q88 0 143.5 -64.5t55.5 -176.5zM442 230q0 91 -42 143.5t-109 52.5t-109 -52.5t-42 -143.5t42 -143.5t109 -52.5t109 52.5t42 143.5z" />
    <glyph glyph-name="q" unicode="q" horiz-adv-x="546" 
d="M460 -207h-54v308q-21 -49 -61 -80.5t-98 -31.5q-88 0 -143 64.5t-55 176.5t55.5 176.5t142.5 64.5q111 0 161 -114v103h52v-667zM406 230q0 91 -42 143.5t-109 52.5t-109 -52.5t-42 -143.5t42 -143.5t109 -52.5t109 52.5t42 143.5z" />
    <glyph glyph-name="r" unicode="r" horiz-adv-x="392" 
d="M357 411q-26 13 -56 13q-73 0 -117 -52t-44 -133v-239h-53v460h52v-106q21 52 63.5 84.5t104.5 32.5q28 0 50 -11v-49z" />
    <glyph glyph-name="s" unicode="s" horiz-adv-x="429" 
d="M372 119q0 -54 -44 -92t-123 -38q-101 0 -162 58l34 34q48 -48 129 -48q52 0 81.5 24t29.5 60t-26 57.5t-63.5 33l-75 24t-63.5 41.5t-26 75q0 48 41.5 85.5t114.5 37.5q92 0 150 -58l-33 -34q-50 48 -116 48q-49 0 -75.5 -24.5t-26.5 -53.5q0 -35 26 -55.5t63.5 -31.5
t75 -23.5t63.5 -42t26 -77.5z" />
    <glyph glyph-name="t" unicode="t" horiz-adv-x="328" 
d="M281 415h-114v-311q0 -37 15 -53.5t49 -16.5q28 0 50 11v-45q-27 -11 -59 -11q-52 0 -80.5 28.5t-28.5 82.5v315h-96v45h96v140h54v-140h114v-45z" />
    <glyph glyph-name="u" unicode="u" horiz-adv-x="540" 
d="M453 0h-52v105q-21 -51 -63.5 -83.5t-102.5 -32.5q-68 0 -108 43.5t-40 126.5v301h53v-291q0 -67 28.5 -100t76.5 -33q70 0 112.5 51.5t42.5 131.5v241h53v-460z" />
    <glyph glyph-name="v" unicode="v" horiz-adv-x="425" 
d="M412 460l-174 -460h-51l-174 460h59l141 -393l140 393h59z" />
    <glyph glyph-name="w" unicode="w" horiz-adv-x="655" 
d="M641 460l-139 -460h-60l-114 389l-115 -389h-59l-139 460h54l116 -399l117 399h51l118 -399l116 399h54z" />
    <glyph glyph-name="x" unicode="x" horiz-adv-x="415" 
d="M399 0h-63l-129 200l-128 -200h-63l160 235l-153 225h61l123 -190l123 190h60l-152 -225z" />
    <glyph glyph-name="y" unicode="y" horiz-adv-x="425" 
d="M412 460l-230 -610q-25 -67 -100 -67q-35 0 -59 10v45q20 -10 50 -10q46 0 58 32l54 145l-172 455h58l142 -396l141 396h58z" />
    <glyph glyph-name="z" unicode="z" horiz-adv-x="438" 
d="M391 0h-346v32l265 383h-259v45h333v-33l-265 -382h272v-45z" />
    <glyph glyph-name="braceleft" unicode="{" horiz-adv-x="340" 
d="M304 -67q-26 -10 -59 -10q-49 0 -75 28t-26 81v172q0 47 -24.5 76.5t-59.5 29.5h-21v47h21q35 0 59.5 29.5t24.5 76.5v172q0 53 26 81t75 28q34 0 59 -11v-43q-23 10 -47 10q-32 0 -47 -16.5t-15 -52.5v-172q0 -51 -26 -85.5t-67 -40.5q41 -5 67 -39.5t26 -85.5v-172
q0 -36 15 -52.5t47 -16.5q27 0 47 10v-44z" />
    <glyph glyph-name="bar" unicode="|" horiz-adv-x="296" 
d="M169 -207h-42v874h42v-874z" />
    <glyph glyph-name="braceright" unicode="}" horiz-adv-x="340" 
d="M301 310h-21q-35 0 -59.5 -29.5t-24.5 -76.5v-172q0 -53 -26 -81t-75 -28q-33 0 -59 10v44q20 -10 47 -10q32 0 47 16.5t15 52.5v172q0 51 26 85.5t67 39.5q-41 6 -67 40.5t-26 85.5v172q0 36 -15 52.5t-47 16.5q-24 0 -47 -10v43q25 11 59 11q49 0 75 -28t26 -81v-172
q0 -47 24.5 -76.5t59.5 -29.5h21v-47z" />
    <glyph glyph-name="asciitilde" unicode="~" horiz-adv-x="440" 
d="M386 301q-38 -38 -57.5 -51t-47.5 -13q-35 0 -68.5 29.5t-52.5 29.5q-15 0 -30.5 -12t-45.5 -41l-29 29q37 37 56.5 50t48.5 13q34 0 68 -29t53 -29q15 0 31 12t45 41z" />
    <glyph glyph-name="nbspace" unicode="&#xa0;" horiz-adv-x="233" 
 />
    <glyph glyph-name="exclamdown" unicode="&#xa1;" horiz-adv-x="268" 
d="M175 585h-82v82h82v-82zM172 0h-76l19 493h38z" />
    <glyph glyph-name="cent" unicode="&#xa2;" horiz-adv-x="458" 
d="M412 150q-52 -52 -128 -57v-93h-34v93q-91 6 -146 70t-55 170t55 170t146 70v94h34v-94q75 -4 128 -57l-33 -33q-48 46 -108 46q-76 0 -121 -52.5t-45 -143.5q0 -90 45 -142.5t121 -52.5q60 0 108 46z" />
    <glyph glyph-name="sterling" unicode="&#xa3;" horiz-adv-x="514" 
d="M458 608l-37 -37q-61 59 -125 59q-59 0 -92.5 -36t-33.5 -94v-171h145v-34h-145v-247h286v-48h-407v48h64v247h-64v34h64v170q0 80 47 131t134 51q91 0 164 -73z" />
    <glyph glyph-name="yen" unicode="&#xa5;" horiz-adv-x="539" 
d="M533 667l-197 -295h116v-35h-139l-14 -21v-76h153v-34h-153v-206h-58v206h-154v34h154v76l-15 21h-139v35h117l-198 295h70l194 -300l193 300h70z" />
    <glyph glyph-name="brokenbar" unicode="&#xa6;" horiz-adv-x="296" 
d="M169 383h-42v350h42v-350zM169 -67h-42v350h42v-350z" />
    <glyph glyph-name="section" unicode="&#xa7;" horiz-adv-x="500" 
d="M437 240q0 -60 -40.5 -105.5t-110.5 -50.5q61 -16 97.5 -54.5t36.5 -95.5q0 -63 -48.5 -107t-128.5 -44q-105 0 -178 70l36 36q61 -59 138 -59q56 0 89.5 30t33.5 72q0 46 -31 74t-74.5 42.5l-87.5 30.5t-75 51t-31 90q0 60 40.5 105.5t110.5 50.5q-61 16 -97.5 54.5
t-36.5 95.5q0 63 48.5 107t128.5 44q106 0 178 -70l-36 -36q-61 59 -138 59q-56 0 -89.5 -30t-33.5 -72q0 -46 31 -74t75 -42.5t87.5 -30.5t74.5 -51t31 -90zM381 232q0 50 -32.5 79.5t-94.5 29.5q-62 1 -98.5 -32t-36.5 -79q0 -50 32.5 -79.5t94.5 -29.5q62 -1 98.5 32
t36.5 79z" />
    <glyph glyph-name="dieresis" unicode="&#xa8;" horiz-adv-x="230" 
d="M215 594h-73v73h73v-73zM88 594h-73v73h73v-73z" />
    <glyph glyph-name="copyright" unicode="&#xa9;" horiz-adv-x="780" 
d="M723 333q0 -138 -97.5 -235.5t-235.5 -97.5t-235.5 97.5t-97.5 235.5t97.5 236t235.5 98t235.5 -98t97.5 -236zM689 333q0 124 -87.5 212t-211.5 88t-211.5 -88t-87.5 -212t87.5 -211.5t211.5 -87.5t211.5 87.5t87.5 211.5zM512 179q-44 -44 -111 -44q-78 0 -124 55.5
t-46 142.5q0 88 46 143t124 55q68 0 111 -43l-24 -23q-33 33 -85 33q-61 0 -96.5 -45t-35.5 -120q0 -74 35.5 -119.5t96.5 -45.5q53 0 85 34z" />
    <glyph glyph-name="ordfeminine" unicode="&#xaa;" horiz-adv-x="373" 
d="M302 344h-42v59q-33 -66 -115 -66q-46 0 -74 26t-28 66q0 43 34 71.5t101 28.5h81v25q0 84 -80 84q-45 0 -81 -31l-27 27q52 40 112 40q57 0 88 -30.5t31 -87.5v-212zM259 488v8h-77q-48 0 -71.5 -18.5t-23.5 -45.5q0 -26 18 -42.5t49 -16.5q48 0 76.5 31.5t28.5 83.5z
" />
    <glyph glyph-name="guillemotleft" unicode="&#xab;" horiz-adv-x="375" 
d="M324 43h-54l-93 187l93 187h54l-93 -187zM210 43h-54l-93 187l93 187h54l-93 -187z" />
    <glyph glyph-name="registered" unicode="&#xae;" horiz-adv-x="780" 
d="M723 333q0 -138 -97.5 -235.5t-235.5 -97.5t-235.5 97.5t-97.5 235.5t97.5 236t235.5 98t235.5 -98t97.5 -236zM689 333q0 124 -87.5 212t-211.5 88t-211.5 -88t-87.5 -212t87.5 -211.5t211.5 -87.5t211.5 87.5t87.5 211.5zM516 143h-40l-27 120q-7 29 -23 41t-47 12h-69
v-173h-39v380h108q59 0 89.5 -27t30.5 -72q0 -33 -19.5 -58t-53.5 -34q48 -7 61 -61zM459 422q0 32 -21 50t-56 18h-72v-139h72q35 0 56 19t21 52z" />
    <glyph glyph-name="macron" unicode="&#xaf;" horiz-adv-x="300" 
d="M245 601h-190v40h190v-40z" />
    <glyph glyph-name="degree" unicode="&#xb0;" horiz-adv-x="301" 
d="M268 559q0 -48 -34.5 -82.5t-82.5 -34.5q-49 0 -83.5 34.5t-34.5 82.5q0 49 34.5 83.5t83.5 34.5q48 0 82.5 -34.5t34.5 -83.5zM231 559q0 34 -23.5 57t-56.5 23q-34 0 -57 -23t-23 -57q0 -33 23 -56.5t57 -23.5q33 0 56.5 23.5t23.5 56.5z" />
    <glyph glyph-name="plusminus" unicode="&#xb1;" horiz-adv-x="520" 
d="M457 402h-175v-174h-44v174h-175v45h175v174h44v-174h175v-45zM457 51h-394v45h394v-45z" />
    <glyph glyph-name="twosuperior" unicode="&#xb2;" horiz-adv-x="458" 
d="M375 218h-289v26q124 110 173 175t49 128q0 38 -25 62t-62 24q-54 0 -95 -38l-29 29q52 47 124 47q60 0 96 -33.5t36 -88.5q0 -48 -24 -94.5t-63 -89t-113 -109.5h222v-38z" />
    <glyph glyph-name="threesuperior" unicode="&#xb3;" horiz-adv-x="458" 
d="M361 332q0 -51 -40 -86t-109 -35q-79 0 -134 47l28 29q46 -38 104 -38q46 0 75.5 25t29.5 59q0 38 -29.5 64.5t-74.5 26.5h-59v38h52q45 0 74 24.5t29 62.5q0 35 -24.5 59.5t-64.5 24.5q-53 0 -95 -38l-29 29q52 47 125 47q60 0 96 -33t36 -87q0 -38 -24 -66.5t-57 -38.5
q45 -12 68 -43t23 -71z" />
    <glyph glyph-name="acute" unicode="&#xb4;" horiz-adv-x="232" 
d="M203 667l-104 -142h-35l66 142h73z" />
    <glyph glyph-name="mu" unicode="&#xb5;" horiz-adv-x="540" 
d="M453 0h-52v105q-21 -51 -63 -83.5t-101 -32.5q-77 0 -97 58v-254h-53v667h53v-291q0 -67 28.5 -100t76.5 -33q70 0 112.5 51.5t42.5 131.5v241h53v-460z" />
    <glyph glyph-name="mu" unicode="&#x3bc;" horiz-adv-x="540" 
d="M453 0h-52v105q-21 -51 -63 -83.5t-101 -32.5q-77 0 -97 58v-254h-53v667h53v-291q0 -67 28.5 -100t76.5 -33q70 0 112.5 51.5t42.5 131.5v241h53v-460z" />
    <glyph glyph-name="paragraph" unicode="&#xb6;" horiz-adv-x="497" 
d="M376 -207h-53v829h-56v-829h-53v507q-76 0 -129.5 54t-53.5 129q0 76 53.5 130t129.5 54h162v-874z" />
    <glyph glyph-name="periodcentered" unicode="&#xb7;" horiz-adv-x="244" 
d="M163 227h-82v81h82v-81z" />
    <glyph glyph-name="cedilla" unicode="&#xb8;" horiz-adv-x="313" 
d="M237 -105q0 -31 -23.5 -52.5t-65.5 -21.5q-48 0 -83 35l22 21q27 -27 60 -27q23 0 37 12.5t14 27.5q0 20 -18 34t-51 14l32 62h36l-21 -42q27 -4 44 -22.5t17 -40.5z" />
    <glyph glyph-name="onesuperior" unicode="&#xb9;" horiz-adv-x="458" 
d="M270 218h-44v397q-34 -34 -121 -46v39q85 10 135 60h30v-450z" />
    <glyph glyph-name="ordmasculine" unicode="&#xba;" horiz-adv-x="391" 
d="M343 505q0 -77 -41 -122.5t-106 -45.5q-66 0 -107 45.5t-41 122.5q0 78 41 123.5t107 45.5q65 0 106 -45.5t41 -123.5zM299 505q0 64 -28 98.5t-75 34.5q-48 0 -76 -34.5t-28 -98.5q0 -63 28 -97.5t76 -34.5q47 0 75 34.5t28 97.5z" />
    <glyph glyph-name="guillemotright" unicode="&#xbb;" horiz-adv-x="375" 
d="M313 230l-94 -187h-54l94 187l-94 187h54zM199 230l-94 -187h-54l94 187l-94 187h54z" />
    <glyph glyph-name="onequarter" unicode="&#xbc;" horiz-adv-x="953" 
d="M871 115h-71v-115h-42v115h-204v34l203 296h43v-292h71v-38zM741 667l-467 -667h-50l467 667h50zM270 218h-44v397q-34 -34 -121 -46v39q85 10 135 60h30v-450zM758 153v231l-156 -231h156z" />
    <glyph glyph-name="onehalf" unicode="&#xbd;" horiz-adv-x="953" 
d="M879 0h-289v27q124 109 173 174t49 128q0 38 -24.5 62t-62.5 24q-53 0 -95 -37l-29 28q52 47 124 47q60 0 96 -33.5t36 -88.5q0 -48 -24 -94.5t-63 -89t-113 -109.5h222v-38zM734 667l-466 -667h-50l467 667h49zM270 218h-44v397q-34 -34 -121 -46v39q85 10 135 60h30
v-450z" />
    <glyph glyph-name="threequarters" unicode="&#xbe;" horiz-adv-x="953" 
d="M871 115h-71v-115h-42v115h-204v34l203 296h43v-292h71v-38zM741 667l-467 -667h-50l467 667h50zM361 332q0 -51 -40 -86t-109 -35q-79 0 -134 47l28 29q46 -38 104 -38q46 0 75.5 25t29.5 59q0 38 -29.5 64.5t-74.5 26.5h-59v38h52q45 0 74 24.5t29 62.5
q0 35 -24.5 59.5t-64.5 24.5q-53 0 -95 -38l-29 29q52 47 125 47q60 0 96 -33t36 -87q0 -38 -24 -66.5t-57 -38.5q45 -12 68 -43t23 -71zM758 153v231l-156 -231h156z" />
    <glyph glyph-name="questiondown" unicode="&#xbf;" horiz-adv-x="443" 
d="M301 585h-81v82h81v-82zM416 59q-74 -72 -177 -72q-85 0 -139.5 49t-54.5 123q0 46 19.5 82t47.5 61.5l56 50t47.5 60t19.5 80.5h52q0 -44 -13.5 -79.5t-33.5 -57.5t-43.5 -44.5l-43.5 -41t-33.5 -46.5t-13.5 -61q0 -56 39 -91.5t97 -35.5q75 0 137 60z" />
    <glyph glyph-name="Agrave" unicode="&#xc0;" horiz-adv-x="557" 
d="M545 0h-59l-64 182h-287l-63 -182h-60l241 667h52zM406 229l-127 362l-128 -362h255zM320 725h-35l-104 142h73z" />
    <glyph glyph-name="Aacute" unicode="&#xc1;" horiz-adv-x="557" 
d="M545 0h-59l-64 182h-287l-63 -182h-60l241 667h52zM406 229l-127 362l-128 -362h255zM376 867l-104 -142h-35l66 142h73z" />
    <glyph glyph-name="Acircumflex" unicode="&#xc2;" horiz-adv-x="557" 
d="M545 0h-59l-64 182h-287l-63 -182h-60l241 667h52zM406 229l-127 362l-128 -362h255zM372 725h-44l-50 101l-51 -101h-43l72 142h43z" />
    <glyph glyph-name="Atilde" unicode="&#xc3;" horiz-adv-x="557" 
d="M545 0h-59l-64 182h-287l-63 -182h-60l241 667h52zM406 229l-127 362l-128 -362h255zM434 847q0 -36 -27.5 -60.5t-64.5 -24.5q-28 0 -49 14.5t-37.5 29t-34.5 14.5q-20 0 -35.5 -13t-15.5 -32h-42q0 36 28 60.5t65 24.5q35 0 68 -29.5t53 -29.5q19 0 34.5 13.5
t15.5 32.5h42z" />
    <glyph glyph-name="Adieresis" unicode="&#xc4;" horiz-adv-x="557" 
d="M545 0h-59l-64 182h-287l-63 -182h-60l241 667h52zM406 229l-127 362l-128 -362h255zM378 794h-73v73h73v-73zM251 794h-73v73h73v-73z" />
    <glyph glyph-name="Aring" unicode="&#xc5;" horiz-adv-x="557" 
d="M545 0h-59l-64 182h-287l-63 -182h-60l241 667h52zM406 229l-127 362l-128 -362h255zM355 805q0 -31 -22.5 -53.5t-53.5 -22.5t-53.5 22.5t-22.5 53.5t22.5 53.5t53.5 22.5t53.5 -22.5t22.5 -53.5zM329 805q0 21 -14.5 35.5t-35.5 14.5t-36 -14.5t-15 -35.5t15 -36
t36 -15t35.5 15t14.5 36z" />
    <glyph glyph-name="AE" unicode="&#xc6;" horiz-adv-x="771" 
d="M706 0h-333v181h-236l-102 -181h-68l388 667h344v-49h-270v-257h264v-48h-264v-265h277v-48zM373 229v368l-209 -368h209z" />
    <glyph glyph-name="Ccedilla" unicode="&#xc7;" horiz-adv-x="584" 
d="M498 95l37 -37q-71 -71 -184 -72l-14 -28q27 -4 44 -22.5t17 -40.5q0 -32 -23.5 -53t-65.5 -21q-47 0 -82 35l21 21q27 -27 60 -27q24 0 37.5 12.5t13.5 27.5q0 20 -17.5 33.5t-50.5 13.5l24 50q-122 12 -191 107t-69 239q0 154 77.5 251t213.5 97q117 0 189 -72l-37 -38
q-59 59 -148 59q-110 0 -172 -81.5t-62 -215.5q0 -133 62 -214.5t172 -81.5q88 0 148 58z" />
    <glyph glyph-name="Egrave" unicode="&#xc8;" horiz-adv-x="499" 
d="M434 0h-335v667h328v-49h-270v-257h263v-48h-263v-265h277v-48zM293 725h-35l-104 142h73z" />
    <glyph glyph-name="Eacute" unicode="&#xc9;" horiz-adv-x="499" 
d="M434 0h-335v667h328v-49h-270v-257h263v-48h-263v-265h277v-48zM368 867l-104 -142h-35l66 142h73z" />
    <glyph glyph-name="Ecircumflex" unicode="&#xca;" horiz-adv-x="499" 
d="M434 0h-335v667h328v-49h-270v-257h263v-48h-263v-265h277v-48zM355 725h-44l-50 101l-51 -101h-43l72 142h43z" />
    <glyph glyph-name="Edieresis" unicode="&#xcb;" horiz-adv-x="499" 
d="M434 0h-335v667h328v-49h-270v-257h263v-48h-263v-265h277v-48zM368 794h-73v73h73v-73zM241 794h-73v73h73v-73z" />
    <glyph glyph-name="Igrave" unicode="&#xcc;" horiz-adv-x="256" 
d="M157 0h-58v667h58v-667zM177 725h-35l-104 142h73z" />
    <glyph glyph-name="Iacute" unicode="&#xcd;" horiz-adv-x="256" 
d="M157 0h-58v667h58v-667zM217 867l-104 -142h-35l66 142h73z" />
    <glyph glyph-name="Icircumflex" unicode="&#xce;" horiz-adv-x="256" 
d="M157 0h-58v667h58v-667zM222 725h-44l-50 101l-51 -101h-43l72 142h43z" />
    <glyph glyph-name="Idieresis" unicode="&#xcf;" horiz-adv-x="256" 
d="M157 0h-58v667h58v-667zM227 794h-73v73h73v-73zM100 794h-73v73h73v-73z" />
    <glyph glyph-name="Eth" unicode="&#xd0;" horiz-adv-x="644" 
d="M589 333q0 -152 -89 -242.5t-239 -90.5h-158v312h-87v42h87v313h158q150 0 239 -90.5t89 -243.5zM528 333q0 130 -74 207.5t-194 77.5h-99v-264h86v-42h-86v-264h99q120 0 194 77.5t74 207.5z" />
    <glyph glyph-name="Ntilde" unicode="&#xd1;" horiz-adv-x="663" 
d="M565 667v-667h-73l-338 586v-586h-55v667h72l338 -586v586h56zM440 847h43q0 -36 -28.5 -61t-64.5 -25t-68.5 29.5t-52.5 29.5q-19 0 -34.5 -13t-15.5 -32h-42q0 36 27.5 60.5t64.5 24.5q36 0 68.5 -29.5t52.5 -29.5q19 0 34.5 13.5t15.5 32.5z" />
    <glyph glyph-name="Ograve" unicode="&#xd2;" horiz-adv-x="667" 
d="M612 333q0 -154 -74.5 -250.5t-204.5 -96.5q-129 0 -203.5 96.5t-74.5 250.5t74.5 251t203.5 97q130 0 204.5 -97t74.5 -251zM551 333q0 134 -57.5 215.5t-160.5 81.5q-102 0 -159.5 -82t-57.5 -215t57.5 -215t159.5 -82q103 0 160.5 81.5t57.5 215.5zM364 725h-35
l-104 142h73z" />
    <glyph glyph-name="Oacute" unicode="&#xd3;" horiz-adv-x="667" 
d="M612 333q0 -154 -74.5 -250.5t-204.5 -96.5q-129 0 -203.5 96.5t-74.5 250.5t74.5 251t203.5 97q130 0 204.5 -97t74.5 -251zM551 333q0 134 -57.5 215.5t-160.5 81.5q-102 0 -159.5 -82t-57.5 -215t57.5 -215t159.5 -82q103 0 160.5 81.5t57.5 215.5zM442 867l-104 -142
h-35l66 142h73z" />
    <glyph glyph-name="Ocircumflex" unicode="&#xd4;" horiz-adv-x="667" 
d="M612 333q0 -154 -74.5 -250.5t-204.5 -96.5q-129 0 -203.5 96.5t-74.5 250.5t74.5 251t203.5 97q130 0 204.5 -97t74.5 -251zM551 333q0 134 -57.5 215.5t-160.5 81.5q-102 0 -159.5 -82t-57.5 -215t57.5 -215t159.5 -82q103 0 160.5 81.5t57.5 215.5zM430 725h-44
l-50 101l-51 -101h-43l72 142h43z" />
    <glyph glyph-name="Otilde" unicode="&#xd5;" horiz-adv-x="667" 
d="M612 333q0 -154 -74.5 -250.5t-204.5 -96.5q-129 0 -203.5 96.5t-74.5 250.5t74.5 251t203.5 97q130 0 204.5 -97t74.5 -251zM551 333q0 134 -57.5 215.5t-160.5 81.5q-102 0 -159.5 -82t-57.5 -215t57.5 -215t159.5 -82q103 0 160.5 81.5t57.5 215.5zM488 847
q0 -36 -27.5 -60.5t-64.5 -24.5q-28 0 -49 14.5t-37.5 29t-34.5 14.5q-20 0 -35.5 -13t-15.5 -32h-42q0 36 28 60.5t65 24.5q35 0 68 -29.5t53 -29.5q19 0 34.5 13.5t15.5 32.5h42z" />
    <glyph glyph-name="Odieresis" unicode="&#xd6;" horiz-adv-x="667" 
d="M612 333q0 -154 -74.5 -250.5t-204.5 -96.5q-129 0 -203.5 96.5t-74.5 250.5t74.5 251t203.5 97q130 0 204.5 -97t74.5 -251zM551 333q0 134 -57.5 215.5t-160.5 81.5q-102 0 -159.5 -82t-57.5 -215t57.5 -215t159.5 -82q103 0 160.5 81.5t57.5 215.5zM433 794h-73v73h73
v-73zM306 794h-73v73h73v-73z" />
    <glyph glyph-name="multiply" unicode="&#xd7;" horiz-adv-x="520" 
d="M406 504l32 -31l-146 -146l146 -146l-32 -32l-146 146l-146 -146l-32 32l146 146l-146 146l32 31l146 -146z" />
    <glyph glyph-name="Oslash" unicode="&#xd8;" horiz-adv-x="667" 
d="M612 333q0 -154 -74.5 -250.5t-204.5 -96.5q-94 0 -163 55l-47 -74h-45l64 101q-87 95 -87 265q0 154 74.5 251t203.5 97q95 0 164 -55l47 74h45l-64 -101q87 -95 87 -266zM551 333q0 135 -58 216l-293 -461q55 -52 133 -52q103 0 160.5 81.5t57.5 215.5zM467 579
q-54 51 -134 51q-102 0 -159.5 -82t-57.5 -215q0 -134 58 -215z" />
    <glyph glyph-name="Ugrave" unicode="&#xd9;" horiz-adv-x="661" 
d="M563 667v-448q0 -110 -63 -171.5t-169 -61.5t-169 61.5t-63 171.5v448h58v-448q0 -85 47.5 -133.5t126.5 -48.5t126.5 48.5t47.5 133.5v448h58zM296 867l66 -142h-35l-103 142h72z" />
    <glyph glyph-name="Uacute" unicode="&#xda;" horiz-adv-x="661" 
d="M563 667v-448q0 -110 -63 -171.5t-169 -61.5t-169 61.5t-63 171.5v448h58v-448q0 -85 47.5 -133.5t126.5 -48.5t126.5 48.5t47.5 133.5v448h58zM364 867h73l-104 -142h-35z" />
    <glyph glyph-name="Ucircumflex" unicode="&#xdb;" horiz-adv-x="661" 
d="M354 867l73 -142h-44l-50 102l-51 -102h-43l72 142h43zM563 667v-448q0 -110 -63 -171.5t-169 -61.5t-169 61.5t-63 171.5v448h58v-448q0 -85 47.5 -133.5t126.5 -48.5t126.5 48.5t47.5 133.5v448h58z" />
    <glyph glyph-name="Udieresis" unicode="&#xdc;" horiz-adv-x="661" 
d="M303 867v-74h-74v74h74zM430 867v-74h-73v74h73zM563 667v-448q0 -110 -63 -171.5t-169 -61.5t-169 61.5t-63 171.5v448h58v-448q0 -85 47.5 -133.5t126.5 -48.5t126.5 48.5t47.5 133.5v448h58z" />
    <glyph glyph-name="Yacute" unicode="&#xdd;" horiz-adv-x="539" 
d="M533 667l-234 -351v-316h-58v316l-235 351h70l194 -300l193 300h70zM377 867l-104 -142h-35l66 142h73z" />
    <glyph glyph-name="Thorn" unicode="&#xde;" horiz-adv-x="542" 
d="M489 333q0 -77 -55.5 -129.5t-140.5 -52.5h-136v-151h-58v667h58v-152h136q85 0 140.5 -52.5t55.5 -129.5zM428 333q0 56 -40 95t-99 39h-132v-267h132q59 0 99 38.5t40 94.5z" />
    <glyph glyph-name="germandbls" unicode="&#xdf;" horiz-adv-x="535" 
d="M481 185q0 -90 -53 -142.5t-143 -52.5q-51 0 -86 26v50q39 -30 84 -30q63 0 102.5 40.5t39.5 105.5q0 66 -39.5 106.5t-102.5 40.5h-68v45h53q55 0 89 38.5t34 90.5q0 56 -35.5 92t-88.5 36q-58 0 -92.5 -40.5t-34.5 -100.5v-490h-53v489q0 82 50 135t133 53
q79 0 128 -47t49 -121q0 -52 -28 -95t-76 -58q61 -11 99.5 -56.5t38.5 -114.5z" />
    <glyph glyph-name="agrave" unicode="&#xe0;" horiz-adv-x="501" 
d="M415 0h-52v90q-22 -43 -64.5 -72t-102.5 -29q-64 0 -103.5 37.5t-39.5 94.5q0 62 49 101.5t141 39.5h118v38q0 126 -122 126q-66 0 -121 -47l-34 34q75 58 160 58q82 0 126.5 -43.5t44.5 -124.5v-303zM361 205v13h-113q-72 0 -106 -26t-34 -67q0 -39 27.5 -64t72.5 -25
q65 0 109 49.5t44 119.5zM282 525h-35l-104 142h73z" />
    <glyph glyph-name="aacute" unicode="&#xe1;" horiz-adv-x="501" 
d="M415 0h-52v90q-22 -43 -64.5 -72t-102.5 -29q-64 0 -103.5 37.5t-39.5 94.5q0 62 49 101.5t141 39.5h118v38q0 126 -122 126q-66 0 -121 -47l-34 34q75 58 160 58q82 0 126.5 -43.5t44.5 -124.5v-303zM361 205v13h-113q-72 0 -106 -26t-34 -67q0 -39 27.5 -64t72.5 -25
q65 0 109 49.5t44 119.5zM356 667l-104 -142h-35l66 142h73z" />
    <glyph glyph-name="acircumflex" unicode="&#xe2;" horiz-adv-x="501" 
d="M415 0h-52v90q-22 -43 -64.5 -72t-102.5 -29q-64 0 -103.5 37.5t-39.5 94.5q0 62 49 101.5t141 39.5h118v38q0 126 -122 126q-66 0 -121 -47l-34 34q75 58 160 58q82 0 126.5 -43.5t44.5 -124.5v-303zM361 205v13h-113q-72 0 -106 -26t-34 -67q0 -39 27.5 -64t72.5 -25
q65 0 109 49.5t44 119.5zM339 525h-44l-50 101l-51 -101h-43l72 142h43z" />
    <glyph glyph-name="atilde" unicode="&#xe3;" horiz-adv-x="501" 
d="M415 0h-52v90q-22 -43 -64.5 -72t-102.5 -29q-64 0 -103.5 37.5t-39.5 94.5q0 62 49 101.5t141 39.5h118v38q0 126 -122 126q-66 0 -121 -47l-34 34q75 58 160 58q82 0 126.5 -43.5t44.5 -124.5v-303zM361 205v13h-113q-72 0 -106 -26t-34 -67q0 -39 27.5 -64t72.5 -25
q65 0 109 49.5t44 119.5zM399 647q0 -36 -27.5 -60.5t-64.5 -24.5q-28 0 -49 14.5t-37.5 29t-34.5 14.5q-20 0 -35.5 -13t-15.5 -32h-42q0 36 28 60.5t65 24.5q35 0 68 -29.5t53 -29.5q19 0 34.5 13.5t15.5 32.5h42z" />
    <glyph glyph-name="adieresis" unicode="&#xe4;" horiz-adv-x="501" 
d="M415 0h-52v90q-22 -43 -64.5 -72t-102.5 -29q-64 0 -103.5 37.5t-39.5 94.5q0 62 49 101.5t141 39.5h118v38q0 126 -122 126q-66 0 -121 -47l-34 34q75 58 160 58q82 0 126.5 -43.5t44.5 -124.5v-303zM361 205v13h-113q-72 0 -106 -26t-34 -67q0 -39 27.5 -64t72.5 -25
q65 0 109 49.5t44 119.5zM346 594h-73v73h73v-73zM219 594h-73v73h73v-73z" />
    <glyph glyph-name="aring" unicode="&#xe5;" horiz-adv-x="501" 
d="M415 0h-52v90q-22 -43 -64.5 -72t-102.5 -29q-64 0 -103.5 37.5t-39.5 94.5q0 62 49 101.5t141 39.5h118v38q0 126 -122 126q-66 0 -121 -47l-34 34q75 58 160 58q82 0 126.5 -43.5t44.5 -124.5v-303zM361 205v13h-113q-72 0 -106 -26t-34 -67q0 -39 27.5 -64t72.5 -25
q65 0 109 49.5t44 119.5zM325 605q0 -31 -22.5 -53.5t-53.5 -22.5t-53.5 22.5t-22.5 53.5t22.5 53.5t53.5 22.5t53.5 -22.5t22.5 -53.5zM299 605q0 21 -14.5 35.5t-35.5 14.5t-36 -14.5t-15 -35.5t15 -36t36 -15t35.5 15t14.5 36z" />
    <glyph glyph-name="ae" unicode="&#xe6;" horiz-adv-x="794" 
d="M744 227h-329q3 -96 46.5 -144.5t120.5 -48.5q69 0 116 47l34 -34q-58 -58 -152 -58q-76 0 -126.5 36.5t-70.5 104.5q-15 -60 -64 -100.5t-120 -40.5q-67 0 -106.5 39.5t-39.5 98.5q0 66 49 105t141 39h118v29q0 126 -122 126q-66 0 -121 -47l-34 34q75 58 160 58
q60 0 102 -29.5t53 -81.5q21 53 64 82t101 29q82 0 131 -51.5t49 -151.5v-41zM692 272v21q0 68 -35 102t-93 34q-60 0 -100 -42.5t-48 -114.5h276zM361 205v22h-113q-73 0 -106.5 -26.5t-33.5 -69.5q0 -42 27 -68.5t73 -26.5q65 0 109 49.5t44 119.5z" />
    <glyph glyph-name="ccedilla" unicode="&#xe7;" horiz-adv-x="457" 
d="M379 81l33 -34q-51 -53 -132 -57l-16 -32q27 -4 44 -22.5t17 -40.5q0 -32 -23 -53t-65 -21q-50 0 -83 35l21 21q27 -27 60 -27q24 0 38 12.5t14 27.5q0 20 -18 33.5t-51 13.5l26 54q-88 8 -141.5 71.5t-53.5 167.5q0 112 60.5 176.5t158.5 64.5q88 0 144 -58l-33 -34
q-47 47 -108 47q-75 0 -120.5 -53t-45.5 -143t45.5 -143t120.5 -53q61 0 108 47z" />
    <glyph glyph-name="egrave" unicode="&#xe8;" horiz-adv-x="483" 
d="M432 234h-328q4 -200 167 -200q68 0 115 47l34 -34q-58 -58 -151 -58q-104 0 -162 64t-58 177q0 110 56.5 175.5t147.5 65.5q81 0 130 -51.5t49 -151.5v-34zM380 279v14q0 68 -34.5 102t-92.5 34q-60 0 -99.5 -42t-48.5 -108h275zM286 525h-35l-104 142h73z" />
    <glyph glyph-name="eacute" unicode="&#xe9;" horiz-adv-x="483" 
d="M432 234h-328q4 -200 167 -200q68 0 115 47l34 -34q-58 -58 -151 -58q-104 0 -162 64t-58 177q0 110 56.5 175.5t147.5 65.5q81 0 130 -51.5t49 -151.5v-34zM380 279v14q0 68 -34.5 102t-92.5 34q-60 0 -99.5 -42t-48.5 -108h275zM359 667l-104 -142h-35l66 142h73z" />
    <glyph glyph-name="ecircumflex" unicode="&#xea;" horiz-adv-x="483" 
d="M432 234h-328q4 -200 167 -200q68 0 115 47l34 -34q-58 -58 -151 -58q-104 0 -162 64t-58 177q0 110 56.5 175.5t147.5 65.5q81 0 130 -51.5t49 -151.5v-34zM380 279v14q0 68 -34.5 102t-92.5 34q-60 0 -99.5 -42t-48.5 -108h275zM347 525h-44l-50 101l-51 -101h-43
l72 142h43z" />
    <glyph glyph-name="edieresis" unicode="&#xeb;" horiz-adv-x="483" 
d="M432 234h-328q4 -200 167 -200q68 0 115 47l34 -34q-58 -58 -151 -58q-104 0 -162 64t-58 177q0 110 56.5 175.5t147.5 65.5q81 0 130 -51.5t49 -151.5v-34zM380 279v14q0 68 -34.5 102t-92.5 34q-60 0 -99.5 -42t-48.5 -108h275zM347 594h-73v73h73v-73zM220 594h-73v73
h73v-73z" />
    <glyph glyph-name="igrave" unicode="&#xec;" horiz-adv-x="228" 
d="M141 0h-54v460h54v-460zM160 525h-35l-104 142h73z" />
    <glyph glyph-name="iacute" unicode="&#xed;" horiz-adv-x="228" 
d="M141 0h-54v460h54v-460zM208 667l-104 -142h-35l66 142h73z" />
    <glyph glyph-name="icircumflex" unicode="&#xee;" horiz-adv-x="228" 
d="M141 0h-54v460h54v-460zM208 525h-44l-50 101l-51 -101h-43l72 142h43z" />
    <glyph glyph-name="idieresis" unicode="&#xef;" horiz-adv-x="228" 
d="M141 0h-54v460h54v-460zM214 594h-73v73h73v-73zM87 594h-73v73h73v-73z" />
    <glyph glyph-name="eth" unicode="&#xf0;" 
d="M462 205q0 -92 -56.5 -154t-150.5 -62q-93 0 -149.5 60t-56.5 149q0 88 55 148t145 60q95 0 145 -79q-37 109 -138 207l-86 -76l-27 30l82 74q-61 50 -120 78l38 37q61 -29 121 -81l90 81l28 -30l-88 -79q77 -76 122.5 -171t45.5 -192zM406 198q0 71 -42.5 118t-108.5 47
q-65 0 -108 -47t-43 -118t43 -117.5t108 -46.5q66 0 108.5 46.5t42.5 117.5z" />
    <glyph glyph-name="ntilde" unicode="&#xf1;" horiz-adv-x="540" 
d="M453 0h-53v294q0 64 -29 98t-76 34q-68 0 -111.5 -51t-43.5 -128v-247h-53v460h52v-99q16 45 62 77.5t104 32.5q68 0 108 -43.5t40 -126.5v-301zM418 647q0 -36 -27.5 -60.5t-64.5 -24.5q-28 0 -49 14.5t-37.5 29t-34.5 14.5q-20 0 -35.5 -13t-15.5 -32h-42q0 36 28 60.5
t65 24.5q35 0 68 -29.5t53 -29.5q19 0 34.5 13.5t15.5 32.5h42z" />
    <glyph glyph-name="ograve" unicode="&#xf2;" 
d="M462 230q0 -112 -57 -176.5t-150 -64.5q-92 0 -149 64.5t-57 176.5t57 176.5t149 64.5q93 0 150 -64.5t57 -176.5zM406 230q0 91 -42 143.5t-109 52.5t-109 -52.5t-42 -143.5t42 -143.5t109 -52.5t109 52.5t42 143.5zM289 525h-35l-104 142h73z" />
    <glyph glyph-name="oacute" unicode="&#xf3;" 
d="M462 230q0 -112 -57 -176.5t-150 -64.5q-92 0 -149 64.5t-57 176.5t57 176.5t149 64.5q93 0 150 -64.5t57 -176.5zM406 230q0 91 -42 143.5t-109 52.5t-109 -52.5t-42 -143.5t42 -143.5t109 -52.5t109 52.5t42 143.5zM362 667l-104 -142h-35l66 142h73z" />
    <glyph glyph-name="ocircumflex" unicode="&#xf4;" 
d="M462 230q0 -112 -57 -176.5t-150 -64.5q-92 0 -149 64.5t-57 176.5t57 176.5t149 64.5q93 0 150 -64.5t57 -176.5zM406 230q0 91 -42 143.5t-109 52.5t-109 -52.5t-42 -143.5t42 -143.5t109 -52.5t109 52.5t42 143.5zM350 525h-44l-50 101l-51 -101h-43l72 142h43z" />
    <glyph glyph-name="otilde" unicode="&#xf5;" 
d="M462 230q0 -112 -57 -176.5t-150 -64.5q-92 0 -149 64.5t-57 176.5t57 176.5t149 64.5q93 0 150 -64.5t57 -176.5zM406 230q0 91 -42 143.5t-109 52.5t-109 -52.5t-42 -143.5t42 -143.5t109 -52.5t109 52.5t42 143.5zM410 647q0 -36 -27.5 -60.5t-64.5 -24.5
q-28 0 -49 14.5t-37.5 29t-34.5 14.5q-20 0 -35.5 -13t-15.5 -32h-42q0 36 28 60.5t65 24.5q35 0 68 -29.5t53 -29.5q19 0 34.5 13.5t15.5 32.5h42z" />
    <glyph glyph-name="odieresis" unicode="&#xf6;" 
d="M462 230q0 -112 -57 -176.5t-150 -64.5q-92 0 -149 64.5t-57 176.5t57 176.5t149 64.5q93 0 150 -64.5t57 -176.5zM406 230q0 91 -42 143.5t-109 52.5t-109 -52.5t-42 -143.5t42 -143.5t109 -52.5t109 52.5t42 143.5zM356 594h-73v73h73v-73zM229 594h-73v73h73v-73z" />
    <glyph glyph-name="divide" unicode="&#xf7;" horiz-adv-x="520" 
d="M297 452h-74v75h74v-75zM457 304h-394v45h394v-45zM297 127h-74v74h74v-74z" />
    <glyph glyph-name="oslash" unicode="&#xf8;" 
d="M462 230q0 -112 -57 -176.5t-150 -64.5q-64 0 -111 32l-34 -54h-41l48 75q-68 66 -68 188q0 112 57 176.5t149 64.5q63 0 112 -32l34 54h40l-47 -75q68 -66 68 -188zM406 230q0 90 -41 142l-195 -309q37 -29 85 -29q67 0 109 52.5t42 143.5zM340 398q-36 28 -85 28
q-67 0 -109 -52.5t-42 -143.5q0 -90 41 -142z" />
    <glyph glyph-name="ugrave" unicode="&#xf9;" horiz-adv-x="540" 
d="M453 0h-52v105q-21 -51 -63.5 -83.5t-102.5 -32.5q-68 0 -108 43.5t-40 126.5v301h53v-291q0 -67 28.5 -100t76.5 -33q70 0 112.5 51.5t42.5 131.5v241h53v-460zM304 525h-35l-104 142h73z" />
    <glyph glyph-name="uacute" unicode="&#xfa;" horiz-adv-x="540" 
d="M453 0h-52v105q-21 -51 -63.5 -83.5t-102.5 -32.5q-68 0 -108 43.5t-40 126.5v301h53v-291q0 -67 28.5 -100t76.5 -33q70 0 112.5 51.5t42.5 131.5v241h53v-460zM376 667l-104 -142h-35l66 142h73z" />
    <glyph glyph-name="ucircumflex" unicode="&#xfb;" horiz-adv-x="540" 
d="M453 0h-52v105q-21 -51 -63.5 -83.5t-102.5 -32.5q-68 0 -108 43.5t-40 126.5v301h53v-291q0 -67 28.5 -100t76.5 -33q70 0 112.5 51.5t42.5 131.5v241h53v-460zM364 525h-44l-50 101l-51 -101h-43l72 142h43z" />
    <glyph glyph-name="udieresis" unicode="&#xfc;" horiz-adv-x="540" 
d="M453 0h-52v105q-21 -51 -63.5 -83.5t-102.5 -32.5q-68 0 -108 43.5t-40 126.5v301h53v-291q0 -67 28.5 -100t76.5 -33q70 0 112.5 51.5t42.5 131.5v241h53v-460zM370 594h-73v73h73v-73zM243 594h-73v73h73v-73z" />
    <glyph glyph-name="yacute" unicode="&#xfd;" horiz-adv-x="425" 
d="M412 460l-230 -610q-25 -67 -100 -67q-35 0 -59 10v45q20 -10 50 -10q46 0 58 32l54 145l-172 455h58l142 -396l141 396h58zM316 667l-104 -142h-35l66 142h73z" />
    <glyph glyph-name="thorn" unicode="&#xfe;" horiz-adv-x="546" 
d="M498 230q0 -112 -55.5 -176.5t-142.5 -64.5q-111 0 -160 112v-308h-53v874h53v-308q49 112 160 112q87 0 142.5 -64.5t55.5 -176.5zM442 230q0 91 -42 143.5t-109 52.5t-109 -52.5t-42 -143.5t42 -143.5t109 -52.5t109 52.5t42 143.5z" />
    <glyph glyph-name="ydieresis" unicode="&#xff;" horiz-adv-x="425" 
d="M412 460l-230 -610q-25 -67 -100 -67q-35 0 -59 10v45q20 -10 50 -10q46 0 58 32l54 145l-172 455h58l142 -396l141 396h58zM312 594h-73v73h73v-73zM185 594h-73v73h73v-73z" />
    <glyph glyph-name="dotlessi" unicode="&#x131;" horiz-adv-x="228" 
d="M141 0h-54v460h54v-460z" />
    <glyph glyph-name="Lslash" unicode="&#x141;" horiz-adv-x="450" 
d="M439 0h-335v295l-71 -35l-18 35l89 45v327h58v-298l71 36l18 -36l-89 -44v-277h277v-48z" />
    <glyph glyph-name="lslash" unicode="&#x142;" horiz-adv-x="251" 
d="M243 369l-90 -45v-324h-54v296l-72 -36l-18 36l90 45v326h54v-299l72 36z" />
    <glyph glyph-name="OE" unicode="&#x152;" horiz-adv-x="951" 
d="M886 0h-335v140q-29 -72 -86.5 -113t-135.5 -41q-127 0 -200.5 97t-73.5 250q0 154 73.5 251t200.5 97q77 0 135 -41.5t87 -112.5v140h328v-49h-270v-257h263v-48h-263v-265h277v-48zM551 333q0 134 -57.5 215.5t-160.5 81.5q-102 0 -159.5 -82t-57.5 -215t57.5 -215
t159.5 -82q103 0 160.5 81.5t57.5 215.5z" />
    <glyph glyph-name="oe" unicode="&#x153;" horiz-adv-x="840" 
d="M790 234h-329q4 -200 168 -200q68 0 115 47l34 -34q-58 -58 -152 -58q-71 0 -121.5 37.5t-69.5 101.5q-20 -65 -68 -102t-114 -37q-91 0 -147.5 65t-56.5 176t56.5 176t147.5 65q65 0 114 -37.5t67 -101.5q19 65 66 102t110 37q82 0 131 -51.5t49 -151.5v-34zM738 279v14
q0 68 -35 102t-93 34q-60 0 -99 -42t-48 -108h275zM406 230q0 91 -42 143.5t-109 52.5t-109 -52.5t-42 -143.5t42 -143.5t109 -52.5t109 52.5t42 143.5z" />
    <glyph glyph-name="Scaron" unicode="&#x160;" horiz-adv-x="499" 
d="M455 172q0 -82 -61 -134t-161 -52q-124 0 -199 72l37 37q28 -27 71.5 -43t89.5 -16q73 0 117.5 38t44.5 97q0 47 -25.5 78.5t-63.5 44.5l-83 29t-83 32.5t-63.5 54.5t-25.5 94q0 73 59.5 125t147.5 52q113 0 190 -72l-38 -38q-60 60 -149 60q-65 0 -107 -38t-42 -88
q0 -38 19 -64.5t49.5 -41t67 -26t73 -25t67 -33t49.5 -56t19 -87.5zM343 867l-73 -142h-43l-72 142h43l51 -101l50 101h44z" />
    <glyph glyph-name="scaron" unicode="&#x161;" horiz-adv-x="429" 
d="M372 119q0 -54 -44 -92t-123 -38q-101 0 -162 58l34 34q48 -48 129 -48q52 0 81.5 24t29.5 60t-26 57.5t-63.5 33l-75 24t-63.5 41.5t-26 75q0 48 41.5 85.5t114.5 37.5q92 0 150 -58l-33 -34q-50 48 -116 48q-49 0 -75.5 -24.5t-26.5 -53.5q0 -35 26 -55.5t63.5 -31.5
t75 -23.5t63.5 -42t26 -77.5zM308 667l-73 -142h-43l-72 142h43l51 -101l50 101h44z" />
    <glyph glyph-name="Ydieresis" unicode="&#x178;" horiz-adv-x="539" 
d="M533 667l-234 -351v-316h-58v316l-235 351h70l194 -300l193 300h70zM369 794h-73v73h73v-73zM242 794h-73v73h73v-73z" />
    <glyph glyph-name="Zcaron" unicode="&#x17d;" horiz-adv-x="516" 
d="M484 0h-452v38l365 580h-353v49h428v-38l-365 -581h377v-48zM351 867l-73 -142h-43l-72 142h43l51 -101l50 101h44z" />
    <glyph glyph-name="zcaron" unicode="&#x17e;" horiz-adv-x="438" 
d="M391 0h-346v32l265 383h-259v45h333v-33l-265 -382h272v-45zM313 667l-73 -142h-43l-72 142h43l51 -101l50 101h44z" />
    <glyph glyph-name="florin" unicode="&#x192;" horiz-adv-x="397" 
d="M421 653l-14 -41q-30 20 -68 20q-46 0 -57 -43l-47 -190h110v-35h-119l-125 -502q-8 -35 -36 -57t-68 -22q-48 0 -87 24l15 41q28 -20 67 -20q48 0 57 43l123 493h-111v35h119l50 199q8 35 36 57t68 22q48 0 87 -24z" />
    <glyph glyph-name="circumflex" unicode="&#x2c6;" horiz-adv-x="232" 
d="M210 525h-44l-50 101l-51 -101h-43l72 142h43z" />
    <glyph glyph-name="caron" unicode="&#x2c7;" horiz-adv-x="232" 
d="M210 667l-73 -142h-43l-72 142h43l51 -101l50 101h44z" />
    <glyph glyph-name="breve" unicode="&#x2d8;" horiz-adv-x="300" 
d="M256 667q0 -44 -31 -74.5t-75 -30.5t-75 30.5t-31 74.5h37q0 -29 20 -49.5t49 -20.5t49 20.5t20 49.5h37z" />
    <glyph glyph-name="dotaccent" unicode="&#x2d9;" horiz-adv-x="293" 
d="M209 607q0 -25 -18.5 -43.5t-43.5 -18.5t-43.5 18.5t-18.5 43.5t18.5 43.5t43.5 18.5t43.5 -18.5t18.5 -43.5z" />
    <glyph glyph-name="ring" unicode="&#x2da;" horiz-adv-x="293" 
d="M223 605q0 -31 -22.5 -53.5t-53.5 -22.5t-53.5 22.5t-22.5 53.5t22.5 53.5t53.5 22.5t53.5 -22.5t22.5 -53.5zM197 605q0 21 -14.5 35.5t-35.5 14.5t-36 -14.5t-15 -35.5t15 -36t36 -15t35.5 15t14.5 36z" />
    <glyph glyph-name="ogonek" unicode="&#x2db;" horiz-adv-x="300" 
d="M239 -144q-29 -35 -80 -35q-46 0 -73 24.5t-27 62.5q0 28 18.5 56.5t47.5 45.5l35 -10q-27 -18 -43 -42.5t-16 -47.5q0 -27 17 -42.5t47 -15.5q31 0 53 25z" />
    <glyph glyph-name="tilde" unicode="&#x2dc;" horiz-adv-x="380" 
d="M343 647q0 -36 -27.5 -60.5t-64.5 -24.5q-28 0 -49 14.5t-37.5 29t-34.5 14.5q-20 0 -35.5 -13t-15.5 -32h-42q0 36 28 60.5t65 24.5q35 0 68 -29.5t53 -29.5q19 0 34.5 13.5t15.5 32.5h42z" />
    <glyph glyph-name="hungarumlaut" unicode="&#x2dd;" horiz-adv-x="336" 
d="M306 669l-100 -142h-34l67 142h67zM198 669l-100 -142h-34l66 142h68z" />
    <glyph glyph-name="endash" unicode="&#x2013;" horiz-adv-x="564" 
d="M506 228h-448v44h448v-44z" />
    <glyph glyph-name="emdash" unicode="&#x2014;" horiz-adv-x="1000" 
d="M942 228h-884v44h884v-44z" />
    <glyph glyph-name="quoteleft" unicode="&#x2018;" horiz-adv-x="243" 
d="M176 667l-31 -194h-76l68 194h39z" />
    <glyph glyph-name="quoteright" unicode="&#x2019;" horiz-adv-x="243" 
d="M174 667l-69 -194h-38l31 194h76z" />
    <glyph glyph-name="quotesinglbase" unicode="&#x201a;" horiz-adv-x="243" 
d="M174 81l-69 -193h-38l31 193h76z" />
    <glyph glyph-name="quotedblleft" unicode="&#x201c;" horiz-adv-x="367" 
d="M300 667l-31 -194h-76l68 194h39zM176 667l-31 -194h-76l68 194h39z" />
    <glyph glyph-name="quotedblright" unicode="&#x201d;" horiz-adv-x="367" 
d="M298 667l-69 -194h-38l31 194h76zM174 667l-69 -194h-38l31 194h76z" />
    <glyph glyph-name="quotedblbase" unicode="&#x201e;" horiz-adv-x="367" 
d="M298 81l-69 -193h-38l31 193h76zM174 81l-69 -193h-38l31 193h76z" />
    <glyph glyph-name="dagger" unicode="&#x2020;" 
d="M448 415h-170v-622h-45v622h-170v45h170v207h45v-207h170v-45z" />
    <glyph glyph-name="daggerdbl" unicode="&#x2021;" 
d="M448 0h-170v-207h-45v1v206h-170v45h170v370h-170v45h170v207h45v-207h170v-45h-170v-370h170v-45z" />
    <glyph glyph-name="bullet" unicode="&#x2022;" horiz-adv-x="291" 
d="M197 267q0 -22 -15 -37t-37 -15q-21 0 -36.5 15t-15.5 37q0 21 15.5 36.5t36.5 15.5q22 0 37 -15.5t15 -36.5z" />
    <glyph glyph-name="ellipsis" unicode="&#x2026;" horiz-adv-x="732" 
d="M651 0h-82v81h82v-81zM407 0h-82v81h82v-81zM163 0h-82v81h82v-81z" />
    <glyph glyph-name="perthousand" unicode="&#x2030;" horiz-adv-x="1161" 
d="M1112 183q0 -91 -37 -140.5t-98 -49.5t-98.5 49.5t-37.5 140.5t37.5 140.5t98.5 49.5t98 -49.5t37 -140.5zM767 183q0 -91 -37.5 -140.5t-97.5 -49.5q-61 0 -98.5 49.5t-37.5 140.5t37.5 140.5t98.5 49.5t98 -49.5t37 -140.5zM665 667l-466 -667h-50l467 667h49zM320 483
q0 -91 -37.5 -140.5t-98.5 -49.5q-60 0 -97.5 49.5t-37.5 140.5t37 140.5t98 49.5t98.5 -49.5t37.5 -140.5zM1069 183q0 75 -26 114.5t-66 39.5t-66 -39.5t-26 -114.5t26 -114.5t66 -39.5t66 39.5t26 114.5zM724 183q0 75 -26 114.5t-66 39.5t-66 -39.5t-26 -114.5
t26 -114.5t66 -39.5t66 39.5t26 114.5zM276 483q0 75 -26 114.5t-66 39.5t-66 -39.5t-26 -114.5t26 -114.5t66 -39.5t66 39.5t26 114.5z" />
    <glyph glyph-name="guilsinglleft" unicode="&#x2039;" horiz-adv-x="261" 
d="M210 43h-54l-93 187l93 187h54l-93 -187z" />
    <glyph glyph-name="guilsinglright" unicode="&#x203a;" horiz-adv-x="261" 
d="M199 230l-94 -187h-54l94 187l-94 187h54z" />
    <glyph glyph-name="fraction" unicode="&#x2044;" horiz-adv-x="75" 
d="M296 667l-467 -667h-50l467 667h50z" />
    <glyph glyph-name="Euro" unicode="&#x20ac;" horiz-adv-x="609" 
d="M523 95l37 -37q-72 -72 -189 -72q-113 0 -188.5 72.5t-95.5 192.5h-79v34h74q-2 32 -2 48q0 17 2 49h-74v34h79q20 121 94 193t190 72q117 0 189 -72l-37 -38q-59 59 -148 59q-88 0 -148 -58t-78 -156h275v-34h-280q-3 -48 -3 -49l3 -48h280v-34h-275q18 -98 78 -156
t148 -58t148 58z" />
    <glyph glyph-name="trademark" unicode="&#x2122;" horiz-adv-x="400" 
d="M338 500h-23v134l-44 -134h-20l-44 134v-134h-23v167h33l44 -132l44 132h33v-167zM157 646h-50v-146h-24v146h-52v21h126v-21z" />
    <glyph glyph-name="partialdiff" unicode="&#x2202;" 
d="M462 205q0 -92 -56.5 -154t-150.5 -62q-93 0 -149.5 60t-56.5 149q0 88 55 148t145 60q95 0 145 -79q-33 95 -113 181t-176 132l38 37q132 -65 225.5 -197.5t93.5 -274.5zM406 198q0 71 -42.5 118t-108.5 47q-65 0 -108 -47t-43 -118t43 -117.5t108 -46.5
q66 0 108.5 46.5t42.5 117.5z" />
    <glyph glyph-name="product" unicode="&#x220f;" horiz-adv-x="780" 
d="M723 333q0 -138 -97.5 -235.5t-235.5 -97.5t-235.5 97.5t-97.5 235.5t97.5 236t235.5 98t235.5 -98t97.5 -236zM689 333q0 124 -87.5 212t-211.5 88t-211.5 -88t-87.5 -212t87.5 -211.5t211.5 -87.5t211.5 87.5t87.5 211.5zM516 418q0 -45 -33 -75.5t-83 -30.5h-72v-169
h-39v380h111q50 0 83 -30t33 -75zM477 418q0 31 -22.5 51.5t-56.5 20.5h-70v-144h70q34 0 56.5 20.5t22.5 51.5z" />
    <glyph glyph-name="minus" unicode="&#x2212;" horiz-adv-x="520" 
d="M457 304h-394v45h394v-45z" />
    <glyph glyph-name="notequal" unicode="&#x2260;" horiz-adv-x="520" 
d="M457 209h-206l-32 -127h-41l32 127h-147v45h158l37 146h-195v45h206l32 126h41l-32 -126h147v-45h-158l-37 -146h195v-45z" />
    <glyph glyph-name="yofontssignature" unicode="&#xf8ff;" horiz-adv-x="779" 
d="M731 395q0 -71 -30 -136t-82 -106l-26 26q45 33 73 90t28 124q0 115 -75.5 184.5t-188.5 69.5q-152 0 -246.5 -103.5t-94.5 -245.5q0 -122 65 -200.5t152 -78.5q64 0 109 42.5t56 112.5l7 44q-21 -37 -56 -57.5t-75 -20.5q-60 0 -97 47.5t-23 124.5l35 199h46l-35 -199
q-11 -61 13 -96.5t71 -35.5q53 0 90.5 40.5t52.5 121.5l30 169h46l-59 -338q-15 -90 -70 -140t-141 -50q-105 0 -181.5 86.5t-76.5 228.5q0 159 107 272t275 113q132 0 216.5 -80.5t84.5 -207.5z" />
    <glyph glyph-name="fi" unicode="&#xfb01;" horiz-adv-x="552" 
d="M475 594h-73v73h73v-73zM466 0h-55v460h55v-460zM281 415h-114v-415h-54v415h-96v45h96v107q0 54 28.5 82t80.5 28q35 0 59 -10v-45q-20 10 -50 10q-34 0 -49 -16t-15 -53v-103h114v-45z" />
    <glyph glyph-name="fl" unicode="&#xfb02;" horiz-adv-x="542" 
d="M455 0h-54v667h54v-667zM281 415h-114v-415h-54v415h-96v45h96v107q0 54 28.5 82t80.5 28q35 0 59 -10v-45q-20 10 -50 10q-34 0 -49 -16t-15 -53v-103h114v-45z" />
    <glyph glyph-name="CR" horiz-adv-x="233" 
 />
  </font>
</defs>
</svg>
