<?xml version="1.0" standalone="no"?>
<!DOCTYPE svg PUBLIC "-//W3C//DTD SVG 1.1//EN" "http://www.w3.org/Graphics/SVG/1.1/DTD/svg11.dtd">
<svg xmlns="http://www.w3.org/2000/svg">
<metadata>Copyright (C) 2015 by original authors @ fontello.com</metadata>
<defs>
<font id="ztr" horiz-adv-x="1000" >
<font-face font-family="ztr" font-weight="400" font-stretch="normal" units-per-em="1000" ascent="850" descent="-150" />
<missing-glyph horiz-adv-x="1000" />
<glyph glyph-name="alert" unicode="&#xe800;" d="m500 850c-275 0-500-225-500-500s225-500 500-500 500 225 500 500-225 500-500 500z m0-812c-34 0-62 28-62 62s28 63 62 63 63-29 63-63-29-62-63-62z m63 250c0-35-29-63-63-63s-62 28-62 63v312c0 34 28 63 62 63s63-29 63-63v-312z" horiz-adv-x="1000" />
<glyph glyph-name="arrowdown" unicode="&#xe801;" d="m1565 815l-683-683-682 683c-47 47-118 47-165 0s-47-118 0-165l765-765c24-23 59-35 82-35 36 0 59 12 83 35l764 765c48 47 48 118 0 165-47 47-117 47-164 0z" horiz-adv-x="1765" />
<glyph glyph-name="arrowup" unicode="&#xe802;" d="m200-115l682 683 683-683c47-47 117-47 164 0s48 118 0 165l-764 765c-24 23-59 35-83 35-35 0-58-12-82-35l-765-765c-47-47-47-118 0-165 47-47 118-47 165 0z" horiz-adv-x="1765" />
<glyph glyph-name="battery" unicode="&#xe803;" d="m1878 650h-121v174c0 17-9 26-27 26h-1704c-17 0-26-9-26-26v-948c0-17 9-26 26-26h1704c18 0 27 9 27 26v174h121c18 0 26 9 26 26v548c0 17-17 26-26 26z m-365-591c0-18-9-26-26-26h-548c-17 0-26 8-26 26v591c0 17 9 26 26 26h548c17 0 26-9 26-26v-591z" horiz-adv-x="1904" />
<glyph glyph-name="can" unicode="&#xe804;" d="m855 422c0-181-114-335-273-398l-10 72c125 56 212 181 212 326 0 198-159 357-356 357s-357-159-357-357c0-145 87-270 212-326l-10-72c-159 61-273 217-273 398 0 237 191 428 428 428s427-192 427-428z m-310-143l11-78c76 44 128 127 128 221 0 143-115 258-257 258s-258-115-258-258c0-94 52-176 128-221l11 78c-42 34-68 86-68 143 0 103 84 185 185 185s185-83 185-185c3-57-23-109-65-143z m130-354h-165l-60 414c37 10 64 43 64 82 0 48-38 86-86 86s-86-38-86-86c0-39 27-72 64-82l-60-414h-167c-6 0-12-6-12-13v-50c0-7 6-12 12-12h498c6 0 12 5 12 12v50c-1 7-8 13-14 13z" horiz-adv-x="855" />
<glyph glyph-name="close" unicode="&#xe805;" d="m632 353l336 336c39 38 39 97 0 135s-97 39-136 0l-335-342-336 342c-38 33-96 33-135 0s-39-97 0-135l335-336-335-335c-39-39-39-97 0-136l0 0c19-19 45-26 71-26 26 0 51 7 71 26l335 336 336-336c38-39 97-39 135 0s39 97 0 136l-342 335z" horiz-adv-x="1006" />
<glyph glyph-name="control" unicode="&#xe806;" d="m846 850c-156 0-534 0-690 0-87 0-156-69-156-156 0-312 0-376 0-688 0-87 69-156 156-156 156 0 534 0 690 0 87 0 156 69 156 156 0 312 0 376 0 688 0 87-69 156-156 156z m-345-735c-24 0-44 20-44 45s20 44 44 44 45-20 45-44-20-45-45-45z m181 98c-23-13-49-4-63 16-24 40-67 69-118 69s-96-27-118-69c-13-23-40-29-62-16s-29 40-16 62c40 69 114 114 198 114 85 0 159-47 199-114 9-22 2-51-20-62z m158 91c-23-13-49-4-63 16-55 96-158 160-276 160-118 0-220-64-276-160-13-22-40-29-62-18-23 14-29 40-18 63 71 122 202 204 356 204 152 0 285-82 357-204 11-21 4-49-18-61z" horiz-adv-x="1002" />
<glyph glyph-name="edit" unicode="&#xe807;" d="m93 258l134-148c0 0-178-96-216-54-45 54 82 202 82 202z m34 30l134-147 525 457-135 148-524-458z m561 487l135-147 81 71c0 0 25 42-32 104-65 70-106 42-106 42l-78-70z m-639-876h828m48 0c0 27-21 48-48 48h-828c-28 0-49-21-49-48s21-49 49-49h828c26 0 48 21 48 49z" horiz-adv-x="925" />
<glyph glyph-name="expandtoleft" unicode="&#xe808;" d="m797 385v-64c0-29-24-47-47-47h-424c-29 0-47-23-47-46v-99c0-29-17-35-35-17l-232 215c-18 17-18 40 0 58l232 209c18 12 35 6 35-17v-99c0-29 23-47 47-47h424c29 0 47-23 47-46z m314 465h-99c-24 0-47-17-47-41v-918c0-24 18-41 47-41h99c23 0 46 17 46 41v918c0 24-17 41-46 41z" horiz-adv-x="1157" />
<glyph glyph-name="expandtoright" unicode="&#xe809;" d="m878 123c0-23 17-29 35-17l232 209c18 18 18 41 0 58l-232 215c-18 18-35 12-35-17v-99c0-23-17-46-47-46h-424c-23 0-46-18-46-47v-64c0-23 17-46 46-46h424c24 0 47-18 47-47v-99z m-733-273c24 0 47 17 47 41v918c0 24-18 41-47 41h-98c-24 0-47-17-47-41v-918c0-24 17-41 47-41h98l0 0z" horiz-adv-x="1157" />
<glyph glyph-name="faulting" unicode="&#xe80a;" d="m66-150h924c23 0 47 13 57 33 13 20 13 47 3 67l-462 864c-10 19-33 36-60 36l0 0c-23 0-46-13-60-36l-461-864c-10-20-10-47 0-67 13-20 36-33 59-33z m462 266c37 0 67-30 67-67s-30-66-67-66-66 30-66 66 30 67 66 67z m-66 133v266c0 36 30 66 66 66s67-30 67-66v-266c0-37-30-67-67-67s-66 30-66 67z" horiz-adv-x="1056" />
<glyph glyph-name="fave" unicode="&#xe80b;" d="m1036 473c-7 23-29 43-52 46l-279 42-127 253c-10 23-32 36-58 36-26 0-49-13-59-36l-127-253-279-42c-26-3-45-20-52-46-6-22 0-48 17-68l201-198-49-279c-3-26 7-49 26-65 10-10 26-13 39-13 10 0 20 3 29 6l250 134 250-134c10-6 20-6 30-6 12 0 25 3 38 13 20 13 30 39 26 65l-48 279 201 198c23 16 29 42 23 68z" horiz-adv-x="1039" />
<glyph glyph-name="fuel" unicode="&#xe80c;" d="m776 499h-112v336c0 9-6 15-15 15h-559c-8 0-15-6-15-15v-900h-60c-7 0-15-6-15-15v-55c0-9 8-15 15-15h707c9 0 15 6 15 15v55c0 9-6 15-15 15h-60v198h112c26 0 45 19 45 44v277c2 24-19 45-43 45z m-199 18c0-8-7-15-15-15h-387c-8 0-15 7-15 15v199c0 8 7 14 15 14h387c8 0 15-6 15-14v-199z m173-311h-86v221h86v-221z" horiz-adv-x="819" />
<glyph glyph-name="location" unicode="&#xe80d;" d="m969 401h-69c-23 182-167 326-349 349v69c0 24-3 31-23 31h-48c-22 0-31-9-31-31v-69c-182-23-327-167-350-349h-68c-24 0-31-3-31-23v-48c0-21 9-31 31-31h68c23-182 168-327 350-350v-68c0-22 9-31 31-31h48c18 0 23 6 23 31v68c182 23 326 168 349 350h69c22 0 31 9 31 31v48c0 18-6 23-31 23z m-418-352v47c0 23-3 31-23 31h-48c-22 0-31-10-31-31v-47c-128 22-229 122-250 250h47c21 0 31 10 31 31v48c0 19-6 23-31 23h-47c22 128 122 228 250 249v-46c0-21 9-31 31-31h48c18 0 23 6 23 31v46c127-21 228-122 249-249h-46c-24 0-31-4-31-23v-48c0-22 10-31 31-31h46c-21-128-122-228-249-250z m-51 460c87 0 159-72 159-159s-72-159-159-159-159 71-159 159 71 159 159 159z" horiz-adv-x="1000" />
<glyph glyph-name="maintenance" unicode="&#xe80e;" d="m898 378c-16 0-27 8-30 22-1 3-3 6-3 9l-29 86-53-280c-4-17-16-26-34-27h-17c-21 0-30 17-34 25l-1 3-71 162h-576c54-105 186-295 513-528l12 4c327 233 466 420 523 525l-200-1 0 0z m-881 72c289 0 621 0 631 0 12 0 34-6 40-24l44-104 57 325c0 3 1 4 1 7 3 9 10 22 37 22 24 0 31-12 34-23l68-203h203l0 0c37 106 14 228-71 312-55 55-128 85-200 88-34 1-204 3-285-149-82 152-251 150-285 149-73-3-145-33-200-88-88-82-111-204-74-312 0 1 0 1 0 0z" horiz-adv-x="1149" />
<glyph glyph-name="menu" unicode="&#xe80f;" d="m91 668h1091c48 0 91 43 91 91s-43 91-91 91h-1091c-49 0-91-42-91-91s42-91 91-91z m1091-636h-1091c-49 0-91-43-91-91s42-91 91-91h1091c48 0 91 42 91 91s-43 91-91 91z m0 406h-1091c-49 0-91-42-91-91s42-91 91-91h1091c48 0 91 43 91 91s-43 91-91 91z" horiz-adv-x="1273" />
<glyph glyph-name="location-1" unicode="&#xe810;" d="m969 401h-69c-23 182-167 326-349 349v69c0 24-3 31-23 31h-48c-22 0-31-9-31-31v-69c-182-23-327-167-350-349h-68c-24 0-31-3-31-23v-48c0-21 9-31 31-31h68c23-182 168-327 350-350v-68c0-22 9-31 31-31h48c18 0 23 6 23 31v68c182 23 326 168 349 350h69c22 0 31 9 31 31v48c0 18-6 23-31 23z m-418-352v47c0 23-3 31-23 31h-48c-22 0-31-10-31-31v-47c-128 22-229 122-250 250h47c21 0 31 10 31 31v48c0 19-6 23-31 23h-47c22 128 122 228 250 249v-46c0-21 9-31 31-31h48c18 0 23 6 23 31v46c127-21 228-122 249-249h-46c-24 0-31-4-31-23v-48c0-22 10-31 31-31h46c-21-128-122-228-249-250z m-51 460c87 0 159-72 159-159s-72-159-159-159-159 71-159 159 71 159 159 159z" horiz-adv-x="1000" />
<glyph glyph-name="circle" unicode="&#xe811;" d="m857 350q0-117-57-215t-156-156-215-58-216 58-155 156-58 215 58 215 155 156 216 58 215-58 156-156 57-215z" horiz-adv-x="857.1" />
<glyph glyph-name="menu-1" unicode="&#xe812;" d="m91 668h1091c48 0 91 43 91 91s-43 91-91 91h-1091c-49 0-91-42-91-91s42-91 91-91z m1091-636h-1091c-49 0-91-43-91-91s42-91 91-91h1091c48 0 91 42 91 91s-43 91-91 91z m0 406h-1091c-49 0-91-42-91-91s42-91 91-91h1091c48 0 91 43 91 91s-43 91-91 91z" horiz-adv-x="1273" />
<glyph glyph-name="message" unicode="&#xe813;" d="m0 621v-708c0-34 29-63 63-63h1183l0 0c21 0 28 30 10 41l-1213 765c-7 4-17 4-24 0-10-7-19-20-19-35z m119 208v-56c0-7 4-14 10-19l485-305c7-5 16-5 23 0l510 302c7 5 12 12 12 19v57c0 13-10 23-23 23h-997c-10 1-20-9-20-21z m1147-168l-476-284c-14-8-14-28 0-38l493-313c14-10 34 1 34 18l-7 599c-1 33-16 34-44 18z" horiz-adv-x="1317" />
<glyph glyph-name="notif" unicode="&#xe814;" d="m448-38c-60 0-116 3-166 9 9-64 77-121 159-121 81 0 149 56 160 117-43-3-94-5-153-5z m-12 53c241 0 328 36 378 64 55 31 69 65 47 88-49 49-160 110-160 417 0 146-118 266-265 266-146 0-266-119-266-266 0-307-112-369-160-417-17-17-12-41 15-66 42-35 194-86 411-86z" horiz-adv-x="870" />
<glyph glyph-name="oil" unicode="&#xe815;" d="m1853 318c-13 21-43 21-56 0-35-58-90-201-90-236 0-50 54-99 117-99s117 49 117 99c1 35-54 178-88 236z m65 248l-194 193c-1 2-1 2-2 2l-8 5c-33 31-70 16-95 3-1 0-3-1-4-3l-341-337c-13-9-23-8-33 4l-69 139c-6 5-15 10-23 10h-201c-17 0-33 14-33 33v101c0 17 14 33 33 33h51c27 0 50 23 50 51s-23 50-50 50h-267c-28 0-51-23-51-50s23-51 51-51h50c17 0 33-14 33-33v-101c0-17-14-33-33-33h-187c-9 0-18 4-24 10-1 1-2 3-4 6-143 142-359 158-483 36-124-124-109-341 36-484 73-73 161-122 254-133 16-1 29-15 29-31v-36c0-55 44-100 99-100h841c13 0 24 7 29 19l249 707c10 20 37 24 53 9l125-133c13-13 34-13 47 0l70 70c15 11 15 31 2 44z m-1515-380c0-21-21-36-41-31-52 11-104 44-147 89-91 91-107 224-36 294 50 51 130 58 203 26 12-4 19-17 19-30v-348l2 0 0 0z" horiz-adv-x="1941" />
<glyph glyph-name="open" unicode="&#xe816;" d="m673 804v-170c0-25-16-46-40-52-192-62-565-244-633-704 0-22 25-37 43-22 102 77 352 256 574 263 31 0 56-25 56-56v-145c0-34 28-56 52-40l707 441c31 19 31 65 0 84l-707 444c-24 12-52-9-52-43z" horiz-adv-x="1457" />
<glyph glyph-name="pin" unicode="&#xe817;" d="m317-131c25-19 53-29 82 3 0 0 278 301 307 579 3 16 3 29 3 45 0 196-158 354-355 354s-354-158-354-354c0-16 0-29 3-45 29-281 314-582 314-582z m37 851c127 0 228-101 228-228s-101-227-228-227-227 101-227 227c0 127 101 228 227 228z" horiz-adv-x="709" />
<glyph glyph-name="plus" unicode="&#xe818;" d="m940 410h-380v380c0 33-27 60-60 60s-60-27-60-60v-380h-380c-32 0-60-27-60-60s28-60 60-60h380v-380c0-33 27-60 60-60s60 27 60 60v380h380c33 0 60 27 60 60s-27 60-60 60z" horiz-adv-x="1000" />
<glyph glyph-name="power" unicode="&#xe819;" d="m500 850c-276 0-500-224-500-500s224-500 500-500 500 224 500 500-224 500-500 500z m-47-209c0 26 21 47 47 47s47-21 47-47v-229c0-26-21-47-47-47s-47 21-47 47v229z m259-505c-57-57-132-89-212-89s-155 32-212 89c-56 56-88 131-88 211s32 156 88 212c19 19 49 19 69 0 18-18 18-48 0-68-39-38-60-90-60-145s21-105 60-145c38-38 89-59 144-59 54 0 106 21 145 59 38 39 59 90 59 145s-21 105-59 145c-18 18-18 49 0 68 19 19 49 19 69 0 56-56 88-131 88-212 0-80-35-154-91-211z" horiz-adv-x="1000" />
<glyph glyph-name="time" unicode="&#xe81a;" d="m500-150c-276 0-500 224-500 500s224 500 500 500 500-224 500-500-224-500-500-500z m204 385l-115 141-19 248c0 24-19 46-46 46s-46-19-46-46l-21-274c-3-7-3-12-3-19v-5c0-17 20-31 39-38l146-121c17-16 46-16 65 0 17 20 17 48 0 68z" horiz-adv-x="1000" />
<glyph glyph-name="minus" unicode="&#xe81b;" d="m786 439v-107q0-22-16-38t-38-15h-678q-23 0-38 15t-16 38v107q0 23 16 38t38 16h678q22 0 38-16t16-38z" horiz-adv-x="785.7" />
<glyph glyph-name="unfave" unicode="&#xe81c;" d="m1039 472c-6 23-29 43-52 46l-280 42-127 254c-10 23-33 36-59 36-26 0-49-13-58-36l-127-254-281-42c-26-3-45-20-52-46-6-23 0-49 17-65l202-199-49-280c-4-26 6-49 26-65 10-10 26-13 39-13 10 0 19 3 29 6l251 134 251-134c10-6 19-6 29-6 13 0 26 3 39 13 20 13 29 39 26 65l-49 280 202 199c23 13 30 39 23 65z m-290-244l52-313-280 147-280-147 55 313-228 221 316 46 140 287 141-287 316-46-232-221z" horiz-adv-x="1042" />
<glyph glyph-name="voltage" unicode="&#xe81d;" d="m166 850c-12 0-25-13-38-26l-128-496c0-12 0-25 26-25h214c13 0 26-13 26-26l-51-215c0-12-13-25-38-25h-87c-13 0-13-13-13-13l166-166c13-13 26-13 38 0l167 166c12 13 12 13-13 13h-90c-12 0-25 13-12 25l115 356c0 13 0 25-13 25h-220c-13 0-26 13-13 26l115 355c0 13 0 26-13 26l-138 0 0 0z" horiz-adv-x="453" />
<glyph glyph-name="zoomin" unicode="&#xe81e;" d="m1000 331v79c0 40-4 47-46 47h-350v347c0 39-6 46-46 46h-79c-42 0-59-7-59-46v-350h-361c-39 0-59-6-59-46v-79c0-42 20-59 59-59h363v-363c0-39 20-59 59-59h79c40 0 47 17 47 59v365h349c37 0 44 20 44 59z" horiz-adv-x="1000" />
<glyph glyph-name="checkmark" unicode="&#xe820;" d="m979 829c-45 33-107 25-144-20l-489-650-173 173c-41 41-103 41-144 0-41-42-41-103 0-145l337-337 630 835c37 46 29 112-17 144z" horiz-adv-x="1016" />
<glyph glyph-name="analytics" unicode="&#xe822;" d="m458 761c-256 0-458-203-458-453 0-250 202-458 458-458 250 0 459 202 459 458h-459v453z m84 89v-458h458c0 256-202 458-458 458z" horiz-adv-x="1000" />
<glyph glyph-name="gloabe" unicode="&#xe823;" d="m455 850c-64-6-124-23-178-51-16-46-42-134-57-251-6-45-10-96-12-152h247v454l0 0z m0-545h-247c4-120 23-258 70-405 54-27 114-44 177-50v455z m408 259c7-49 12-106 13-167h123c-12 130-74 247-167 329 12-45 23-100 31-162z m-316-167h239c-1 56-6 107-12 152-16 121-43 211-59 255-52 25-109 41-168 46l0-453 0 0z m-430-92h-116c12-128 71-242 161-325-29 117-41 227-45 325z m759 0c-3-101-16-213-46-333 95 83 158 200 170 333h-124z m-91 0h-238v-454c59 5 115 21 167 45 47 149 67 288 71 409z m-668 92c2 62 7 119 13 167 8 58 18 110 28 153-88-82-146-195-158-321h117v1z" horiz-adv-x="1000" />
<glyph glyph-name="grid" unicode="&#xe824;" d="m87 415h261c48 0 87 39 87 87v261c0 48-39 87-87 87h-261c-48 0-87-39-87-87v-261c0-48 39-87 87-87z m565 0h261c48 0 87 39 87 87v261c0 48-39 87-87 87h-261c-48 0-87-39-87-87v-261c0-48 39-87 87-87z m-652-478c0-48 39-87 87-87h261c48 0 87 39 87 87v261c0 48-39 87-87 87h-261c-48 0-87-39-87-87v-261z m565 0c0-48 39-87 87-87h261c48 0 87 39 87 87v261c0 48-39 87-87 87h-261c-48 0-87-39-87-87v-261z" horiz-adv-x="1000" />
<glyph glyph-name="help" unicode="&#xe825;" d="m500-150c-276 0-500 224-500 500s224 500 500 500 500-224 500-500-228-500-500-500z m0 939c-244 0-439-199-439-439 0-244 199-439 439-439s439 199 439 439c0 244-199 439-439 439z m-49-573v32c0 13 0 29 4 37 4 12 4 20 8 33 5 8 9 20 17 28 8 8 16 20 28 28l41 37c12 8 20 20 28 33s12 28 12 44c0 25-8 41-20 57-16 16-36 25-61 25-12 0-24-5-36-9s-21-12-29-20-12-16-16-28c-4-13-8-25-8-33l-106 8c4 29 12 53 20 73 13 21 25 41 45 57 16 17 41 29 61 37s49 12 77 12c25 0 49-4 73-12 25-8 41-16 61-33 17-16 33-32 41-52s16-45 16-74c0-20-4-36-4-48-4-13-8-29-16-37-8-12-16-24-28-32-13-13-25-21-37-33-12-8-20-20-28-24-9-9-13-17-17-25s-8-16-8-24-4-21-4-33v-24h-114l0 0z m-20-122c0 20 8 37 20 49 12 12 29 20 49 20s37-8 49-20c12-12 20-29 20-49s-8-37-20-49c-12-12-29-20-49-20-8 0-16 0-28 4s-17 8-21 12c-8 4-12 12-16 20 0 13-4 25-4 33z" horiz-adv-x="1000" />
<glyph glyph-name="left" unicode="&#xe826;" d="m557 116c0 59 44 94 93 94h843c59 0 93 44 93 93v114c0 59-44 93-93 93h-843c-59-5-93 44-93 89v197c0 59-35 69-69 34l-463-428c-35-35-35-79 0-114l463-428c34-25 69-10 69 34v222z" horiz-adv-x="1586" />
<glyph glyph-name="right" unicode="&#xe827;" d="m1030-106c0-44 34-59 69-34l463 428c34 35 34 79 0 114l-463 428c-35 35-69 25-69-34v-197c0-45-35-94-94-94h-842c-50 0-94-34-94-88l0-114c0-44 35-93 94-93h842c44 0 94-35 94-94v-222z" horiz-adv-x="1586" />
<glyph glyph-name="list" unicode="&#xe828;" d="m261 99h-178c-46 0-83-37-83-83v-83c0-46 37-83 83-83h178v249z m-178 502h178v249h-178c-46 0-83-37-83-83v-83c0-46 37-83 83-83z m0-373h178v249h-178c-46 0-83-38-83-83v-83c0-50 37-83 83-83z m838 622h-543v-249h543c46 0 83 37 83 83v83c0 46-33 83-83 83z m0-373h-543v-249h543c46 0 83 37 83 83v83c0 45-33 83-83 83z m0-378h-543v-249h543c46 0 83 37 83 83v83c0 46-33 83-83 83z" horiz-adv-x="1004" />
<glyph glyph-name="locate" unicode="&#xe829;" d="m816 850h-632c-102 0-184-82-184-184v-632c0-102 82-184 184-184h632c102 0 184 82 184 184v632c4 102-78 184-184 184z m-53-233l-269-567c-4-8-8-4-12 0l-66 212c0 4-8 13-12 13l-208 65c-16 4-16 12-4 16l563 270c4 0 12 4 8-9z" horiz-adv-x="1000" />
<glyph glyph-name="profile" unicode="&#xe82a;" d="m500 663c0 100-87 187-187 187s-188-87-188-187 88-188 188-188 187 88 187 188z m-187-250c-166 0-313-179-313-397s625-219 625 0-147 397-312 397z" horiz-adv-x="625" />
<glyph glyph-name="save" unicode="&#xe82b;" d="m1071 850h-1000c-39 0-71-32-71-71v-143h1143v143c0 39-32 71-72 71z m-1000-929c0-39 33-71 72-71h857c39 0 71 32 71 71v643h-1000v-643z m358 500h285c40 0 72-32 72-71s-32-71-72-71h-285c-40 0-72 32-72 71s32 71 72 71z" horiz-adv-x="1143" />
<glyph glyph-name="search" unicode="&#xe82c;" d="m681 733c-156 155-408 155-564 0s-155-408 0-564 408-155 564 0 155 408 0 564z m-80-483c-112-112-292-112-404 0-111 111-111 291 0 403 112 111 292 111 404 0 110-112 110-292 0-403z m90-185c-13 13-13 34 0 46l48 48c13 13 33 13 46 0l203-206c13-12 13-33 0-46l-47-48c-13-13-34-13-47 0l-203 206z" horiz-adv-x="998" />
<glyph glyph-name="settings" unicode="&#xe82d;" d="m860 456c-9 28-18 52-31 77l62 131c-21 28-49 56-77 77l-131-62c-25 13-49 25-77 31l-50 137c-19 3-37 3-56 3s-37 0-56-3l-50-137c-27-9-52-18-77-31l-131 62c-28-21-56-49-77-77l62-131c-13-25-25-49-31-77l-137-50c-3-19-3-37-3-56 0-19 0-37 3-56l137-50c9-27 18-52 31-77l-62-131c21-28 49-56 77-77l131 62c25-13 50-25 77-31l50-137c19-3 37-3 56-3s37 0 56 3l50 137c28 9 52 18 77 31l131-62c28 21 56 49 77 77l-62 131c13 25 25 50 31 77l137 50c3 19 3 37 3 56 0 19 0 37-3 56l-137 50z m-357-351c-136 0-248 112-248 248s112 249 248 249 249-112 249-249c0-136-112-248-249-248z m-124 248c0-68 56-124 124-124s124 56 124 124-56 124-124 124-124-56-124-124z" horiz-adv-x="1000" />
<glyph glyph-name="speed" unicode="&#xe82e;" d="m827 117c73 0 133-60 133-134s-60-133-133-133-134 60-134 133 60 134 134 134z m0 733c-490 0-827-396-827-887h584c0 134 109 244 243 244 4 0 8 0 12 0 65 109 161 269 201 334 18 30 14-4 14-4l-56-402c44-44 70-104 70-172h587c2 491-338 887-828 887z" horiz-adv-x="1655" />
<glyph glyph-name="stopwatch" unicode="&#xe82f;" d="m489 732v16c0 5 4 11 10 12l94 21c5 1 10 6 10 11v48c0 5-4 10-10 10h-303c-5 0-9-5-9-10v-48c0-5 4-10 9-11l96-20c5-1 10-7 10-12v-16c-223-24-396-212-396-440 0-245 198-443 443-443s443 198 443 443c-2 228-175 415-397 439z m86-576c-13-13-32-13-45-2l-114 95c-2 2-3 3-5 5-10 10-14 21-14 33 1 3 1 3 1 3v1l0 0c0 2 0 3 0 4l14 202c0 1 0 2 0 3 2 17 16 29 33 29s31-13 33-30l12-184c0-5 3-10 6-14l82-98c0-1 1-1 1-2v-1c10-13 9-32-4-44z" horiz-adv-x="886" />
<glyph glyph-name="switch" unicode="&#xe830;" d="m1899 350c0-275-225-500-500-500h-893c-3 0-6 0-6 0-275 0-500 225-500 500s222 500 500 500c3 0 6 0 6 0h893c275 0 500-225 500-500z m-1092 0c0 82-32 158-89 218-57 57-136 89-218 89s-158-32-215-89c-60-60-89-136-89-218s29-158 89-218c57-57 136-89 215-89 82 0 161 32 218 89 57 60 89 136 89 218z" horiz-adv-x="1899" />
</font>
</defs>
</svg>
