<?xml version="1.0" standalone="no"?>
<!DOCTYPE svg PUBLIC "-//W3C//DTD SVG 20010904//EN"
 "http://www.w3.org/TR/2001/REC-SVG-20010904/DTD/svg10.dtd">
<svg version="1.0" xmlns="http://www.w3.org/2000/svg"
 width="270.000000pt" height="270.000000pt" viewBox="0 0 270.000000 270.000000"
 preserveAspectRatio="xMidYMid meet">
<metadata>
Created by potrace 1.11, written by Peter Selinger 2001-2013
</metadata>
<g transform="translate(0.000000,270.000000) scale(0.100000,-0.100000)"
fill="#000000" stroke="none">
<path d="M1185 2342 c-188 -49 -329 -170 -397 -342 -29 -74 -44 -123 -98 -331
-52 -197 -93 -274 -156 -293 -25 -7 -61 23 -70 60 -28 112 110 306 173 243 9
-9 14 0 23 32 6 24 13 52 16 61 3 9 6 25 8 35 2 10 7 30 11 46 6 23 4 27 -14
27 -72 0 -180 -107 -246 -244 -78 -163 -104 -309 -69 -394 29 -74 79 -107 385
-250 142 -66 197 -112 221 -183 31 -93 1 -180 -75 -218 -43 -21 -53 -22 -87
-12 -71 21 -140 123 -140 206 0 54 23 106 58 133 l34 26 -92 43 c-50 24 -98
43 -104 43 -30 0 -64 -134 -60 -233 5 -124 63 -255 154 -347 143 -146 330
-159 466 -33 61 57 86 90 187 248 240 378 358 482 502 444 52 -14 119 -82 134
-134 40 -145 -36 -266 -175 -278 -100 -9 -184 49 -221 152 -10 28 -20 51 -23
51 -8 0 -180 -245 -180 -256 0 -13 58 -73 110 -115 124 -101 283 -136 426 -94
254 73 412 340 349 586 -31 119 -105 246 -244 418 -42 51 -111 136 -154 190
-123 150 -151 222 -120 301 26 66 70 97 149 103 32 3 66 -2 98 -14 84 -31 128
-88 128 -165 0 -97 -73 -156 -193 -155 l-72 0 20 -22 c11 -12 57 -67 103 -122
45 -55 86 -104 91 -109 22 -23 178 77 235 152 48 63 64 105 71 183 4 46 1 83
-11 125 -60 209 -303 348 -541 309 -65 -11 -262 -63 -375 -100 -304 -98 -390
-113 -424 -76 -60 66 75 203 202 205 78 1 102 -34 77 -115 -6 -17 -4 -21 8
-16 9 3 68 22 132 42 88 28 115 40 115 53 -1 34 -38 100 -71 122 -45 32 -173
38 -274 12z m248 -484 c-2 -99 40 -193 170 -374 l64 -89 -51 -13 c-123 -31
-249 -145 -381 -344 l-38 -58 -71 74 c-84 87 -165 141 -286 192 l-89 36 26 52
c40 78 71 179 99 316 34 166 33 162 37 166 2 2 19 -1 37 -6 67 -19 181 4 400
80 47 16 85 30 85 30 0 0 -1 -28 -2 -62z"/>
</g>
</svg>
