<?xml version="1.0" standalone="no"?>
<!DOCTYPE svg PUBLIC "-//W3C//DTD SVG 20010904//EN"
 "http://www.w3.org/TR/2001/REC-SVG-20010904/DTD/svg10.dtd">
<svg version="1.0" xmlns="http://www.w3.org/2000/svg"
 width="500.000000pt" height="500.000000pt" viewBox="0 0 500.000000 500.000000"
 preserveAspectRatio="xMidYMid meet">
<metadata>
Created by potrace 1.11, written by Peter Selinger 2001-2013
</metadata>
<g transform="translate(0.000000,500.000000) scale(0.100000,-0.100000)"
fill="#000000" stroke="none">
<path d="M1940 4335 l0 -555 555 0 555 0 0 555 0 555 -555 0 -555 0 0 -555z"/>
<path d="M1940 3115 l0 -555 555 0 555 0 0 555 0 555 -555 0 -555 0 0 -555z"/>
<path d="M720 1895 l0 -555 555 0 555 0 0 555 0 555 -555 0 -555 0 0 -555z"/>
<path d="M1940 1895 l0 -555 555 0 555 0 0 555 0 555 -555 0 -555 0 0 -555z"/>
<path d="M720 675 l0 -555 555 0 555 0 0 555 0 555 -555 0 -555 0 0 -555z"/>
<path d="M1940 675 l0 -555 555 0 555 0 0 555 0 555 -555 0 -555 0 0 -555z"/>
<path d="M3160 675 l0 -555 555 0 555 0 0 555 0 555 -555 0 -555 0 0 -555z"/>
</g>
</svg>
