<?xml version="1.0" standalone="no"?>
<!DOCTYPE svg PUBLIC "-//W3C//DTD SVG 20010904//EN"
 "http://www.w3.org/TR/2001/REC-SVG-20010904/DTD/svg10.dtd">
<svg version="1.0" xmlns="http://www.w3.org/2000/svg"
 width="350.000000pt" height="350.000000pt" viewBox="0 0 350.000000 350.000000"
 preserveAspectRatio="xMidYMid meet">
<metadata>
Created by potrace 1.11, written by Peter Selinger 2001-2013
</metadata>
<g transform="translate(0.000000,350.000000) scale(0.100000,-0.100000)"
fill="#000000" stroke="none">
<path d="M0 2185 l0 -1315 28 6 c15 4 146 47 292 96 146 49 288 96 315 105 50
15 87 29 115 43 31 14 42 61 44 172 1 124 -3 132 -69 123 -38 -5 -43 -2 -97
51 -34 33 -58 65 -58 77 0 11 -5 35 -12 54 -10 27 -9 38 5 68 9 20 17 44 17
54 0 9 13 35 30 57 16 21 30 45 30 52 0 6 10 12 23 12 25 0 65 24 85 52 7 10
21 18 31 18 10 0 26 9 36 20 32 35 79 26 133 -24 26 -24 62 -51 79 -60 20 -10
39 -31 48 -52 8 -20 26 -49 39 -65 21 -24 24 -34 16 -55 -6 -14 -8 -35 -4 -48
4 -16 -3 -31 -25 -54 -17 -17 -31 -37 -31 -42 0 -6 -23 -33 -52 -61 -39 -37
-59 -49 -83 -49 -49 0 -55 -13 -55 -131 0 -89 3 -108 16 -113 9 -3 75 13 148
37 72 24 165 54 206 66 41 13 83 27 92 32 10 5 29 9 42 9 14 0 28 5 31 10 3 6
19 10 36 10 44 0 65 29 80 111 16 89 18 254 4 268 -8 7 -26 5 -62 -9 l-51 -19
-38 29 c-24 18 -51 30 -71 30 -23 0 -40 10 -65 35 -18 20 -52 46 -76 57 -46
23 -60 42 -81 103 -8 22 -31 57 -52 77 -37 36 -38 38 -43 130 -3 51 -8 116
-11 144 -7 51 -6 52 34 84 40 33 81 103 81 140 0 32 63 92 137 129 87 44 111
63 144 112 28 42 87 89 113 89 8 0 18 5 21 10 3 6 36 10 73 10 69 0 105 -14
155 -60 11 -11 31 -20 44 -20 46 0 93 -28 108 -64 19 -46 60 -66 130 -66 69 0
98 -18 115 -71 8 -25 30 -54 54 -75 51 -44 65 -69 66 -118 0 -22 5 -55 12 -73
10 -28 17 -33 38 -31 22 3 42 28 63 83 2 6 26 10 53 10 46 0 50 2 63 32 9 21
27 37 51 47 20 8 42 21 49 30 37 45 131 23 188 -44 19 -22 39 -40 44 -40 6 0
31 -14 55 -31 31 -21 47 -40 51 -60 3 -16 20 -45 38 -64 31 -35 32 -37 27
-112 -4 -69 -8 -79 -33 -101 -16 -13 -29 -30 -29 -37 0 -8 -17 -28 -39 -45
-21 -17 -44 -42 -51 -55 -16 -29 -75 -55 -120 -52 l-35 2 -3 -53 c-4 -74 15
-160 36 -164 9 -2 71 5 137 15 179 27 305 41 568 63 l77 7 0 888 0 889 -1750
0 -1750 0 0 -1315z"/>
<path d="M2201 1870 c-45 -44 -89 -80 -97 -80 -8 0 -28 -14 -44 -30 -29 -29
-33 -30 -107 -28 -60 2 -87 -1 -117 -16 -30 -14 -50 -17 -91 -11 -41 5 -54 3
-58 -8 -10 -26 5 -247 19 -264 11 -16 21 -15 146 16 73 19 151 38 173 43 22 5
58 13 80 19 22 6 60 14 85 19 25 5 68 14 95 20 56 12 110 23 205 40 35 6 69
15 76 21 12 10 34 126 34 179 0 27 -6 34 -44 51 -33 14 -56 18 -86 13 -38 -6
-44 -4 -99 45 -33 28 -66 51 -74 51 -8 0 -52 -36 -96 -80z"/>
<path d="M3310 1284 c-96 -7 -211 -17 -255 -23 -152 -19 -310 -41 -365 -52
-30 -6 -77 -14 -105 -19 -447 -83 -943 -224 -1610 -458 -159 -56 -324 -116
-607 -222 -29 -10 -123 -44 -208 -74 l-155 -54 -3 -126 c-3 -145 -10 -138 103
-105 87 24 618 159 740 187 171 40 410 91 520 112 61 11 128 25 150 30 22 5
96 18 165 30 69 11 150 25 180 30 382 67 950 122 1413 136 l227 7 0 309 c0
169 -3 307 -7 307 -5 -1 -87 -8 -183 -15z"/>
</g>
</svg>
