<?xml version="1.0" standalone="no"?>
<!DOCTYPE svg PUBLIC "-//W3C//DTD SVG 20010904//EN"
 "http://www.w3.org/TR/2001/REC-SVG-20010904/DTD/svg10.dtd">
<svg version="1.0" xmlns="http://www.w3.org/2000/svg"
 width="90.000000pt" height="90.000000pt" viewBox="0 0 90.000000 90.000000"
 preserveAspectRatio="xMidYMid meet">
<metadata>
Created by potrace 1.11, written by Peter Selinger 2001-2013
</metadata>
<g transform="translate(0.000000,90.000000) scale(0.100000,-0.100000)"
fill="#000000" stroke="none">
<path d="M505 750 c-22 -11 -51 -36 -64 -55 -26 -38 -20 -63 7 -30 48 59 107
71 147 30 34 -33 33 -79 -2 -114 -23 -22 -111 -65 -195 -94 -10 -4 -18 -13
-18 -22 0 -14 3 -14 32 1 47 24 113 14 150 -23 59 -59 29 -174 -60 -233 -44
-29 -69 -39 -150 -60 -57 -15 -44 -32 20 -25 62 8 140 36 199 74 47 30 108
110 110 145 6 90 -16 138 -73 163 l-37 16 44 28 c73 46 98 104 70 159 -30 58
-109 75 -180 40z"/>
<path d="M295 748 c-30 -17 -44 -40 -45 -69 0 -60 67 -62 102 -4 14 25 15 34
5 55 -14 29 -34 34 -62 18z"/>
<path d="M766 744 c-5 -14 -4 -15 9 -4 17 14 19 20 6 20 -5 0 -12 -7 -15 -16z"/>
<path d="M797 743 c-4 -3 -7 -13 -7 -22 1 -13 3 -13 11 2 11 19 8 33 -4 20z"/>
<path d="M816 734 c-3 -9 -4 -19 -1 -22 3 -3 5 1 5 9 0 11 2 11 10 -1 5 -8 10
-10 10 -5 0 6 -4 16 -9 23 -6 11 -10 10 -15 -4z"/>
<path d="M250 520 c-66 -18 -184 -100 -163 -113 5 -3 26 5 46 18 72 49 71 34
-5 -119 -81 -163 -83 -183 -16 -172 71 11 214 102 180 114 -7 2 -21 -3 -30
-11 -23 -20 -83 -50 -89 -44 -2 3 28 68 66 146 39 77 71 147 71 156 0 20 -31
33 -60 25z"/>
</g>
</svg>
