<?xml version="1.0" standalone="no"?>
<!DOCTYPE svg PUBLIC "-//W3C//DTD SVG 1.1//EN" "http://www.w3.org/Graphics/SVG/1.1/DTD/svg11.dtd" >
<svg xmlns="http://www.w3.org/2000/svg">
<metadata>
<json>
{
	"fontFamily": "ASC_Icons_InfinitiPriceTool",
	"majorVersion": 1,
	"minorVersion": 0,
	"version": "Version 1.0",
	"fontId": "ASC_Icons_InfinitiPriceTool",
	"psName": "ASC_Icons_InfinitiPriceTool",
	"subFamily": "Regular",
	"fullName": "ASC_Icons_InfinitiPriceTool",
	"description": "Font generated by IcoMoon."
}
</json>
</metadata>
<defs>
<font id="ASC_Icons_InfinitiPriceTool" horiz-adv-x="1024">
<font-face units-per-em="1024" ascent="960" descent="-64" />
<missing-glyph horiz-adv-x="1024" />
<glyph unicode="&#x20;" d="" horiz-adv-x="512" />
<glyph unicode="&#xe000;" d="M0-0.042l512 896.084 512-896.086-1024 0.002zM512 127.914c35.392 0 64 28.63 64 64.022 0 35.37-28.63 64.022-64 64.022-35.414 0-64-28.65-64-64.022 0-35.392 28.586-64.022 64-64.022zM576.022 640.042h-128.022v-320.086h128.022v320.086z" data-tags="warning" />
<glyph unicode="&#xe003;" d="M708.928 526.678c0 75.926-26.922 140.886-80.896 194.774-53.974 53.974-118.848 80.918-194.752 80.918s-140.778-26.944-194.752-80.918c-53.91-53.888-80.896-118.848-80.896-194.774 0-75.862 26.986-140.822 80.896-194.73 53.974-53.91 118.848-80.96 194.752-80.96 75.926 0 140.8 27.050 194.752 80.96s80.896 118.89 80.896 194.73zM1024 14.742c0-21.27-7.808-39.766-23.424-55.402-15.594-15.596-34.026-23.34-55.446-23.34-22.080 0-40.512 7.808-55.318 23.36l-211.050 210.454c-73.494-50.816-155.328-76.246-245.632-76.246-58.666 0-114.73 11.37-168.234 34.198-53.568 22.806-99.734 53.526-138.496 92.288-38.762 38.742-69.44 84.886-92.202 138.432-22.742 53.568-34.198 109.632-34.198 168.32-0.064 58.624 11.306 114.688 34.198 168.278 22.742 53.59 53.568 99.754 92.202 138.432 38.762 38.762 84.864 69.546 138.496 92.288 53.568 22.826 109.696 34.196 168.234 34.196 58.56 0 114.666-11.37 168.384-34.198 53.568-22.742 99.734-53.526 138.368-92.288 38.762-38.678 69.44-84.864 92.33-138.432 22.742-53.59 34.198-109.654 34.198-168.278 0-90.24-25.43-172.096-76.31-245.61l211.050-211.114c15.21-15.082 22.742-33.6 22.742-55.338h0.108z" data-tags="search" />
<glyph unicode="&#xe004;" d="M546.922 145.45v-104.726h69.802l-104.724-104.724-104.726 104.726h69.802v104.726l69.846-0.002zM477.098 750.55v104.724h-69.802l104.704 104.726 104.726-104.726h-69.802v-104.726l-69.826 0.002zM751.382 308.374v-39.914c0-5.376-1.984-10.070-5.91-14.016-3.946-3.946-8.618-5.93-14.016-5.93l-438.87-0.002c-5.398 0-10.090 1.984-14.038 5.93-3.946 3.946-5.91 8.618-5.91 14.016v39.914c0 5.398 1.984 10.070 5.91 14.016 3.946 3.968 8.618 5.91 14.038 5.91h438.848c5.398 0 10.070-1.962 14.016-5.91 3.948-3.966 5.932-8.618 5.932-14.014zM751.382 467.946v-39.914c0-5.398-1.984-10.070-5.91-14.016-3.946-3.946-8.618-5.93-14.016-5.93h-438.87c-5.398 0-10.090 1.984-14.038 5.93-3.946 3.968-5.91 8.618-5.91 14.016v39.914c0 5.398 1.984 10.070 5.91 14.016 3.946 3.946 8.618 5.91 14.038 5.91h438.848c5.398 0 10.070-1.962 14.016-5.91 3.948-3.946 5.932-8.618 5.932-14.016zM751.382 627.542v-39.914c0-5.398-1.984-10.070-5.91-14.016-3.946-3.946-8.618-5.91-14.016-5.91h-438.87c-5.398 0-10.090 1.962-14.038 5.91-3.946 3.946-5.91 8.618-5.91 14.016v39.914c0 5.398 1.984 10.070 5.91 14.016 3.946 3.968 8.618 5.93 14.038 5.93h438.848c5.398 0 10.070-1.962 14.016-5.93 3.948-3.948 5.932-8.62 5.932-14.016z" data-tags="reorder" />
<glyph unicode="&#xe006;" d="M512 960c92.928 0 178.56-22.912 257.002-68.672 78.442-45.782 140.522-107.926 186.368-186.346 45.718-78.464 68.63-164.076 68.63-256.96 0-92.864-22.912-178.538-68.63-257.002-45.824-78.422-107.926-140.502-186.368-186.326-78.42-45.76-164.074-68.694-257.002-68.694s-178.56 22.912-257.002 68.694c-78.442 45.824-140.522 107.926-186.304 186.326-45.76 78.462-68.694 164.158-68.694 257.002 0 92.886 22.912 178.474 68.694 256.938 45.782 78.442 107.862 140.566 186.304 186.346 78.442 45.76 164.096 68.694 257.002 68.694zM597.376 128.79v126.678c0 6.166-2.154 11.414-6.038 15.68-3.904 4.224-8.81 6.294-14.614 6.294h-127.936c-5.802 0-10.902-2.154-15.296-6.614-4.458-4.48-6.678-9.578-6.678-15.296v-126.55c0-5.866 2.218-10.966 6.678-15.382 4.416-4.458 9.494-6.678 15.296-6.678h127.936c5.782 0 10.688 2.218 14.614 6.422 3.904 4.202 6.038 9.366 6.038 15.616v-0.17zM596.010 358.144l11.968 413.93c0 5.354-2.134 9.322-6.55 12.010-4.522 3.52-9.706 5.354-16 5.354h-146.646c-6.23 0-11.52-1.834-16-5.354-4.458-2.71-6.614-6.678-6.614-12.010l11.328-413.93c0-4.352 2.198-8.32 6.678-11.648 4.416-3.328 9.706-4.97 15.936-4.97h123.35c6.294 0 11.456 1.642 15.744 4.97 4.16 3.328 6.55 7.296 6.934 11.648h-0.128z" data-tags="pending-release" />
<glyph unicode="&#xe008;" d="M505.28 959.958c-282.858-3.734-509.034-236.096-505.238-518.848 3.67-282.56 236.096-508.8 518.806-505.066 282.71 3.818 508.97 236.138 505.088 518.848-3.498 282.708-235.946 508.926-518.656 505.066zM503.786 136.342h-2.858c-43.562 1.28-74.198 33.408-73.024 76.352 1.302 42.134 32.682 72.768 74.794 72.768l2.582-0.086c44.714-1.344 75.136-33.152 73.77-77.248-1.216-42.176-32.192-71.786-75.264-71.786zM686.954 499.946c-10.262-14.55-32.746-32.682-61.142-54.678l-31.254-21.61c-17.11-13.334-27.52-25.898-31.382-38.122-3.114-9.856-4.544-12.352-4.822-32.064l-0.064-5.162h-119.25l0.342 10.134c1.494 41.494 2.518 65.898 19.712 86.144 26.966 31.658 86.55 69.974 89.002 71.594 8.554 6.528 15.766 13.782 21.056 21.61 12.566 17.258 18.070 30.848 18.070 44.16 0 18.474-5.504 35.67-16.298 50.966-10.474 14.72-30.378 22.144-59.114 22.144-28.522 0-47.978-9.046-59.648-27.584-12.096-19.158-18.134-39.146-18.134-59.67v-5.142h-123.050l0.278 5.354c3.2 75.35 30.038 129.558 79.914 161.302 31.318 20.246 70.25 30.378 115.712 30.378 59.456 0 109.782-14.486 149.27-43.008 40.086-28.822 60.458-72.17 60.458-128.618-0.024-31.616-10.008-61.226-29.656-88.128z" data-tags="help" />
<glyph unicode="&#xe009;" d="M768 150.998h-665.558v460.884h132.822c0 0 35.306 45.866 111.126 102.378l-295.126 0.002c-28.31-0.022-51.264-22.892-51.264-51.264v-563.114c0-28.246 22.934-51.242 51.242-51.242h768c28.246 0 51.114 22.998 51.114 51.242l0.002 191.742-102.358-84.116v-56.512zM684.138 506.88v-181.76l339.862 266.39-339.862 255.872v-160.256c-412.758-0.128-412.758-408.128-412.758-408.128 116.886 191.872 188.758 227.882 412.758 227.882z" data-tags="export" />
<glyph unicode="&#xe00a;" d="M881.536 802.368c-195.69 204.096-519.808 210.902-723.904 15.19-204.096-195.754-210.88-519.872-15.146-723.946 195.69-204.054 519.808-210.88 723.926-15.19 204.074 195.776 210.858 519.892 15.124 723.946zM790.358 303.318c9.258-9.13 13.824-20.246 13.824-33.366s-4.586-24.256-13.824-33.494l-66.794-66.88c-9.152-9.13-20.394-13.76-33.514-13.76-13.098 0-24.214 4.63-33.366 13.76l-144.684 144.62-144.618-144.618c-9.194-9.13-20.31-13.76-33.408-13.76-13.12 0-24.278 4.63-33.494 13.76l-66.902 66.88c-9.13 9.258-13.76 20.374-13.76 33.494s4.63 24.256 13.76 33.366l144.662 144.618-144.662 144.682c-9.13 9.194-13.76 20.31-13.76 33.43s4.63 24.32 13.76 33.494l66.902 66.88c9.216 9.13 20.374 13.76 33.494 13.76 13.098 0 24.214-4.63 33.408-13.76l144.618-144.622 144.662 144.618c9.152 9.13 20.288 13.76 33.366 13.76 13.12 0 24.384-4.63 33.514-13.76l66.794-66.88c9.258-9.194 13.824-20.374 13.824-33.494s-4.586-24.256-13.824-33.43l-144.534-144.682 144.556-144.616z" data-tags="error" />
<glyph unicode="&#xe00b;" d="M896-64h-768c-70.678 0-128 57.366-128 128v768c0 70.634 57.322 128 128 128h576l-128-128h-384c-35.37 0-64-28.694-64-64v-640c0-35.37 28.63-64 64-64h640c35.37 0 64 28.63 64 64v384l128 128v-576c0-70.634-57.366-128-128-128zM896 832l-64 64v64c0 0 192 2.006 192-192h-64l-64 64zM320 256v192h64l128-128v-64h-192zM896 704l-320-320-128 128 320 320 128-128z" data-tags="edit" />
<glyph unicode="&#xe00d;" d="M933.875 190.867c0-18.861-6.626-34.997-19.952-48.376l-96.47-96.503c-13.218-13.218-29.424-19.863-48.392-19.863-18.932 0-34.944 6.644-48.165 19.863l-208.897 208.793-208.776-208.793c-13.324-13.218-29.392-19.863-48.27-19.863-18.966 0-35.034 6.644-48.305 19.863l-96.628 96.503c-13.2 13.378-19.898 29.514-19.898 48.376 0 18.966 6.679 35.034 19.899 48.252l208.828 208.847-208.811 208.863c-13.218 13.27-19.915 29.339-19.915 48.305 0 18.861 6.679 35.050 19.899 48.27l96.628 96.557c13.27 13.289 29.337 19.915 48.303 19.915 18.861 0 34.944-6.626 48.27-19.915l208.776-208.793 208.899 208.793c13.218 13.289 29.231 19.915 48.163 19.915 18.966 0 35.192-6.626 48.411-19.915l96.47-96.557c13.308-13.22 19.933-29.409 19.933-48.27 0-18.966-6.626-35.034-19.952-48.305l-208.723-208.863 208.741-208.847c13.308-13.218 19.933-29.286 19.933-48.252z" data-tags="delete" />
<glyph unicode="&#xe00e;" d="M856.022 555.926c0 12.458-4.032 22.678-12.032 30.698l-60.694 60.010c-8.448 8.49-18.518 12.736-30.038 12.736s-21.61-4.224-30.038-12.736l-271.914-271.296-150.72 150.678c-8.448 8.448-18.39 12.672-29.974 12.672s-21.526-4.224-29.974-12.672l-60.694-60.010c-8.042-8.064-12.074-18.24-12.074-30.72 0-11.968 4.032-22.016 12.074-30.016l241.28-241.344c8.448-8.448 18.454-12.672 29.974-12.672 12.032 0 22.294 4.202 30.72 12.672l361.898 362.026c8.064 7.978 12.032 18.026 12.032 29.974h0.174zM1024 448c0-92.928-22.912-178.582-68.694-256.96-45.782-78.464-107.926-140.586-186.368-186.368-78.356-45.76-164.116-68.672-256.938-68.672-92.928 0-178.56 22.912-257.002 68.672-78.442 45.782-140.522 107.926-186.368 186.368-45.76 78.378-68.63 164.032-68.63 256.96 0 92.864 22.848 178.538 68.63 256.938 45.824 78.442 107.926 140.608 186.368 186.346 78.442 45.804 164.096 68.716 257.002 68.716 92.8 0 178.56-22.912 256.938-68.714 78.442-45.76 140.586-107.926 186.368-186.346 45.782-78.402 68.694-164.076 68.694-256.94z" data-tags="complete" />
<glyph unicode="&#xe00f;" d="M1024 672.086c0 18.56-5.994 33.728-17.898 45.738l-90.304 89.302c-12.544 12.628-27.542 18.9-44.694 18.9s-32.128-6.272-44.694-18.922l-404.628-403.69-224.278 224.17c-12.544 12.566-27.35 18.838-44.586 18.838s-32.042-6.272-44.586-18.838l-90.304-89.28c-12.012-11.99-18.028-27.158-18.028-45.718 0-17.792 5.994-32.79 17.984-44.694l359.018-359.104c12.544-12.544 27.456-18.838 44.586-18.838 17.898 0 33.174 6.294 45.718 18.838l538.518 538.71c11.99 11.904 17.898 26.794 17.898 44.586l0.278 0.002z" data-tags="checkmark" />
<glyph unicode="&#xe010;" d="M502.422 896l251.712-418.218c0 0-96.662 121.536-386.624 184.704l134.912 233.514zM178.006 694.080l193.302-64.128c0 0 246.912-73.686 226.816-246.912 0 0 4.8-127.274-184.704-222.976-189.462-95.702-324.418-117.718-413.42-131.094l312 538.774c0 0 18.176 22.976-7.658 47.85l-126.336 78.486zM830.678 348.586l193.322-322.496h-331.114c0 0 202.88 70.806 137.792 322.496v0z" data-tags="ASC" />
<glyph unicode="&#xe01e;" d="M880.896 429.334c-12.458 12.436-27.562 18.666-45.334 18.666h-490.666v213.334c0 47.126 16.682 87.338 50.006 120.662s73.556 50.004 120.66 50.004c47.104 0 87.318-16.662 120.662-50.006s50.006-73.558 50.006-120.662c0-11.562 4.224-21.546 12.65-29.994 8.47-8.448 18.454-12.672 30.016-12.672h42.666c11.562 0 21.568 4.224 30.016 12.672s12.65 18.454 12.65 29.994c0 82.218-29.206 152.554-87.658 211.008-58.452 58.434-128.788 87.66-211.008 87.66s-152.534-29.226-211.008-87.658c-58.432-58.432-87.658-128.79-87.658-211.008v-213.334h-21.334c-17.77 0-32.896-6.23-45.334-18.666-12.458-12.438-18.666-27.564-18.666-45.334v-384.022c0-17.77 6.23-32.874 18.666-45.334 12.438-12.414 27.542-18.644 45.334-18.644h640c17.77 0 32.896 6.23 45.334 18.666 12.438 12.438 18.666 27.562 18.666 45.334v384c0 17.77-6.228 32.896-18.666 45.334zM433.792 80.64l48.128 98.432c-20.182 11.69-33.92 33.258-33.92 58.262 0 37.312 30.23 67.562 67.562 67.562s67.562-30.23 67.562-67.562c0-25.066-13.802-46.698-34.090-58.346l48.3-98.604-163.542 0.256z" data-tags="unlocked" />
<glyph unicode="&#xe01f;" d="M880.896 429.334c-12.458 12.436-27.562 18.666-45.334 18.666h-22.186c0.17 39.68 0.854 203.178 0.854 213.334 0 82.218-29.206 152.554-87.658 211.008-58.454 58.432-128.79 87.658-211.010 87.658s-152.534-29.226-211.008-87.658c-58.432-58.432-87.658-128.79-87.658-211.008v-213.334h-21.334c-17.77 0-32.896-6.23-45.334-18.666-12.458-12.438-18.666-27.564-18.666-45.334v-384.022c0-17.77 6.23-32.874 18.666-45.334 12.438-12.414 27.542-18.644 45.334-18.644h640c17.77 0 32.896 6.23 45.334 18.666 12.438 12.438 18.666 27.562 18.666 45.334v384c0 17.77-6.228 32.896-18.666 45.334zM344.896 661.334c0 47.126 16.682 87.338 50.006 120.662s73.556 50.004 120.66 50.004c47.104 0 87.318-16.662 120.662-50.006s50.006-73.558 50.006-120.662c0-10.154-0.704-173.654-0.874-213.334h-340.48l-0.002 213.336zM433.792 80.64l48.128 98.432c-20.182 11.69-33.92 33.258-33.92 58.262 0 37.312 30.23 67.562 67.562 67.562s67.562-30.23 67.562-67.562c0-25.066-13.802-46.698-34.090-58.346l48.3-98.604-163.542 0.256z" data-tags="locked" />
<glyph unicode="&#xe47d;" d="M192 896v-768h768v768h-768zM896 192h-640v640h640v-640zM128 64v672l-64 64v-800h800l-64 64h-672zM352 704l160-160-192-192 96-96 192 192 160-160v416z" data-tags="new-tab, out, external, outside, popout, link, blank" />
<glyph unicode="&#xe600;" d="M512 960c-278.748 0-505.458-222.762-511.848-499.974 5.92 241.864 189.832 435.974 415.848 435.974 229.75 0 416-200.576 416-448 0-53.020 42.98-96 96-96s96 42.98 96 96c0 282.77-229.23 512-512 512zM512-64c278.748 0 505.458 222.762 511.848 499.974-5.92-241.864-189.832-435.974-415.848-435.974-229.75 0-416 200.576-416 448 0 53.020-42.98 96-96 96s-96-42.98-96-96c0-282.77 229.23-512 512-512z" data-tags="spinner, loading, loading-wheel, busy, wait" />
<glyph unicode="&#xe601;" d="M832 960h-128v-128h128v128zM960 960h-64v-192h-256v192h-256v-192h-256v192h-64c-35.376 0-64-28.656-64-64v-896c0-35.376 28.624-64 64-64h896c35.376 0 64 28.624 64 64v896c0 35.344-28.624 64-64 64zM896 64h-768v576h768v-576zM320 960h-128v-128h128v128zM576 512h-128v-128h128v128zM768 512h-128v-128h128v128zM384 320h-128v-128h128v128zM384 512h-128v-128h128v128zM576 320h-128v-128h128v128zM768 320h-128v-128h128v128z" data-tags="calendar, date, schedule, time" />
<glyph unicode="&#xe602;" d="M969.143 740.571q22.857 0 38.857-16t16-38.857v-694.857q0-22.857-16-38.857t-38.857-16h-548.571q-22.857 0-38.857 16t-16 38.857v164.571h-310.857q-22.857 0-38.857 16t-16 38.857v384q0 22.857 11.429 50.286t27.429 43.429l233.143 233.143q16 16 43.429 27.429t50.286 11.429h237.714q22.857 0 38.857-16t16-38.857v-187.429q38.857 22.857 73.143 22.857h237.714zM658.286 618.857l-170.857-170.857h170.857v170.857zM292.571 838.286l-170.857-170.857h170.857v170.857zM404.571 468.571l180.571 180.571v237.714h-219.429v-237.714q0-22.857-16-38.857t-38.857-16h-237.714v-365.714h292.571v146.286q0 22.857 11.429 50.286t27.429 43.429zM950.857 9.143v658.286h-219.429v-237.714q0-22.857-16-38.857t-38.857-16h-237.714v-365.714h512z" data-tags="copy, files-o" />
<glyph unicode="&#xe603;" d="M655.461 486.531c11.875-81.719-13.062-167.781-76.812-230.594-94.188-92.938-239.5-104.375-346.375-34.562l74.875 73-275.189 38.375 38.407-268.75 84.031 80.5c150.907-111.25 364.938-100.75 502.063 34.562 79.5 78.438 115.75 182.562 111.25 285.312l-112.25 22.157zM189.46 639.938c94.156 92.938 239.438 104.438 346.313 34.562l-75-72.969 275.188-38.406-38.375 268.875-83.938-80.688c-150.937 111.344-364.906 100.719-502.063-34.562-79.5-78.406-115.718-182.531-111.25-285.25l112.25-22.125c-11.875 81.75 13.125 167.719 76.875 230.563z" horiz-adv-x="768" data-tags="sync" />
<glyph unicode="&#xe604;" d="M863.68 364.32c68.992-51.424 128.128-98.496 128.128-98.496l-84.192-147.648-152.16 67.168-140.992-82.464c-9.536-86.944-18.272-166.88-18.272-166.88h-168.384l-18.688 167.392-138.944 82.656-153.824-67.904-84.16 147.648c0 0 58.144 46.848 126.976 98.112v168.288l-126.976 97.92 84.16 147.68 150.144-66.816 149.056 80.864 12.256 168.16h168.384l12.192-167.456 147.008-82.496 152.256 67.776 84.192-147.68-128.128-98.272v-167.552zM512 576c-70.688 0-128-57.312-128-128s57.312-128 128-128 128 57.312 128 128-57.312 128-128 128z" data-tags="cog, gear, settings, generate, make, options" />
<glyph unicode="&#xe605;" d="M576 253.388v52.78c70.498 39.728 128 138.772 128 237.832 0 159.058 0 288-192 288s-192-128.942-192-288c0-99.060 57.502-198.104 128-237.832v-52.78c-217.102-17.748-384-124.42-384-253.388h896c0 128.968-166.898 235.64-384 253.388z" data-tags="user, profile, avatar, person, member" />
<glyph unicode="&#xe606;" d="M765.901 725.965l-368.794-253.389c0 0-14.285-10.291-14.285-24.627s14.285-24.525 14.285-24.525l368.794-253.491c29.286-19.456 53.299-5.069 53.299 32.051v491.981c0 37.222-24.013 51.61-53.299 32zM307.2 755.2h-51.2c-28.314 0-51.2-2.458-51.2-30.72v-552.96c0-28.262 22.886-30.72 51.2-30.72h51.2c28.314 0 51.2 2.458 51.2 30.72v552.96c0 28.262-22.886 30.72-51.2 30.72z" data-tags="controller-jump-to-start" />
<glyph unicode="&#xe607;" d="M626.893 472.576l-368.794 253.389c-29.286 19.61-53.299 5.222-53.299-32v-491.981c0-37.12 24.013-51.507 53.299-32l368.794 253.491c0 0 14.285 10.189 14.285 24.474 0 14.336-14.285 24.627-14.285 24.627zM716.8 755.2h51.2c28.314 0 51.2-2.458 51.2-30.72v-552.96c0-28.262-22.886-30.72-51.2-30.72h-51.2c-28.314 0-51.2 2.458-51.2 30.72v552.96c0 28.262 22.886 30.72 51.2 30.72z" data-tags="controller-next" />
<glyph unicode="&#xe608;" d="M716.8 704v-512l-460.8 256 460.8 256z" data-tags="triangle-left" />
<glyph unicode="&#xe609;" d="M768 448l-460.8-256v512l460.8-256z" data-tags="triangle-right" />
<glyph unicode="&#xe60a;" d="M512.051 560.64c-62.208 0-112.691-50.432-112.691-112.64s50.483-112.64 112.691-112.64c62.208 0 112.589 50.432 112.589 112.64s-50.381 112.64-112.589 112.64zM153.651 560.64c-62.208 0-112.691-50.432-112.691-112.64s50.483-112.64 112.691-112.64c62.208 0 112.589 50.483 112.589 112.64s-50.381 112.64-112.589 112.64zM870.451 560.64c-62.208 0-112.691-50.432-112.691-112.64s50.483-112.64 112.691-112.64c62.208 0 112.589 50.432 112.589 112.64s-50.381 112.64-112.589 112.64z" data-tags="dots-three-horizontal" />
<glyph unicode="&#xe60b;" d="M149.334 21.334c0-47.146 38.186-85.334 85.334-85.334h533.334c47.146 0 85.334 38.186 85.334 85.334l-0.002 853.332c0 47.146-38.186 85.334-85.334 85.334h-533.334c-47.146 0-85.332-38.186-85.332-85.334v-853.332zM302.934 853.334h396.8c26.026 0 46.932-20.908 46.932-46.934v-140.8c0-26.026-20.906-46.934-46.934-46.934h-396.798c-26.026 0-46.934 20.906-46.934 46.934v140.8c0 26.026 20.906 46.934 46.934 46.934zM256 480c0 29.44 23.894 53.334 53.334 53.334s53.334-23.894 53.334-53.334-23.894-53.334-53.334-53.334-53.334 23.894-53.334 53.334zM448 480c0 29.44 23.894 53.334 53.334 53.334s53.334-23.894 53.334-53.334-23.894-53.334-53.334-53.334-53.334 23.894-53.334 53.334zM640 480c0 29.44 23.894 53.334 53.334 53.334s53.334-23.894 53.334-53.334-23.894-53.334-53.334-53.334-53.334 23.894-53.334 53.334zM256 288c0 29.44 23.894 53.334 53.334 53.334s53.334-23.894 53.334-53.334-23.894-53.334-53.334-53.334-53.334 23.894-53.334 53.334zM448 288c0 29.44 23.894 53.334 53.334 53.334s53.334-23.894 53.334-53.334-23.894-53.334-53.334-53.334-53.334 23.894-53.334 53.334zM640 288c0 29.44 23.894 53.334 53.334 53.334s53.334-23.894 53.334-53.334-23.894-53.334-53.334-53.334-53.334 23.894-53.334 53.334zM256 96c0 29.44 23.894 53.334 53.334 53.334s53.334-23.894 53.334-53.334-23.894-53.334-53.334-53.334-53.334 23.894-53.334 53.334zM448 96c0 29.44 23.894 53.334 53.334 53.334s53.334-23.894 53.334-53.334-23.894-53.334-53.334-53.334-53.334 23.894-53.334 53.334zM640 96c0 29.44 23.894 53.334 53.334 53.334s53.334-23.894 53.334-53.334-23.894-53.334-53.334-53.334-53.334 23.894-53.334 53.334z" data-tags="calculator, arithmetic" />
<glyph unicode="&#xe60c;" d="M807.253 703.573c-8.747 25.173-32.64 43.093-60.587 43.093h-469.333c-27.947 0-51.84-17.92-60.587-43.093l-88.747-255.573v-341.333c0-23.467 19.2-42.667 42.667-42.667h42.667c23.68 0 42.667 19.2 42.667 42.667v42.667h512v-42.667c0-23.467 19.2-42.667 42.667-42.667h42.667c23.68 0 42.667 19.2 42.667 42.667v341.333l-88.747 255.573zM277.333 277.333c-35.413 0-64 28.587-64 64s28.587 64 64 64 64-28.587 64-64-28.587-64-64-64zM746.667 277.333c-35.413 0-64 28.587-64 64s28.587 64 64 64 64-28.587 64-64-28.587-64-64-64zM213.333 490.667l64 192h469.333l64-192h-597.333z" data-tags="directions-car" />
<glyph unicode="&#xe60d;" d="M316.373 302.293l195.627 195.627 195.627-195.627 60.373 60.373-256 256-256-256z" data-tags="keyboard-arrow-up" />
<glyph unicode="&#xe60e;" d="M366.293 257.707l195.627 195.627-195.627 195.627 60.373 60.373 256-256-256-256z" data-tags="keyboard-arrow-right" />
<glyph unicode="&#xe60f;" d="M657.707 263.040l-195.627 195.627 195.627 195.627-60.373 60.373-256-256 256-256z" data-tags="keyboard-arrow-left" />
<glyph unicode="&#xe610;" d="M316.373 609.707l195.627-195.627 195.627 195.627 60.373-60.373-256-256-256 256z" data-tags="keyboard-arrow-down" />
<glyph unicode="&#xe611;" d="M945.942 945.942c-18.746 18.744-49.136 18.744-67.882 0l-202.164-202.164c-51.938 15.754-106.948 24.222-163.896 24.222-223.318 0-416.882-130.042-512-320 41.122-82.124 100.648-153.040 173.022-207.096l-158.962-158.962c-18.746-18.746-18.746-49.136 0-67.882 9.372-9.374 21.656-14.060 33.94-14.060s24.568 4.686 33.942 14.058l864 864c18.744 18.746 18.744 49.138 0 67.884zM416 640c42.24 0 78.082-27.294 90.92-65.196l-121.724-121.724c-37.902 12.838-65.196 48.68-65.196 90.92 0 53.020 42.98 96 96 96zM110.116 448c38.292 60.524 89.274 111.924 149.434 150.296 3.918 2.5 7.876 4.922 11.862 7.3-9.962-27.328-15.412-56.822-15.412-87.596 0-54.89 17.286-105.738 46.7-147.418l-60.924-60.924c-52.446 36.842-97.202 83.882-131.66 138.342zM768 518c0 27.166-4.256 53.334-12.102 77.898l-321.808-321.808c24.568-7.842 50.742-12.090 77.91-12.090 141.382 0 256 114.618 256 256zM830.026 670.026l-69.362-69.362c1.264-0.786 2.53-1.568 3.786-2.368 60.162-38.374 111.142-89.774 149.434-150.296-38.292-60.522-89.274-111.922-149.436-150.296-75.594-48.218-162.89-73.704-252.448-73.704-38.664 0-76.902 4.76-113.962 14.040l-76.894-76.894c59.718-21.462 123.95-33.146 190.856-33.146 223.31 0 416.876 130.042 512 320-45.022 89.916-112.118 166.396-193.974 222.026z" data-tags="eye-blocked, views, vision, visit, banned, blocked, forbidden, private" />
<glyph unicode="&#xe612;" d="M512 768c-223.318 0-416.882-130.042-512-320 95.118-189.958 288.682-320 512-320 223.312 0 416.876 130.042 512 320-95.116 189.958-288.688 320-512 320zM764.45 598.296c60.162-38.374 111.142-89.774 149.434-150.296-38.292-60.522-89.274-111.922-149.436-150.296-75.594-48.218-162.89-73.704-252.448-73.704-89.56 0-176.858 25.486-252.452 73.704-60.158 38.372-111.138 89.772-149.432 150.296 38.292 60.524 89.274 111.924 149.434 150.296 3.918 2.5 7.876 4.922 11.86 7.3-9.96-27.328-15.41-56.822-15.41-87.596 0-141.382 114.616-256 256-256 141.382 0 256 114.618 256 256 0 30.774-5.452 60.268-15.408 87.598 3.978-2.378 7.938-4.802 11.858-7.302v0zM512 544c0-53.020-42.98-96-96-96s-96 42.98-96 96 42.98 96 96 96 96-42.982 96-96z" data-tags="eye, views, vision, visit" />
<glyph unicode="&#xe613;" d="M320 704h130.688v-64h-130.688v64zM320 576h384v-64h-384v64zM320 448h384v-64h-384v64zM320 320h384v-64h-384v64zM320 192h256v-64h-256v64zM576 960h64v-318.656h-64v318.656zM640 702.656h256v-61.312h-256v61.312zM768 756.224v-692.224h-512v768h436.224l-128 128h-436.224v-1024h768v692.224zM564.224 960l331.776-331.776v181.056l-150.72 150.72z" data-tags="file" />
<glyph unicode="&#xe614;" d="M259.84 573.696h764.16v-320h-764.16v320zM519.616 128h504.384v-128h-504.384v128zM259.84 128h129.92v-128h-129.92v128zM519.616 832h504.384v-128h-504.384v128zM259.84 832h129.92v-128h-129.92v128zM181.312 416l-181.312 181.312v-362.624z" data-tags="insert-row" />
<glyph unicode="&#xe94e;" d="M658.744 210.744l-210.744 210.746v282.51h128v-229.49l173.256-173.254zM512 960c-282.77 0-512-229.23-512-512s229.23-512 512-512 512 229.23 512 512-229.23 512-512 512zM512 64c-212.078 0-384 171.922-384 384s171.922 384 384 384c212.078 0 384-171.922 384-384s-171.922-384-384-384z" data-tags="clock, time, schedule" />
<glyph unicode="&#xe99b;" d="M128 64h896v-128h-1024v1024h128zM288 128c-53.020 0-96 42.98-96 96s42.98 96 96 96c2.828 0 5.622-0.148 8.388-0.386l103.192 171.986c-9.84 15.070-15.58 33.062-15.58 52.402 0 53.020 42.98 96 96 96s96-42.98 96-96c0-19.342-5.74-37.332-15.58-52.402l103.192-171.986c2.766 0.238 5.56 0.386 8.388 0.386 2.136 0 4.248-0.094 6.35-0.23l170.356 298.122c-10.536 15.408-16.706 34.036-16.706 54.11 0 53.020 42.98 96 96 96s96-42.98 96-96c0-53.020-42.98-96-96-96-2.14 0-4.248 0.094-6.35 0.232l-170.356-298.124c10.536-15.406 16.706-34.036 16.706-54.11 0-53.020-42.98-96-96-96s-96 42.98-96 96c0 19.34 5.74 37.332 15.578 52.402l-103.19 171.984c-2.766-0.238-5.56-0.386-8.388-0.386s-5.622 0.146-8.388 0.386l-103.192-171.986c9.84-15.068 15.58-33.060 15.58-52.4 0-53.020-42.98-96-96-96z" data-tags="stats-dots, stats, plot, statistics, chart" />
<glyph unicode="&#xea0a;" d="M992 576h-352v352c0 17.672-14.328 32-32 32h-192c-17.672 0-32-14.328-32-32v-352h-352c-17.672 0-32-14.328-32-32v-192c0-17.672 14.328-32 32-32h352v-352c0-17.672 14.328-32 32-32h192c17.672 0 32 14.328 32 32v352h352c17.672 0 32 14.328 32 32v192c0 17.672-14.328 32-32 32z" data-tags="plus, add, sum" />
</font>
</defs>
</svg>
